<?xml version="1.0" encoding="UTF-8" ?>
<!DOCTYPE svg PUBLIC "-//W3C//DTD SVG 1.1//EN" "http://www.w3.org/Graphics/SVG/1.1/DTD/svg11.dtd">
<svg width="460pt" height="180pt" viewBox="0 0 460 180" version="1.1" xmlns="http://www.w3.org/2000/svg">
<g id="#000000ff">
<path fill="#000000" stroke="#000000" stroke-width="0.09375" opacity="1.00" d=" M 53.49 1.74 C 66.85 -0.28 80.54 -0.55 93.90 1.59 C 103.29 3.22 113.03 6.09 119.95 13.00 C 124.76 17.57 127.13 24.43 126.24 31.00 C 125.95 32.29 126.06 34.05 124.78 34.84 C 122.92 36.31 119.77 34.46 120.48 32.07 C 121.18 27.16 120.47 21.84 116.97 18.08 C 110.15 10.45 99.56 8.05 89.86 6.58 C 70.21 4.23 49.81 6.12 31.29 13.32 C 22.23 17.01 13.19 22.52 8.41 31.38 C 5.66 36.75 4.97 43.60 7.91 49.04 C 10.24 53.30 14.34 56.24 18.64 58.28 C 25.36 61.40 32.67 62.89 39.95 64.03 C 56.40 66.48 73.16 66.52 89.52 69.65 C 95.51 70.96 102.03 72.89 105.90 77.99 C 110.01 84.12 109.02 92.83 104.61 98.55 C 98.69 106.16 89.09 109.63 79.92 111.43 C 64.77 114.09 48.99 113.12 34.22 108.86 C 29.87 107.46 25.37 106.08 21.61 103.39 C 19.55 101.39 22.35 97.54 24.89 99.12 C 38.74 106.09 54.63 107.94 69.95 107.13 C 79.29 106.48 89.19 104.73 96.72 98.76 C 101.48 95.05 104.38 88.06 101.59 82.34 C 98.71 77.25 92.43 75.95 87.17 74.77 C 66.52 71.15 45.13 72.33 24.86 66.44 C 17.34 64.15 9.56 60.91 4.56 54.56 C -0.41 48.23 -0.72 39.28 1.94 31.93 C 5.27 23.34 12.49 16.90 20.36 12.49 C 30.60 6.83 42.00 3.58 53.49 1.74 Z" />
<path fill="#000000" stroke="#000000" stroke-width="0.09375" opacity="1.00" d=" M 361.46 65.42 C 362.76 63.55 365.39 61.78 367.56 63.45 C 370.55 66.14 370.49 70.55 371.11 74.22 C 374.75 74.38 378.91 73.66 382.02 76.01 C 384.85 78.45 384.31 82.65 384.00 85.98 C 383.57 91.28 381.61 96.96 383.92 102.07 C 385.73 106.06 391.10 106.81 394.57 104.60 C 401.56 100.42 405.02 92.68 409.14 86.01 C 411.36 82.31 411.65 77.41 415.10 74.51 C 417.46 73.47 420.07 76.35 418.49 78.51 C 415.07 85.58 412.32 93.79 414.51 101.63 C 415.71 105.82 421.65 106.36 424.33 103.30 C 430.18 97.11 431.12 88.23 433.48 80.42 C 434.36 77.65 439.16 79.00 438.53 81.88 C 437.64 91.54 436.49 101.19 436.07 110.88 C 441.58 105.44 447.14 99.93 451.36 93.40 C 452.96 90.91 454.13 88.13 456.02 85.84 C 457.39 85.54 458.67 86.34 460.00 86.56 L 460.00 89.54 C 454.48 101.36 444.38 109.97 435.75 119.43 C 435.40 129.63 436.60 139.82 435.74 150.01 C 434.95 158.57 434.26 167.90 428.87 174.99 C 424.89 180.67 414.94 180.67 411.64 174.30 C 408.33 167.80 409.90 160.11 411.55 153.35 C 414.90 141.64 420.34 130.45 427.75 120.77 C 432.16 116.22 429.83 109.36 431.00 103.73 C 428.12 107.95 423.50 111.85 418.02 110.71 C 411.96 110.19 408.62 104.18 408.06 98.68 C 404.46 103.82 400.10 109.10 393.87 110.98 C 388.32 112.69 381.69 110.30 379.08 104.98 C 375.82 99.01 377.66 92.08 378.44 85.73 C 378.49 83.93 379.08 81.75 377.76 80.24 C 375.41 79.75 373.00 79.89 370.62 79.85 C 369.65 84.69 368.25 89.48 365.70 93.75 C 362.13 99.89 358.01 106.24 351.63 109.76 C 346.83 112.46 339.46 111.76 336.84 106.39 C 333.84 99.93 335.75 92.69 335.84 85.89 C 335.75 84.39 335.74 82.05 333.95 81.59 C 331.18 81.27 329.24 83.72 327.67 85.63 C 322.38 92.75 319.03 101.05 314.59 108.69 C 313.56 110.34 312.21 112.40 309.99 112.24 C 307.73 112.35 306.25 110.13 306.33 108.06 C 306.08 100.66 307.05 93.27 307.08 85.87 C 307.08 84.38 306.95 82.80 305.99 81.58 C 303.37 81.01 301.59 83.38 300.23 85.22 C 295.67 91.91 291.98 99.14 288.25 106.32 C 286.99 108.66 285.06 111.34 282.08 111.20 C 279.82 111.32 278.16 109.21 278.27 107.07 C 278.00 97.22 279.92 87.35 278.67 77.52 C 274.82 81.81 273.01 87.34 270.42 92.37 C 266.91 98.83 262.74 105.42 256.34 109.37 C 251.67 112.33 244.22 112.13 241.17 106.97 C 237.81 100.73 239.60 93.42 239.84 86.70 C 239.82 84.91 239.95 82.40 237.99 81.54 C 235.19 81.32 233.23 83.70 231.65 85.66 C 226.36 92.79 223.01 101.10 218.57 108.73 C 217.56 110.35 216.23 112.34 214.06 112.25 C 211.76 112.39 210.24 110.14 210.32 108.03 C 210.05 100.32 211.18 92.63 211.04 84.92 C 211.10 83.35 209.99 82.12 209.33 80.80 C 207.23 82.12 205.15 83.60 203.83 85.76 C 199.66 92.12 196.08 98.85 192.63 105.63 C 191.36 107.94 189.84 110.69 186.98 111.16 C 184.83 111.60 182.48 110.13 182.35 107.87 C 181.83 97.76 183.98 87.62 182.69 77.54 C 180.45 80.20 178.47 83.13 177.33 86.44 C 174.80 94.32 170.53 101.85 164.25 107.33 C 160.35 110.81 154.56 112.49 149.63 110.30 C 146.19 108.87 144.49 105.35 143.02 102.17 C 140.75 105.19 138.26 108.26 134.72 109.82 C 130.21 111.95 124.36 110.64 121.28 106.69 C 117.74 102.32 117.89 96.28 118.50 91.00 C 119.42 85.22 121.08 79.17 125.10 74.75 C 127.46 73.11 130.64 76.31 128.82 78.59 C 125.08 85.46 122.19 93.67 124.59 101.46 C 126.25 106.18 132.72 106.01 135.71 102.69 C 142.71 96.47 140.91 86.31 142.41 78.04 C 142.66 75.05 147.66 75.02 147.74 78.11 C 148.00 86.03 145.12 94.53 149.06 101.98 C 150.52 105.34 154.78 106.71 157.96 104.96 C 163.17 102.30 166.35 97.02 169.02 92.03 C 171.49 85.83 173.57 79.17 178.36 74.30 C 180.12 72.44 183.03 71.35 185.41 72.70 C 187.94 74.12 188.58 77.28 188.71 79.94 C 188.93 87.71 188.19 95.47 187.76 103.21 C 191.47 96.17 195.16 89.09 199.54 82.43 C 201.99 78.69 206.18 75.26 210.94 76.13 C 214.89 76.96 216.54 81.39 216.60 85.01 C 216.71 90.63 216.05 96.24 215.94 101.86 C 219.16 95.80 222.12 89.59 225.88 83.84 C 228.45 80.04 232.09 76.20 236.97 75.93 C 240.46 75.56 243.90 77.91 244.79 81.31 C 246.77 88.59 243.07 96.32 245.67 103.52 C 247.09 106.48 251.15 106.18 253.58 104.72 C 258.43 101.89 261.46 96.90 264.20 92.16 C 267.57 86.21 269.48 79.29 274.36 74.30 C 276.09 72.46 278.97 71.37 281.34 72.66 C 283.90 74.04 284.58 77.20 284.71 79.87 C 284.94 87.66 284.19 95.44 283.76 103.22 C 287.47 96.16 291.16 89.07 295.56 82.42 C 297.99 78.69 302.15 75.30 306.88 76.12 C 310.88 76.92 312.55 81.39 312.60 85.03 C 312.70 90.65 312.05 96.25 311.94 101.86 C 315.27 95.61 318.29 89.17 322.26 83.29 C 324.94 79.42 328.98 75.61 334.04 75.93 C 337.50 75.97 340.40 78.78 341.02 82.11 C 342.36 88.96 339.49 96.00 341.38 102.80 C 342.05 105.47 345.22 106.34 347.59 105.53 C 351.55 104.29 354.38 100.97 356.73 97.71 C 360.36 92.41 363.59 86.67 364.92 80.32 C 362.30 79.79 358.27 80.13 357.42 76.85 C 356.93 72.69 359.11 68.70 361.46 65.42 M 362.27 74.40 C 363.39 74.43 364.52 74.43 365.66 74.41 C 365.41 72.65 365.12 70.90 364.81 69.15 C 363.84 70.84 363.02 72.61 362.27 74.40 M 416.35 157.14 C 415.42 161.78 414.37 166.95 416.49 171.41 C 417.74 173.92 421.47 174.27 423.47 172.45 C 426.29 169.93 427.39 166.11 428.32 162.57 C 430.97 150.81 430.48 138.64 430.12 126.68 C 423.87 135.95 418.98 146.25 416.35 157.14 Z" />
</g>
</svg>
