<svg xmlns="http://www.w3.org/2000/svg" viewBox="0 0 615.62 241.62"><defs><style>.cls-1{fill:#fff;}.cls-2{fill-opacity:0;stroke:#000;stroke-width:3px;}</style></defs><title>summry_logos</title><g id="Layer_2" data-name="Layer 2"><g id="Layer_1-2" data-name="Layer 1"><path id="a8sXYuCAl" class="cls-1" d="M126.25,3.48c12.52,2.18,25.49,6,34.72,15.21a28.26,28.26,0,0,1,8.38,24c-.39,1.72-.24,4.06-1.95,5.11-2.48,2-6.67-.5-5.73-3.69.94-6.54,0-13.63-4.67-18.64-9.09-10.17-23.21-13.37-36.13-15.33C94.68,7,67.5,9.52,42.82,19.12,30.74,24,18.7,31.38,12.33,43.18c-3.67,7.16-4.59,16.29-.67,23.54C14.77,72.39,20.23,76.31,26,79c8.95,4.16,18.7,6.14,28.4,7.66C76.28,90,98.61,90,120.42,94.18c8,1.75,16.67,4.32,21.82,11.12,5.48,8.16,4.16,19.77-1.72,27.39-7.88,10.14-20.68,14.77-32.9,17.17a136,136,0,0,1-60.9-3.43c-5.79-1.86-11.79-3.7-16.8-7.29-2.75-2.66,1-7.79,4.37-5.69,18.46,9.29,39.63,11.76,60.05,10.68,12.44-.87,25.64-3.2,35.67-11.16,6.34-4.94,10.21-14.26,6.49-21.88-3.84-6.78-12.21-8.51-19.22-10.09-27.51-4.82-56-3.25-83-11.1-10-3.05-20.39-7.37-27-15.83s-7-20.36-3.49-30.15C8.14,32.47,17.76,23.89,28.25,18,41.9,10.47,57.09,6.14,72.4,3.68A175.52,175.52,0,0,1,126.25,3.48Z"/><path id="a8sXYuCAl-2" data-name="a8sXYuCAl" class="cls-2" d="M126.25,3.48c12.52,2.18,25.49,6,34.72,15.21a28.26,28.26,0,0,1,8.38,24c-.39,1.72-.24,4.06-1.95,5.11-2.48,2-6.67-.5-5.73-3.69.94-6.54,0-13.63-4.67-18.64-9.09-10.17-23.21-13.37-36.13-15.33C94.68,7,67.5,9.52,42.82,19.12,30.74,24,18.7,31.38,12.33,43.18c-3.67,7.16-4.59,16.29-.67,23.54C14.77,72.39,20.23,76.31,26,79c8.95,4.16,18.7,6.14,28.4,7.66C76.28,90,98.61,90,120.42,94.18c8,1.75,16.67,4.32,21.82,11.12,5.48,8.16,4.16,19.77-1.72,27.39-7.88,10.14-20.68,14.77-32.9,17.17a136,136,0,0,1-60.9-3.43c-5.79-1.86-11.79-3.7-16.8-7.29-2.75-2.66,1-7.79,4.37-5.69,18.46,9.29,39.63,11.76,60.05,10.68,12.44-.87,25.64-3.2,35.67-11.16,6.34-4.94,10.21-14.26,6.49-21.88-3.84-6.78-12.21-8.51-19.22-10.09-27.51-4.82-56-3.25-83-11.1-10-3.05-20.39-7.37-27-15.83s-7-20.36-3.49-30.15C8.14,32.47,17.76,23.89,28.25,18,41.9,10.47,57.09,6.14,72.4,3.68A175.52,175.52,0,0,1,126.25,3.48Z"/><path id="b1xRIyOOJD" class="cls-1" d="M488.92,85.06l.22,0,.23.05.23.06.23.08.22.09.22.11.23.13.22.14.21.16.29.27.28.28.26.29.25.3.24.3.22.32.21.31.2.33.18.33.18.34.16.34.16.35.14.35.14.35.12.37.12.36.11.37.11.37.09.38.09.38.09.38.08.38.07.38.07.39.07.39.06.38.06.39,0,.39.05.39.06.39.05.39.05.38.05.39,0,.39.05.38.05.38.05.38.06.37.05.37.06.37.37,0h6l.38,0,.38,0,.38,0,.37,0,.38,0,.37,0,.37,0,.37,0,.37.07.36.07.36.08.36.09.36.1.35.11.35.13.34.13.34.15.34.15.33.17.33.19.32.2.32.21.31.23.28.25.26.25.24.27.22.27.22.28.19.29.19.29.17.3.15.31.14.31.14.32.11.32.11.33.1.33.08.34.08.34.07.34,0,.35,0,.35,0,.36,0,.35,0,.36,0,.36v1.8l0,.36,0,.36,0,.36,0,.36,0,.36,0,.35,0,.35,0,.35,0,.35,0,.34,0,.34,0,.33,0,.53-.06.54-.06.53-.06.54-.07.53-.08.54-.07.54-.08.54-.09.54-.08.55-.08.54-.09.54-.08.55-.08.54-.08.55-.07.54-.07.55-.07.54-.06.54-.05.55-.05.54,0,.55,0,.54,0,.54,0,.54v1.08l0,.54,0,.53,0,.53.06.54.08.53.09.53.11.52.12.53.14.52.17.52.18.52.19.51.23.51.18.4.21.37.22.36.24.34.26.33.27.31.28.29.29.28.31.26.32.25.33.23.34.21.35.2.36.19.37.16.37.16.38.13.39.12.39.11.4.09.4.07.41.06.41,0,.41,0,.41,0h.41l.42,0,.41,0,.41-.05.41-.06.4-.08.41-.09.4-.11.39-.13.39-.14.38-.15.38-.17.37-.18.36-.2.35-.21.69-.43.67-.44.66-.46.64-.48.62-.49.61-.51.6-.52.58-.54.56-.54.56-.56.54-.58.53-.58.52-.6.51-.6.5-.62.48-.62.48-.63.47-.64.47-.65.45-.66.45-.66.44-.66.43-.68.43-.67.42-.68.42-.68.42-.69.41-.69.41-.69.4-.69.41-.69.4-.69.4-.69.4-.69.4-.69.41-.68.4-.69.41-.67.4-.68.41-.67.22-.37.21-.38.2-.38.19-.39.19-.39.17-.4.18-.4.16-.4.17-.41.16-.41.15-.41.15-.41.16-.41.15-.42.14-.41.15-.42.15-.41.15-.42.16-.41.15-.41.16-.41.16-.4.17-.41.17-.4.17-.39.19-.4.18-.39.2-.38.21-.38.21-.37.22-.37.24-.36.24-.35.26-.35.27-.34.28-.33.29-.32.31-.31L554,101l.34-.29.23-.1.24-.07.24-.06.23,0,.24,0h.47l.23,0,.22,0,.22,0,.22.07.22.08.2.1.21.11.19.12.19.13.18.14.17.15.17.16.15.16.15.18.13.18.13.19.11.2.1.2.09.21.07.21.06.22,0,.21,0,.23v.67l0,.23,0,.23-.07.22-.08.23-.11.22-.13.22-.15.22-.34.71-.33.71-.33.72-.33.73-.32.73-.32.73-.31.74-.3.75-.29.75-.29.75-.28.75-.26.76-.26.77-.25.76-.24.77-.22.77-.22.78-.2.78-.19.78-.17.78-.16.78-.15.79-.13.78-.12.79-.1.79-.08.79-.07.79,0,.8,0,.79v1.58l0,.8,0,.79.07.79.09.79.12.79.13.79.16.79.18.78.21.79.13.41.16.39.17.37.2.36.21.33.24.32.25.3.27.29.29.26.3.24.31.23.33.21.33.19.35.18.36.15.37.14.37.12.38.1.39.08.39.06.4.05.4,0h.8l.4,0,.4,0,.39-.06.4-.08.39-.1.38-.12.38-.13.37-.16.36-.17.35-.19.34-.2.33-.23.32-.24.31-.26.29-.28.28-.3.57-.62.55-.64.52-.65.51-.66.48-.68.46-.68.44-.7.43-.71.4-.71.39-.73.37-.73.35-.74.34-.75.33-.76.31-.76.3-.77.29-.78.27-.78.27-.79.26-.79.24-.8.24-.8.24-.8.22-.8.22-.81.22-.81L576,119l.21-.81.21-.81.2-.81.21-.81.2-.81.21-.81.2-.8.21-.81.21-.8.22-.79.22-.8.23-.78.23-.79.1-.26L579,108l.14-.23.15-.2.16-.19.18-.17.19-.15.2-.13.21-.11.22-.1.23-.08.24-.06.24,0,.25,0h.5l.25,0,.25,0,.25.05.25.06.24.08.24.09.23.11.23.11.22.13.21.15.19.15.19.17.17.18.16.19.14.2.12.21.11.22.09.23.07.24,0,.25,0,.26v.27l0,.28,0,.28-.09,1-.09,1-.09,1-.1,1-.09,1-.09,1-.1,1-.09,1-.1,1-.09,1-.1,1-.1,1-.09,1-.1,1-.09,1-.1,1-.09,1-.09,1-.09,1-.1,1-.08,1-.09,1-.09,1-.09,1-.08,1-.08,1-.08,1-.08,1-.07,1-.08,1-.07,1-.07,1-.06,1-.07,1-.06,1-.05,1-.06,1,0,1-.05,1,0,1,.55-.54.55-.54.55-.55.55-.54.55-.55.55-.55.55-.55.55-.55.55-.55.54-.55.54-.55.55-.56.54-.56.54-.56.53-.56.54-.56.53-.57.52-.56.53-.57.52-.58.52-.57.52-.58.51-.58.51-.59.5-.59.5-.59.5-.59.49-.6.49-.6.48-.61.48-.61.47-.61.47-.62.46-.62.46-.63.45-.63.44-.63.44-.64.43-.65.43-.65.16-.25.15-.25.16-.25.15-.26.15-.25.15-.25.15-.26.15-.26.15-.26.14-.25.15-.26.14-.26.15-.26.14-.26.14-.26.15-.26.14-.26.15-.26.14-.26.15-.26.14-.25.15-.26.15-.26.15-.25.15-.26.15-.25.15-.26.16-.25.15-.25.16-.25.16-.25.17-.24.16-.25.17-.24.17-.24.18-.24.18-.24.18-.23.18-.23.19-.23.13,0,.14,0,.14,0h.8l.14,0h.13l.13,0,.13,0,.14,0,.13,0,.13,0,.13,0,.14,0,.13,0,.13,0,.13,0,.13,0,.13,0,.13,0,.13,0,.14,0,.13,0,.13,0,.13,0,.13,0,.13,0,.13,0,.13,0,.14,0,.13,0,.13,0,.13,0,.13,0,.14,0,.13,0v4l-.56,1.17L613,123l-.6,1.14-.63,1.13-.65,1.11-.66,1.1-.69,1.09-.7,1.08-.72,1.06-.74,1.05-.75,1-.76,1-.78,1-.79,1-.81,1-.81,1-.83,1-.83,1-.85,1-.85,1-.87,1-.86,1-.88.94-.88,1-.89.94-.89.94-.89.93-.89.93-.9.93-.9.93-.9.93-.89.93-.9.93-.9.92-.89.93-.88.94-.89.93-.88.94-.87.94-.87.94,0,1,0,1,0,1v5.09l0,1,0,1,0,1,0,1,0,1,0,1,0,1,0,1,0,1,0,1,0,1,0,1,0,1,0,1,0,1,0,1,0,1v7.13l0,1,0,1,0,1,0,1-.06,1-.06,1-.07,1-.08,1-.08.86-.08.86-.08.86-.08.87-.08.87-.09.87-.08.87-.1.88-.09.87-.1.87-.11.88-.11.88-.12.87-.13.87-.13.87-.15.87-.15.87-.16.87-.17.86-.19.86-.19.85-.21.86-.22.84-.23.84-.25.84-.26.83-.28.83-.29.82-.31.81L577,227l-.34.79-.36.79-.38.79-.4.77-.42.76-.44.76-.46.74-.48.74-.51.72-.52.72-.42.55-.44.53-.46.49-.5.47-.51.44-.54.41-.56.38-.58.35-.59.33-.61.29-.62.27-.64.23-.65.21-.66.17-.66.15-.67.12-.68.09-.67.05-.68,0h-.68l-.68,0-.68-.06-.67-.1-.66-.12-.66-.15-.64-.19-.64-.21-.62-.25-.61-.27-.59-.31-.57-.34-.56-.37-.53-.4-.51-.43-.49-.46-.47-.5-.43-.52-.41-.56-.38-.59-.34-.62-.32-.65-.3-.66-.27-.67-.25-.66-.23-.68-.2-.68-.19-.68-.16-.69-.15-.69-.12-.69-.11-.7-.09-.7-.07-.7-.06-.71,0-.71,0-.71v-1.42l0-.71,0-.72,0-.72.05-.71.07-.72.08-.72.08-.71.1-.72.1-.71.12-.71.12-.71.13-.71.13-.71.14-.71.14-.7.15-.7.16-.7.16-.69.15-.69.17-.69.16-.68.17-.68.34-1.17.35-1.16.36-1.17.37-1.16.38-1.16.39-1.15.4-1.15.42-1.15.42-1.14.43-1.14.45-1.14.45-1.13.46-1.13.48-1.12.48-1.12.5-1.12.5-1.11.52-1.1.52-1.11.54-1.09.55-1.09.55-1.09.57-1.08.57-1.07.59-1.07.6-1.07.6-1.06.62-1.05.63-1,.63-1,.65-1,.65-1,.67-1,.68-1,.68-1,.7-1,.71-1,.71-1,.73-1,.73-1,.43-.46.39-.47.36-.48.33-.49.3-.5.28-.52.25-.52.22-.53.2-.53.18-.55.16-.55.14-.56.12-.56.1-.57.09-.58.07-.58.06-.58,0-.59,0-.59,0-.6,0-.6v-6l0-.6,0-.6,0-.59,0-.59,0-.59.07-.58.07-.58.1-.57.1-.56-.29.42-.3.42-.31.41-.32.41-.32.41-.34.41-.34.4-.35.39-.36.39-.36.38-.37.37-.38.36-.39.36-.4.35-.4.33-.41.33-.42.31-.42.31-.43.29-.43.28-.45.26-.45.25-.45.24-.46.22-.47.21-.48.18-.48.18-.48.15-.49.14-.5.12-.5.1-.51.07-.51.06-.52,0-.52,0h-.53l-.53,0-.54,0-.54-.08-.54-.1-.6-.07-.59-.09-.57-.12-.56-.14-.54-.17-.53-.19-.52-.21-.5-.24-.49-.26-.48-.28-.46-.3-.45-.31-.44-.34-.42-.36-.4-.37-.4-.38-.38-.41-.37-.41-.35-.43-.34-.45-.32-.46-.31-.46-.3-.48-.29-.49-.27-.5-.25-.51-.25-.52-.23-.52-.21-.53-.2-.53-.19-.54-.17-.55-.16-.55-.15-.55-.13-.55-.12-.55-.11-.56L545,134l-.07-.55-.07-.55-.36.51-.36.52-.37.51-.38.51-.38.52-.38.51-.39.5-.39.51-.39.51-.41.5-.4.49-.42.49-.41.49-.43.49-.43.47-.43.47-.44.47-.45.46-.46.45-.46.44-.46.44-.48.42-.48.42-.48.41-.5.4-.5.38-.51.38-.52.37-.52.35-.53.34-.54.33-.55.32-.56.3-.56.29-.58.28-.58.26-.59.24-.6.23-.61.21-.62.2-.55.16-.56.14-.57.12-.57.1-.57.08-.58.06-.57,0-.58,0h-1.16l-.57,0-.58-.05-.57-.08-.57-.09-.56-.11-.57-.13-.55-.15-.55-.16-.55-.19-.54-.2-.53-.22-.52-.23-.52-.25-.5-.27-.5-.29-.49-.31-.47-.32-.46-.33-.45-.36-.44-.37-.42-.38L509,145l-.39-.42-.38-.44-.36-.45-.35-.46-.32-.48-.31-.49-.29-.51-.27-.53-.32-.6-.29-.6-.26-.61-.24-.61-.22-.62-.2-.62-.18-.62-.15-.63-.14-.63-.12-.63-.1-.64-.08-.64-.07-.64-.05-.64,0-.65,0-.65v-1.3l0-.65,0-.65,0-.66.05-.65.05-.66L504,126l.07-.65.07-.66.08-.66.09-.65.09-.66.09-.65.09-.65.09-.66.1-.65.1-.65.09-.64.1-.65.09-.64.09-.65.08-.63.08-.64v-.92l0-.19,0-.19v-.19l0-.19,0-.19v-.19l0-.2v-.19l0-.19v-1.73l0-.19,0-.19,0-.19,0-.18,0-.18,0-.18-.05-.18-.06-.18-.06-.17-.07-.18-.07-.17-.09-.16-.09-.17-.1-.16-.11-.16-.12-.15-.12-.16-.24,0-.23,0-.24,0-.24,0-.23,0-.24,0-.23,0-.24,0-.24,0-.24,0-.23,0-.24,0h-.24l-.24,0H501l-.24,0H495l-.1.49-.1.48-.1.48-.1.49-.11.48-.11.48-.11.48-.12.48-.12.48-.12.48-.12.48-.13.47-.13.48-.14.47-.14.48-.14.47-.14.47-.15.47-.15.47-.16.47-.16.47-.16.46-.17.46-.17.47-.18.46-.18.45-.18.46-.19.46-.2.45-.2.45-.2.45-.21.44-.22.45-.22.44-.22.44-.23.44-.24.44-.24.43-.24.43-.25.43-.36.61-.36.62-.37.61-.37.62-.37.61-.37.61-.38.62-.39.61-.38.61-.4.6-.39.61-.41.6-.4.59-.42.6-.42.59-.42.58-.43.58-.44.57-.44.57-.46.56-.45.56-.47.55-.47.54-.48.53-.49.53-.5.51-.5.51-.51.5-.53.49-.53.48-.54.47-.55.46-.56.44-.56.44-.58.42-.59.42-.6.39-.61.39-.62.37-.63.36-.49.26-.5.25-.51.22-.52.21-.52.2-.54.17-.55.16-.55.13-.55.12-.56.1-.57.09-.56.06-.57.05-.57,0H461l-.57,0-.56,0-.56-.07-.56-.09-.55-.11-.54-.13-.54-.16-.53-.17-.52-.19-.51-.22-.5-.24-.49-.25-.47-.28-.46-.3-.45-.32-.43-.35-.41-.36L452,146l-.38-.41-.36-.44-.34-.45-.31-.48-.3-.5-.27-.53-.29-.65-.27-.65-.24-.65-.22-.66-.19-.66-.18-.67-.16-.66-.14-.68-.12-.67-.11-.67-.08-.68-.08-.68-.06-.69,0-.68,0-.69,0-.68v-2.08l0-.69,0-.69,0-.7,0-.69.05-.7.05-.69,0-.7.06-.69.05-.7.06-.69.06-.7.06-.69.05-.69.06-.69.05-.7,0-.68,0-.69,0-.69,0-.68,0-.69v-1.81l0-.17v-.18l0-.17V114l0-.18,0-.18,0-.17,0-.18,0-.17,0-.17,0-.18,0-.16-.05-.17-.05-.17-.05-.16-.06-.16-.06-.15-.07-.15-.08-.15-.08-.14-.08-.14-.09-.13-.1-.12-.11-.12-.11-.12-.12-.1-.12-.1-.14-.1-.14-.08-.15-.08-.16-.07-.16-.06-.18,0-.27,0h-.8l-.26,0-.25,0-.25,0-.25.06-.25.08-.24.08-.23.09-.24.1-.22.11-.23.11-.22.13-.22.13-.22.14-.21.15-.21.15-.21.16-.2.17-.2.17-.2.17-.2.18-.19.18-.19.19-.19.19-.18.19-.18.2-.18.19-.18.2-.17.2-.18.2-.17.2-.17.2-.16.2-.16.19-.17.2-.16.19-.15.2-.53.71-.51.72-.51.73-.5.73-.48.73-.49.74-.47.75-.47.75-.46.75-.45.76-.45.76-.44.76-.44.77-.43.77-.43.77-.42.78-.42.78-.42.78-.41.78-.41.78-.41.79-.41.78-.41.79-.4.78-.41.79-.4.79-.41.79-.4.78-.41.79-.41.78-.41.79-.41.78-.41.78-.42.78-.42.78-.42.78-.43.77-.43.77-.43.77-.44.77-.11.16-.1.17-.11.17-.11.17-.11.17-.11.17-.12.17-.12.17-.11.17-.13.17-.12.17-.12.17-.13.16-.13.17-.14.16-.13.15-.14.16-.14.15-.15.14-.14.15-.16.13-.15.14-.15.13-.16.12-.17.11-.16.11-.17.11-.18.09-.17.09-.18.09-.19.07-.18.07-.19.06-.2,0-.2,0-.2,0-.21,0h-1.09l-.21,0-.22,0-.2,0-.21,0-.19-.05-.2-.07-.19-.08-.18-.08-.18-.1-.18-.1-.17-.11-.16-.12-.16-.12-.15-.14-.15-.13-.14-.15-.14-.15-.13-.16-.13-.16-.12-.17-.11-.17-.11-.18-.1-.18-.09-.18-.09-.19-.08-.2-.08-.19-.07-.2-.06-.2-.05-.2,0-.2,0-.21,0-.21,0-.2,0-.21v-.62l0-.74,0-.74v-4.44l0-.74,0-.74,0-.74,0-.74,0-.73,0-.74,0-.74,0-.74,0-.74,0-.74.05-.74,0-.74,0-.74,0-.74.05-.74,0-.73.05-.74,0-.74,0-.74,0-.74,0-.74,0-.74,0-.74,0-.74,0-.74,0-.74,0-.74,0-.74,0-.74v-4l0-.15,0-.15v-.15l0-.15,0-.14,0-.15,0-.15,0-.15,0-.14,0-.15,0-.14,0-.15,0-.14-.05-.14-.05-.14-.05-.14-.05-.14-.06-.14-.06-.14-.06-.13-.07-.14-.07-.13-.08-.13-.07-.13-.09-.13-.08-.12-.09-.13-.1-.12-.25,0-.26,0-.25,0h-.49l-.24,0-.24,0-.23,0-.23,0-.22.06-.22.08-.22.08-.21.09-.21.1-.21.11-.2.12-.2.13-.2.13-.19.14-.19.15-.19.15-.18.16-.18.17-.18.16-.18.18-.17.17-.17.18-.16.19-.17.18-.16.19-.16.19-.15.19-.15.19-.16.19-.14.2-.15.19-.14.19-.14.19-.14.18-.14.19-.45.67-.45.67-.45.68-.44.68-.44.68-.43.68-.43.68-.43.69-.42.69-.42.69-.42.69-.41.7-.41.69-.41.7-.4.7-.4.7-.4.71-.4.7-.4.71-.39.7-.39.71-.39.71-.38.71-.39.71-.38.72-.38.71-.38.72-.38.71-.38.72-.38.71-.37.72-.38.72-.37.71-.38.72-.37.72-.37.72-.38.71-.37.72-.37.72-.38.72-.12.23-.13.24-.14.24-.14.23-.14.24-.14.24-.15.23-.15.24-.16.23-.16.24-.16.23-.17.22-.17.23-.18.22-.18.22-.18.21-.19.21-.19.2-.2.2-.2.19-.2.18-.21.18-.21.18-.22.16-.22.16-.23.15-.23.14-.24.13-.24.12-.24.11-.25.1-.26.1-.26.08-.26.07-.27,0-.28.05-.28,0-.28,0h-1.25l-.22,0-.21,0-.2,0-.21-.05-.2-.07-.19-.07-.19-.08-.19-.09-.18-.1-.18-.1-.17-.12-.17-.12-.16-.13-.15-.13-.16-.14-.14-.15-.14-.15-.13-.16-.13-.16-.12-.17-.12-.18-.11-.18-.1-.18-.09-.19-.09-.19-.08-.19-.08-.2-.06-.2-.06-.2-.05-.2-.05-.21,0-.21,0-.21,0-.21v-.64l0-1v-3.94l0-1,0-1,0-1,0-1,.05-1,.05-1,.06-1,0-1,.06-1,.06-1,.07-1,.06-1,.06-1,.06-1,.06-1,.06-1,.05-1,.05-1,.05-1,0-1,0-1,0-1,0-1v-3.94l0-1,0-1-.05-1-.06-1-.08-1-.08-1-.1-1-.12-1-.38.43-.37.44-.36.44-.35.45-.35.46-.33.46-.33.46-.31.47-.31.47-.31.48-.3.48-.29.49-.28.49-.28.49-.28.5-.26.49-.27.51-.26.5-.26.51-.25.5-.25.51-.25.52-.24.51-.24.51-.24.52-.24.51-.24.52-.24.52-.24.52-.23.51-.24.52-.24.52-.24.51-.24.51-.24.52-.25.51-.25.51-.25.51-.25.5-.26.51-.35.64-.35.65-.36.65-.37.64-.37.65-.37.64-.37.64-.38.64-.39.64-.39.64-.4.63-.4.63-.41.63-.41.62-.42.62-.42.62-.44.6-.44.61-.44.6-.45.59-.46.59-.47.58-.47.57-.49.56-.49.56-.5.55-.5.54-.52.53-.52.53-.54.51-.54.51-.55.49-.56.49-.57.47-.59.46-.59.45-.6.44-.61.43-.62.41-.64.4-.47.29-.49.27-.5.26-.51.24-.52.22-.53.21-.54.18-.54.17-.55.16-.56.13-.56.12-.57.1-.57.08-.57.06-.58.05-.57,0h-.58l-.57,0-.57,0-.57-.06-.56-.07-.56-.1-.55-.12-.55-.13-.53-.16-.53-.18-.52-.2-.51-.23-.5-.24-.49-.27-.47-.29-.46-.31-.44-.34-.43-.36-.41-.38-.4-.41-.38-.43-.35-.45-.34-.48-.31-.51-.33-.62-.3-.63-.27-.64-.25-.64-.23-.65-.21-.65-.18-.65-.17-.66-.15-.66-.13-.67-.11-.66-.09-.67-.08-.68-.07-.68-.05-.68,0-.68,0-.68v-2.06l0-.69,0-.69,0-.69,0-.7,0-.69,0-.69.05-.69.06-.7.06-.69.06-.69.05-.69.06-.69.06-.69.06-.68,0-.69.05-.68.05-.68,0-.68,0-.67,0-.68v-2.52l0-.2,0-.2,0-.2,0-.2,0-.19,0-.2,0-.19-.05-.19-.05-.19-.05-.18-.06-.19-.07-.17-.08-.18-.08-.17-.08-.16-.1-.17-.1-.15-.11-.15-.12-.15-.12-.14-.14-.13-.14-.13-.15-.12-.16-.11-.17-.11-.18-.09-.19-.09-.28,0h-.54l-.27,0-.26,0-.26,0-.25.06-.25.06-.25.08-.24.08-.24.1-.23.1-.24.11-.23.12-.22.13-.22.13-.22.14-.22.15-.21.15-.21.16-.2.17L313,112l-.2.17-.19.18-.2.18-.19.19-.19.19-.18.19-.19.2-.18.2-.18.19-.17.2-.18.21-.17.2-.17.2-.16.2-.17.2-.16.2-.16.2-.16.2-.53.71-.51.72-.51.73-.49.73-.49.74-.48.74-.48.75-.46.75-.46.75-.46.76-.44.76-.45.77-.43.76-.44.77-.42.78-.43.77-.42.78-.42.78-.41.78-.41.79-.41.78-.41.79-.4.79-.41.78-.41.79-.4.79-.4.78-.41.79-.41.79-.4.78-.41.79-.41.78-.42.78-.41.78-.42.78-.43.77-.42.78-.43.77-.44.77-.44.76-.1.16-.11.17-.1.16-.11.17-.11.17-.11.16-.11.17-.12.17-.11.16-.12.17-.12.16-.13.17-.12.16-.13.16-.13.15-.14.16-.13.15-.14.15-.14.14-.15.14-.14.14-.15.13-.16.12-.15.12-.16.12-.17.11-.16.1-.17.1-.18.09-.17.08-.18.08-.19.07-.18.06-.19.05-.2,0-.2,0-.2,0-.21,0h-.87l-.22,0-.22,0-.21,0-.21,0-.2-.06-.2-.06-.19-.08-.19-.08-.18-.1-.18-.1-.17-.11-.17-.12-.16-.13-.16-.13-.15-.14-.15-.15-.14-.15-.13-.16-.13-.16-.12-.17-.12-.18-.11-.18-.1-.18-.1-.19-.09-.19-.09-.19-.07-.2-.07-.2-.07-.21-.05-.2-.05-.21,0-.21,0-.21,0-.21,0-.21,0-.21v-.42l0-.77,0-.77v-4.62l0-.77,0-.77,0-.77,0-.77,0-.77,0-.77,0-.77,0-.77,0-.77.05-.77,0-.77.05-.77.05-.77,0-.77.05-.77,0-.77.05-.77,0-.77,0-.77,0-.77,0-.77,0-.77,0-.77,0-.77,0-.77,0-.77v-5.08l0-.15,0-.15,0-.15,0-.15,0-.15,0-.14,0-.14-.05-.14-.05-.15-.05-.14-.05-.13-.06-.14-.06-.14-.06-.14-.07-.13-.07-.14-.07-.13-.07-.13-.07-.14-.07-.13-.08-.13-.08-.13-.07-.13-.08-.13-.08-.13-.08-.13-.08-.13-.07-.13-.08-.13-.08-.13-.08-.13-.07-.13-.08-.14-.07-.13-.07-.13-.07-.13-.07-.13-.2.13-.21.14-.21.13-.21.13-.21.14-.21.14-.21.14-.2.14-.21.14-.2.14-.21.14-.2.15-.2.15-.2.15-.2.15-.2.15-.19.15-.2.16-.19.16-.19.16-.19.16-.18.16-.19.17-.18.17-.18.17-.18.17-.17.18-.17.18-.17.18-.17.18-.16.19-.17.19-.15.19-.16.19-.15.2-.15.2-.14.21-.14.2-.14.22-.13.21-.42.64-.41.63-.41.64-.41.65-.4.64-.4.65-.4.64-.4.65-.39.65-.39.65-.39.65-.39.66-.38.65-.39.66-.38.66-.37.66-.38.66-.37.66-.38.67-.37.66-.37.66-.36.67-.37.67-.36.67-.36.66-.36.67-.36.68L262,134l-.35.67-.36.67L261,136l-.36.68-.35.67-.35.68-.35.67-.34.68-.35.68-.35.67-.34.68-.35.68-.13.23-.13.23-.13.24-.13.24-.13.23-.14.24-.14.24-.14.24-.14.23-.14.24-.15.24-.15.23-.16.23-.15.23-.16.23-.16.22-.17.22-.17.22-.17.21-.18.21-.18.21-.19.2-.19.19-.19.19-.2.18-.2.18-.21.17-.21.16-.22.16-.22.15-.23.14-.23.13-.24.12-.25.11-.25.11-.26.09-.26.09-.27.07-.28.07-.28.05-.21,0-.22,0-.22,0H249l-.21,0-.21,0-.22,0-.21,0-.21,0-.2-.06-.21-.07-.2-.07-.19-.08-.2-.08-.19-.1-.18-.1-.19-.11-.17-.11-.18-.13-.16-.13-.16-.13-.16-.14-.15-.15-.14-.15-.13-.16-.13-.17-.12-.17-.11-.18-.11-.18-.1-.19-.08-.19-.08-.2-.07-.2-.06-.21,0-.21,0-.21,0-.22,0-.23,0-1,0-1,0-1v-3l0-1,0-1,0-1,0-1,.05-1,.05-1,0-1,.06-1,.06-1,.07-1,.06-1,.07-1,.06-1,.06-1,.06-1,.06-1,.06-1,.05-1,0-1,0-1,0-1,0-1,0-1v-3l0-1,0-1,0-1-.06-1-.07-1-.09-1-.11-1-.12-1-.22.26-.22.27-.22.27-.22.27-.22.27-.21.28-.22.27-.21.28-.21.27-.21.28-.2.28L242,108l-.2.28-.2.29-.2.28-.19.29-.19.29-.19.29-.19.3-.19.29-.18.3-.18.3-.17.3-.18.3-.17.3-.17.3-.16.31-.16.31-.16.31-.15.31-.15.31-.15.32-.14.32-.14.31-.14.33-.13.32-.13.32-.12.33-.12.33-.12.33-.26.78-.26.79-.28.78-.28.78-.29.78-.3.77-.31.77-.32.77-.33.77-.34.76-.34.76-.36.75-.36.75-.38.74-.38.74-.39.74-.4.73-.41.72L231,131l-.43.71-.44.71-.45.7-.45.7-.47.68-.48.69-.48.67-.5.67-.5.66-.51.65-.53.64-.53.64-.55.62-.55.62-.56.61-.58.6-.58.59-.59.59-.6.57-.62.56-.62.55-.39.35-.41.33-.41.33-.42.31-.43.31-.44.29-.44.28-.45.28-.46.26-.46.25-.47.24-.48.23-.48.21-.48.2-.5.19-.49.18-.5.17-.5.15-.51.13-.51.13-.51.11-.51.09-.52.08-.51.07-.52,0-.52,0-.52,0h-1l-.52,0-.51-.05-.52-.06-.52-.08-.51-.1-.51-.12-.51-.13-.51-.16-.5-.17-.5-.19-.49-.21-.34-.15-.33-.15-.32-.17-.32-.18-.31-.19-.29-.19-.3-.21-.28-.21-.28-.22-.27-.23-.26-.23L197,146l-.25-.25-.24-.25-.24-.27-.23-.26-.22-.28-.23-.28-.21-.28-.21-.29-.21-.29-.2-.3-.19-.3-.19-.31-.19-.3L194,142l-.18-.32-.18-.31-.17-.32-.17-.32-.17-.32-.16-.32-.16-.32-.16-.33-.16-.32-.15-.32-.15-.32-.15-.32-.15-.32-.15-.32-.23.3-.23.3-.23.3-.23.31-.23.3-.24.3-.23.3-.24.29-.24.3-.24.3-.25.29-.24.29-.25.29-.25.29-.26.28-.25.29-.26.28-.26.27-.27.28-.27.26-.27.27-.27.26-.28.26-.28.25-.29.25-.28.25-.3.24-.29.23-.3.23-.31.23-.31.22-.31.21-.32.21-.32.2-.33.19L182,147l-.33.18-.34.18-.35.16-.35.16-.45.21-.47.18-.46.17-.47.16-.48.13-.48.12-.48.11-.49.08-.49.07-.49.06-.49,0-.49,0h-1l-.5,0-.49,0-.49-.06-.49-.07-.49-.09-.48-.1-.48-.12-.48-.14-.47-.15-.46-.16-.47-.18-.45-.19-.45-.21-.44-.22-.43-.24-.43-.25-.41-.26-.41-.28-.4-.29-.38-.31-.38-.32-.36-.34-.36-.34-.34-.37-.33-.37-.31-.39-.35-.44-.32-.45-.31-.46-.29-.46-.28-.47-.26-.48-.24-.48-.23-.49-.21-.5-.19-.5-.19-.51-.17-.51-.15-.52-.14-.52-.13-.53-.12-.53-.1-.53-.09-.54-.09-.54-.07-.54-.06-.54-.05-.55,0-.55,0-.55,0-.55,0-.55V128.6l0-.55,0-.55,0-.55,0-.55,0-.54.05-.55,0-.54.05-.54.06-.53.05-.54.06-.53.1-.58.1-.58.1-.58.1-.58.11-.58.12-.58.12-.58.13-.58.13-.58.13-.58.14-.58.15-.58.16-.57.16-.58.16-.57.18-.57.18-.57.19-.56.19-.57.2-.55.21-.56.22-.55.23-.55.23-.54.25-.54.25-.54.26-.53.27-.52.28-.52.29-.52.3-.51.31-.5.31-.49.33-.49.34-.49.35-.47.37-.47.37-.46.38-.46.4-.44.24-.15.24-.13.24-.11.25-.08.24-.06.25,0,.25,0H170l.24,0,.24,0,.24.06.23.09.22.09.22.12.21.12.21.14.19.15.19.16.18.17.16.18.16.19.14.2.14.2.11.21.11.22.09.23.07.23.06.23,0,.24,0,.24v.48l0,.24,0,.24-.08.24-.1.24-.12.24-.14.23-.17.23-.37.69-.37.7-.36.7-.36.71-.35.72-.34.72-.33.72-.33.73-.32.74-.31.74-.3.74-.28.75-.28.76-.27.75L168,117l-.24.77-.23.77-.21.77-.2.77-.19.77-.17.78-.15.78-.14.78-.12.79-.11.78-.08.79-.07.78-.05.79,0,.79v1.58l0,.78.06.79.08.79.1.79.13.78.15.79.17.78.2.78.23.78.18.46.2.44.22.41.24.39.27.36.28.34.3.32.32.29.33.27.35.25.36.23.37.21.39.18.39.16.41.14.41.12.43.1.42.08.44.05.43,0,.45,0h.44l.44,0,.45,0,.44-.07.44-.08.44-.1.44-.11.43-.14.42-.15.42-.18.41-.19.4-.2.39-.23.38-.24.36-.26.36-.28.34-.29.32-.31.31-.32.68-.63.63-.65.6-.67.55-.69.52-.7.48-.72.44-.73.42-.75.38-.76.35-.78.32-.79.29-.8.27-.81.24-.82.23-.83.2-.84.18-.85.16-.85.14-.86.13-.87.12-.87.1-.88.09-.88.09-.88.07-.89.07-.88.07-.89.06-.89.06-.89L190,114l.06-.89.07-.88.06-.87.08-.87.08-.87.09-.86.1-.86.12-.85.12-.84.15-.83,0-.29.06-.28.08-.26.1-.24.12-.24.14-.21.15-.21.17-.18.19-.18.19-.15.21-.15.22-.12.23-.12.23-.09.24-.09.25-.06.25,0,.26,0,.26,0h.51l.26,0,.25,0,.25.06.24.07.24.08.23.1.22.12.21.13.2.14.19.16.17.18.16.19.14.21.13.23.1.23.09.26.07.27,0,.28,0,.31,0,.79v1.59l0,.8,0,.81,0,.8,0,.81-.06.8-.06.81-.07.81-.07.81-.07.81-.07.82-.08.81-.07.81-.06.81-.07.81-.06.82,0,.81,0,.8,0,.81,0,.81v1.61l0,.8,0,.8,0,.8.07.79.08.79.11.79.12.79.15.78.18.78.19.77.23.77.25.77.29.76.31.76.34.75.38.74.15.34.17.32.18.31.19.3.2.29.22.28.23.26.23.26.25.25.26.23.26.23.28.21.28.2.29.19.3.17.3.17.31.15.32.14.32.13.33.11.33.11.33.09.34.07.34.06.35.05.34,0,.35,0h.69l.35,0,.35,0,.34,0,.35-.06.34-.08.34-.09.34-.11.33-.12.33-.14.33-.15.32-.16.51-.28.51-.28.5-.3.48-.31.48-.32.47-.33.46-.35.45-.35.44-.36.43-.38.43-.38.41-.39.41-.4.4-.41.4-.42.38-.43.38-.43.37-.44.37-.44.36-.46.35-.45.35-.47.34-.46.33-.48.33-.48.32-.48.32-.48.32-.49.31-.49.3-.5.3-.49.29-.5.3-.5.28-.5.29-.5.28-.5.27-.5.28-.5.27-.51.27-.49.24-.63.25-.62.24-.62.24-.63.25-.63.24-.62.24-.63.24-.63.25-.63.24-.63.25-.63.25-.63.25-.62.26-.63.26-.62.26-.62.27-.62.27-.62.28-.61.28-.61.29-.61.29-.6.31-.61.3-.59.32-.59.32-.59.33-.58.34-.58.35-.57.36-.56.37-.56.37-.56.39-.54.4-.54.41-.53.42-.53.44-.51.44-.51.46-.5.47-.49.18-.19.19-.18.19-.17.19-.17.2-.17.21-.16.2-.16.22-.15.21-.14.23-.14.22-.14.23-.13.23-.12.23-.11.24-.11.24-.1.24-.1.25-.08.24-.08.25-.07.25-.07.25,0,.25,0,.26,0,.25,0,.26,0h.76l.25,0,.26,0,.25,0,.25,0,.25.06.25.07.25.08.24.1.25.1.24.12.24.13.25.14.24.16.23.16.22.17.21.18.2.18.2.2.18.2.18.2.17.21.17.22.15.22.15.23.14.24.14.24.12.24.12.25.12.25.11.25.1.26.09.26.09.27.09.26.07.27.08.27.07.28.06.27.06.27,0,.28.05.28.05.27,0,.28,0,.28,0,.27,0,.28,0,.27,0,.28,0,.27v.27l0,.26,0,.78v6.21l0,.78,0,.77,0,.78,0,.77,0,.78,0,.78,0,.77,0,.78,0,.77,0,.78,0,.77,0,.78-.05.77,0,.78,0,.77-.05.78-.05.77,0,.78-.05.77,0,.78-.05.77-.05.78,0,.77-.05.78,0,.77-.05.77-.05.78,0,.77-.05.78,0,.77,0,.77.37-.7.37-.7.37-.71.37-.7.38-.71.37-.7.37-.7.37-.71.37-.7.38-.7.37-.71.38-.7.38-.7.37-.7.38-.7.38-.7.38-.7.39-.7.38-.7.38-.69.39-.7.39-.69.39-.7.4-.69.39-.69.4-.69.4-.69.4-.69.4-.68.41-.69.41-.68.41-.68.41-.68.42-.68.42-.67.42-.68.43-.67.43-.67.43-.67.44-.67.25-.37.26-.37.26-.37.28-.37.28-.36.29-.35.3-.36.3-.35.32-.34.32-.34.33-.33.33-.32.34-.31.35-.31.36-.3.36-.29.37-.28.37-.27.38-.26.39-.25.39-.24.4-.22.4-.21.41-.2.42-.19.42-.17.42-.16.43-.14.43-.13.44-.11.44-.1.45-.07.45-.06.45,0,.46,0h.93l.46,0,.48,0,.47.08.39.09.38.11.36.12.36.15.34.15.34.18.32.19.31.2.3.21.29.23.28.25.27.25.25.26.25.28.24.29.23.29.21.31.21.31.2.32.19.33.17.34.17.34.16.35.15.35.14.36.13.36.12.37.11.37.11.37.09.37.09.38.07.37.07.38.06.38.05.37,0,.38,0,.37,0,.37v4.66l0,.56v.56l0,.57,0,.56,0,.56,0,.56,0,.56,0,.56,0,.56,0,.56,0,.57,0,.56,0,.56,0,.56,0,.56,0,.56,0,.56,0,.56,0,.56,0,.57,0,.56,0,.56,0,.56,0,.56,0,.56,0,.56,0,.57,0,.56,0,.56,0,.56,0,.56v.56l0,.56.32-.6.32-.61.32-.61.32-.6.32-.61.32-.61.31-.61.32-.61.31-.61.32-.61.31-.61.32-.61.32-.6.31-.61.32-.61.32-.61.32-.61.31-.6.33-.61.32-.61.32-.6.32-.61.33-.6.33-.6.33-.6.33-.6.33-.6.34-.6.34-.6.34-.59.34-.59.35-.59.35-.59.35-.59.36-.59.36-.58.36-.58.37-.58.37-.58.37-.58.26-.38.26-.38.27-.38.28-.37.28-.38.29-.37.29-.38.3-.37.3-.36.31-.36.31-.36.32-.35.33-.35.33-.34.34-.33.34-.33.35-.32.35-.32.36-.31.36-.29.38-.29.37-.28.38-.27.39-.26.4-.25.4-.24.4-.23.42-.21.41-.2.43-.19.43-.18.43-.16.44-.15.45-.13.46-.12.46-.1.46-.09.48-.07.47,0,.49,0,.35,0,.34,0h.7l.34,0,.35,0,.34,0,.33.06.34.07.33.09.33.09.33.11.32.11.31.13.32.14.3.15.31.15.29.17.29.18.29.19.28.2.27.21.26.21.26.23.25.23.24.24.23.25.22.26.22.27.2.27.2.28.19.29.17.29.17.3.15.31.14.31.14.32.12.33.1.33.1.34.18.73.16.73.13.73.11.74.09.73.06.74,0,.74,0,.74v1.49l0,.74,0,.75,0,.74-.05.75-.05.75-.07.75-.06.74-.07.75-.07.75-.07.75-.07.75-.07.74-.06.75-.06.75-.05.74,0,.75,0,.74,0,.75V132l0,.74,0,.74.07.73.09.74.11.73.13.73.16.73.18.72.22.73.24.72.15.28.16.28.17.25.19.24.2.23.2.21.22.19.22.18.24.17.24.15.25.14.26.13.27.11.27.1.27.09.29.07.28.07.3,0,.29,0,.3,0h1.21l.3,0,.31,0,.3,0,.31-.06.3-.06.3-.07.29-.08.29-.08.29-.1.29-.1.28-.11.27-.12.27-.12.26-.13.26-.14.24-.14.48-.29.47-.3.47-.31.45-.32.45-.33.43-.33.43-.35.43-.36.41-.36.41-.37.4-.38.39-.39.39-.39.38-.4.37-.41.37-.42.36-.42.35-.42.35-.43.34-.44.34-.44.34-.44.32-.45.33-.46.32-.45.31-.46.31-.47.31-.46.3-.47.3-.47.3-.47.29-.48.29-.47.29-.48.28-.47.29-.48.28-.48.27-.47.28-.48.28-.47.33-.6.32-.6.33-.61.31-.61.31-.61.3-.61.31-.62.29-.62.3-.63.29-.62.29-.63.29-.62.29-.63.29-.63.29-.62.29-.63.29-.62.29-.63.3-.62.3-.62.3-.62.31-.61.31-.62.32-.61.33-.6.33-.6.34-.6.34-.59.35-.58.37-.58.37-.58.38-.56.39-.57.41-.55.41-.55.43-.53.44-.53.45-.53.46-.51.48-.5.18-.18.18-.18.19-.18.19-.17.2-.16.2-.16.2-.16.21-.15.22-.14.22-.14.22-.13.22-.13.23-.12.23-.12.24-.1.24-.11.23-.09.25-.09.24-.08.25-.07.24-.06.25-.06.25,0,.25,0,.25,0,.26,0h1l.26,0,.25,0,.25,0,.25.06.24.06.25.08.24.09.25.1.24.11.24.12.25.14.24.16.23.16.23.16.21.18.21.18.2.19.19.2.18.2.17.21.17.21.16.23.15.22.14.24.14.23.13.24.12.25.12.25.11.25.11.26.09.26.1.27.08.26.08.27.08.27.07.27.07.28.06.27.05.28.05.28,0,.27,0,.28,0,.28,0,.28,0,.27,0,.28,0,.27,0,.27v.27l0,.27,0,.78v6.23l0,.77,0,.78,0,.78,0,.78,0,.78,0,.77,0,.78,0,.78,0,.78,0,.78,0,.77,0,.78,0,.78-.05.78,0,.77-.05.78,0,.78-.05.78,0,.78-.06.77-.05.78-.05.78-.05.78-.05.77,0,.78-.05.78-.05.78,0,.77,0,.78-.05.78,0,.78.37-.71.37-.7.37-.71.37-.71.38-.7.37-.71.37-.7.37-.71.38-.7.37-.71.37-.7.38-.7.38-.71.37-.7.38-.7.38-.7.38-.7.39-.7.38-.7.39-.7.39-.69.39-.7.39-.69.39-.7.4-.69.4-.69.4-.69.4-.68.4-.69.41-.68.41-.69.41-.68.42-.68.42-.68.42-.67.42-.68.43-.67.43-.67.44-.67.44-.66.24-.37.26-.37.26-.37.27-.36.29-.36.28-.36.3-.35.3-.35.31-.34.32-.33.33-.33.33-.32.34-.32.35-.3.35-.3.36-.29.37-.28.37-.27L401,105l.38-.25.39-.24.39-.22.4-.22.41-.2.41-.18.42-.17.42-.16.42-.14.44-.13.43-.11.44-.1.44-.08.45-.06.45,0,.46,0h.92l.46,0,.47,0,.47.07.39.09.39.11.37.12.36.14.35.16.33.17.33.19.31.2.31.22.29.23.28.24.28.25.26.27.25.27.24.29.23.3.22.3.21.32.2.32.19.33.18.34.17.34.16.35.15.36.14.36.13.36.12.37.12.37.1.38.09.38.09.37.08.38.07.38.05.38.06.38,0,.37,0,.38,0,.37v5.23l0,.56,0,.56,0,.56,0,.56,0,.56,0,.56,0,.56,0,.56,0,.56,0,.56,0,.57,0,.56,0,.56,0,.56,0,.56,0,.56,0,.56,0,.56,0,.56,0,.56,0,.56,0,.56,0,.56,0,.56,0,.56,0,.56,0,.56,0,.56,0,.56,0,.56v.56l0,.56.34-.62.33-.63.33-.62.32-.63.33-.63.33-.63.32-.63.33-.62.33-.63.32-.63.33-.63.32-.63.33-.63.32-.63.33-.63.33-.63.33-.62.33-.63.33-.63.33-.62.33-.63.34-.62.34-.62.34-.62.34-.62.34-.62.35-.62.35-.62.35-.61.36-.61.36-.61.36-.61.37-.6.37-.61.37-.6.38-.6.38-.6.38-.59.39-.59.4-.59.27-.39.28-.38.28-.39.29-.38.3-.38.3-.38.32-.37.31-.37.33-.37.33-.36.33-.36.35-.35.35-.34.35-.33.36-.33.37-.32.38-.32.38-.3.38-.3.4-.28.39-.27.41-.27.41-.25.41-.24.43-.22.42-.22.44-.2.44-.18.44-.18.45-.15.45-.14.47-.13.46-.11.47-.09.48-.07.48-.06.49,0h1l.5,0h.35l.34,0,.34,0,.33,0,.33.07.33.07.32.09.32.1.32.11.31.13.3.13.3.14.3.16.28.16.29.18.27.18.27.2.27.2.25.21.25.22.25.23.23.24.23.24.22.26.22.25.2.27.2.27.18.28.18.28.17.29.16.3.15.3.15.31.13.31.12.31.11.32.1.32.09.33.08.32.07.34.12.68.1.69.09.68.07.69.05.69,0,.69,0,.69V117l0,.69,0,.69,0,.69,0,.7-.05.69-.05.69-.06.69-.06.7-.06.69-.07.69-.06.7-.06.69-.06.69-.06.69-.05.7,0,.69,0,.69,0,.69,0,.69v2.07l0,.69,0,.68.06.69.08.69.09.68.11.68.13.69.16.68.18.68.07.26.08.25.1.25.11.23.12.23.13.22.14.21.15.2.15.19.17.18.18.17.18.17.19.15.2.15.2.14.22.13.21.12.22.11.23.1.23.1.24.08.24.08.24.07.25.06.25,0,.25,0,.26,0,.25,0h1.28l.25,0,.26,0,.25,0,.24-.05.25-.06.24-.07.24-.07.39-.13.39-.14.38-.15.38-.16.37-.17.37-.18.36-.18.35-.2.35-.2.35-.21.34-.22.34-.22.33-.24.33-.24.32-.24.32-.26.31-.25.31-.27.3-.27.31-.28.29-.28.3-.28.29-.29.28-.3.28-.29.28-.31.28-.3.27-.31.26-.31.27-.32.26-.31.26-.32.25-.32.26-.32.25-.33.24-.32.25-.33.24-.32.24-.33.23-.33.36-.53.36-.53.36-.53.35-.54.36-.54.35-.54.34-.55.34-.55.34-.54.34-.56.33-.55.33-.56.32-.56.32-.56.31-.56.31-.57.31-.57.3-.57.29-.57.29-.58.28-.58.28-.58.27-.58.26-.59.26-.59.25-.59.24-.6.24-.6.23-.6.22-.6.22-.61.2-.61.2-.61.19-.62.19-.61.17-.63.16-.62.16-.63.15-.63.14-.63-.27-.05-.27,0-.28,0-.28,0-.29,0-.29,0-.3,0-.3,0-.3,0-.3,0-.3,0-.31,0-.3,0-.31,0-.3,0-.3,0-.3-.06-.3-.06-.3-.07-.29-.08-.28-.08-.28-.09-.28-.1-.27-.1-.26-.12-.25-.12-.25-.14-.24-.14-.23-.16-.22-.17-.21-.18-.2-.19-.19-.21-.17-.22-.17-.24-.15-.25-.14-.27-.12-.28-.11-.3-.09-.32,0-.42,0-.41,0-.42v-.82l0-.41,0-.41,0-.41.05-.4.07-.41.07-.4.08-.4.1-.4.1-.4.11-.4.12-.39.13-.39.14-.39.14-.39.15-.39.16-.38L479,95l.17-.38.18-.37.18-.38.19-.37.2-.37.2-.37.2-.36.21-.36.21-.36.22-.36.22-.35.22-.35.23-.34.23-.35.23-.34.23-.33.23-.34.23-.33.14-.18.14-.19.14-.18.16-.18.15-.19.17-.17.16-.18.18-.17.18-.17.18-.16.19-.16.19-.15.19-.15.2-.14.21-.14.2-.13.21-.12.21-.11.22-.11.21-.1.22-.09.22-.08.23-.07.22-.06.23,0,.22,0,.23,0,.23,0h.46ZM572.48,173l-.89,1.4-.87,1.41-.85,1.42-.84,1.43-.82,1.44-.8,1.46-.79,1.46-.77,1.47-.74,1.48-.73,1.49-.71,1.5-.7,1.51-.67,1.52-.65,1.53L561,195l-.6,1.54-.59,1.55-.57,1.56-.54,1.57-.52,1.57-.5,1.59-.47,1.58-.45,1.6-.43,1.6-.4,1.61-.14.69-.13.7-.14.7-.14.7-.13.71-.12.71-.12.71-.11.72-.1.72-.09.72-.08.72-.06.72-.05.72,0,.72,0,.72v.71l0,.72,0,.71.07.71.09.7.11.7.15.7.17.69.2.68.23.68.26.67.3.67.2.36.22.33.25.32.27.28.29.27.31.24.32.22.34.19.36.17.36.15.38.12.39.1.39.08.39,0,.4,0h.4l.4,0,.4,0,.4-.07.39-.09.38-.12.38-.14.36-.16.35-.19.34-.21.32-.23.31-.26.41-.38.39-.39.37-.41.36-.42.33-.43.33-.44.31-.45.29-.46.28-.47.27-.48.25-.49.24-.5.23-.5.22-.5.21-.52.21-.51.19-.52.18-.53.18-.53.17-.52.16-.54.16-.53.15-.53.15-.53.14-.53.14-.53.14-.52.38-1.75.34-1.74.31-1.76.28-1.75.25-1.76.23-1.76.19-1.77.17-1.77.15-1.77.13-1.77.1-1.77.08-1.78.07-1.78,0-1.78,0-1.78,0-1.78v-3.56l0-1.78,0-1.78,0-1.78,0-1.78,0-1.78,0-1.78-.05-1.77,0-1.78-.06-1.77-.92,1.38Zm-87-76-.82,1.77-.77,1.78,1.13,0h2.25l1.14,0-.26-1.75L487.87,97l-.3-1.75-.3-1.74-.93,1.7Z"/><path id="b1xRIyOOJD-2" data-name="b1xRIyOOJD" class="cls-2" d="M488.92,85.06l.22,0,.23.05.23.06.23.08.22.09.22.11.23.13.22.14.21.16.29.27.28.28.26.29.25.3.24.3.22.32.21.31.2.33.18.33.18.34.16.34.16.35.14.35.14.35.12.37.12.36.11.37.11.37.09.38.09.38.09.38.08.38.07.38.07.39.07.39.06.38.06.39,0,.39.05.39.06.39.05.39.05.38.05.39,0,.39.05.38.05.38.05.38.06.37.05.37.06.37.37,0h6l.38,0,.38,0,.38,0,.37,0,.38,0,.37,0,.37,0,.37,0,.37.07.36.07.36.08.36.09.36.1.35.11.35.13.34.13.34.15.34.15.33.17.33.19.32.2.32.21.31.23.28.25.26.25.24.27.22.27.22.28.19.29.19.29.17.3.15.31.14.31.14.32.11.32.11.33.1.33.08.34.08.34.07.34,0,.35,0,.35,0,.36,0,.35,0,.36,0,.36v1.8l0,.36,0,.36,0,.36,0,.36,0,.36,0,.35,0,.35,0,.35,0,.35,0,.34,0,.34,0,.33,0,.53-.06.54-.06.53-.06.54-.07.53-.08.54-.07.54-.08.54-.09.54-.08.55-.08.54-.09.54-.08.55-.08.54-.08.55-.07.54-.07.55-.07.54-.06.54-.05.55-.05.54,0,.55,0,.54,0,.54,0,.54v1.08l0,.54,0,.53,0,.53.06.54.08.53.09.53.11.52.12.53.14.52.17.52.18.52.19.51.23.51.18.4.21.37.22.36.24.34.26.33.27.31.28.29.29.28.31.26.32.25.33.23.34.21.35.2.36.19.37.16.37.16.38.13.39.12.39.11.4.09.4.07.41.06.41,0,.41,0,.41,0h.41l.42,0,.41,0,.41-.05.41-.06.4-.08.41-.09.4-.11.39-.13.39-.14.38-.15.38-.17.37-.18.36-.2.35-.21.69-.43.67-.44.66-.46.64-.48.62-.49.61-.51.6-.52.58-.54.56-.54.56-.56.54-.58.53-.58.52-.6.51-.6.5-.62.48-.62.48-.63.47-.64.47-.65.45-.66.45-.66.44-.66.43-.68.43-.67.42-.68.42-.68.42-.69.41-.69.41-.69.4-.69.41-.69.4-.69.4-.69.4-.69.4-.69.41-.68.4-.69.41-.67.4-.68.41-.67.22-.37.21-.38.2-.38.19-.39.19-.39.17-.4.18-.4.16-.4.17-.41.16-.41.15-.41.15-.41.16-.41.15-.42.14-.41.15-.42.15-.41.15-.42.16-.41.15-.41.16-.41.16-.4.17-.41.17-.4.17-.39.19-.4.18-.39.2-.38.21-.38.21-.37.22-.37.24-.36.24-.35.26-.35.27-.34.28-.33.29-.32.31-.31L554,101l.34-.29.23-.1.24-.07.24-.06.23,0,.24,0h.47l.23,0,.22,0,.22,0,.22.07.22.08.2.1.21.11.19.12.19.13.18.14.17.15.17.16.15.16.15.18.13.18.13.19.11.2.1.2.09.21.07.21.06.22,0,.21,0,.23v.67l0,.23,0,.23-.07.22-.08.23-.11.22-.13.22-.15.22-.34.71-.33.71-.33.72-.33.73-.32.73-.32.73-.31.74-.3.75-.29.75-.29.75-.28.75-.26.76-.26.77-.25.76-.24.77-.22.77-.22.78-.2.78-.19.78-.17.78-.16.78-.15.79-.13.78-.12.79-.1.79-.08.79-.07.79,0,.8,0,.79v1.58l0,.8,0,.79.07.79.09.79.12.79.13.79.16.79.18.78.21.79.13.41.16.39.17.37.2.36.21.33.24.32.25.3.27.29.29.26.3.24.31.23.33.21.33.19.35.18.36.15.37.14.37.12.38.1.39.08.39.06.4.05.4,0h.8l.4,0,.4,0,.39-.06.4-.08.39-.1.38-.12.38-.13.37-.16.36-.17.35-.19.34-.2.33-.23.32-.24.31-.26.29-.28.28-.3.57-.62.55-.64.52-.65.51-.66.48-.68.46-.68.44-.7.43-.71.4-.71.39-.73.37-.73.35-.74.34-.75.33-.76.31-.76.3-.77.29-.78.27-.78.27-.79.26-.79.24-.8.24-.8.24-.8.22-.8.22-.81.22-.81L576,119l.21-.81.21-.81.2-.81.21-.81.2-.81.21-.81.2-.8.21-.81.21-.8.22-.79.22-.8.23-.78.23-.79.1-.26L579,108l.14-.23.15-.2.16-.19.18-.17.19-.15.2-.13.21-.11.22-.1.23-.08.24-.06.24,0,.25,0h.5l.25,0,.25,0,.25.05.25.06.24.08.24.09.23.11.23.11.22.13.21.15.19.15.19.17.17.18.16.19.14.2.12.21.11.22.09.23.07.24,0,.25,0,.26v.27l0,.28,0,.28-.09,1-.09,1-.09,1-.1,1-.09,1-.09,1-.1,1-.09,1-.1,1-.09,1-.1,1-.1,1-.09,1-.1,1-.09,1-.1,1-.09,1-.09,1-.09,1-.1,1-.08,1-.09,1-.09,1-.09,1-.08,1-.08,1-.08,1-.08,1-.07,1-.08,1-.07,1-.07,1-.06,1-.07,1-.06,1-.05,1-.06,1,0,1-.05,1,0,1,.55-.54.55-.54.55-.55.55-.54.55-.55.55-.55.55-.55.55-.55.55-.55.54-.55.54-.55.55-.56.54-.56.54-.56.53-.56.54-.56.53-.57.52-.56.53-.57.52-.58.52-.57.52-.58.51-.58.51-.59.5-.59.5-.59.5-.59.49-.6.49-.6.48-.61.48-.61.47-.61.47-.62.46-.62.46-.63.45-.63.44-.63.44-.64.43-.65.43-.65.16-.25.15-.25.16-.25.15-.26.15-.25.15-.25.15-.26.15-.26.15-.26.14-.25.15-.26.14-.26.15-.26.14-.26.14-.26.15-.26.14-.26.15-.26.14-.26.15-.26.14-.25.15-.26.15-.26.15-.25.15-.26.15-.25.15-.26.16-.25.15-.25.16-.25.16-.25.17-.24.16-.25.17-.24.17-.24.18-.24.18-.24.18-.23.18-.23.19-.23.13,0,.14,0,.14,0h.8l.14,0h.13l.13,0,.13,0,.14,0,.13,0,.13,0,.13,0,.14,0,.13,0,.13,0,.13,0,.13,0,.13,0,.13,0,.13,0,.14,0,.13,0,.13,0,.13,0,.13,0,.13,0,.13,0,.13,0,.14,0,.13,0,.13,0,.13,0,.13,0,.14,0,.13,0v4l-.56,1.17L613,123l-.6,1.14-.63,1.13-.65,1.11-.66,1.1-.69,1.09-.7,1.08-.72,1.06-.74,1.05-.75,1-.76,1-.78,1-.79,1-.81,1-.81,1-.83,1-.83,1-.85,1-.85,1-.87,1-.86,1-.88.94-.88,1-.89.94-.89.94-.89.93-.89.93-.9.93-.9.93-.9.93-.89.93-.9.93-.9.92-.89.93-.88.94-.89.93-.88.94-.87.94-.87.94,0,1,0,1,0,1v5.09l0,1,0,1,0,1,0,1,0,1,0,1,0,1,0,1,0,1,0,1,0,1,0,1,0,1,0,1,0,1,0,1,0,1v7.13l0,1,0,1,0,1,0,1-.06,1-.06,1-.07,1-.08,1-.08.86-.08.86-.08.86-.08.87-.08.87-.09.87-.08.87-.1.88-.09.87-.1.87-.11.88-.11.88-.12.87-.13.87-.13.87-.15.87-.15.87-.16.87-.17.86-.19.86-.19.85-.21.86-.22.84-.23.84-.25.84-.26.83-.28.83-.29.82-.31.81L577,227l-.34.79-.36.79-.38.79-.4.77-.42.76-.44.76-.46.74-.48.74-.51.72-.52.72-.42.55-.44.53-.46.49-.5.47-.51.44-.54.41-.56.38-.58.35-.59.33-.61.29-.62.27-.64.23-.65.21-.66.17-.66.15-.67.12-.68.09-.67.05-.68,0h-.68l-.68,0-.68-.06-.67-.1-.66-.12-.66-.15-.64-.19-.64-.21-.62-.25-.61-.27-.59-.31-.57-.34-.56-.37-.53-.4-.51-.43-.49-.46-.47-.5-.43-.52-.41-.56-.38-.59-.34-.62-.32-.65-.3-.66-.27-.67-.25-.66-.23-.68-.2-.68-.19-.68-.16-.69-.15-.69-.12-.69-.11-.7-.09-.7-.07-.7-.06-.71,0-.71,0-.71v-1.42l0-.71,0-.72,0-.72.05-.71.07-.72.08-.72.08-.71.1-.72.1-.71.12-.71.12-.71.13-.71.13-.71.14-.71.14-.7.15-.7.16-.7.16-.69.15-.69.17-.69.16-.68.17-.68.34-1.17.35-1.16.36-1.17.37-1.16.38-1.16.39-1.15.4-1.15.42-1.15.42-1.14.43-1.14.45-1.14.45-1.13.46-1.13.48-1.12.48-1.12.5-1.12.5-1.11.52-1.1.52-1.11.54-1.09.55-1.09.55-1.09.57-1.08.57-1.07.59-1.07.6-1.07.6-1.06.62-1.05.63-1,.63-1,.65-1,.65-1,.67-1,.68-1,.68-1,.7-1,.71-1,.71-1,.73-1,.73-1,.43-.46.39-.47.36-.48.33-.49.3-.5.28-.52.25-.52.22-.53.2-.53.18-.55.16-.55.14-.56.12-.56.1-.57.09-.58.07-.58.06-.58,0-.59,0-.59,0-.6,0-.6v-6l0-.6,0-.6,0-.59,0-.59,0-.59.07-.58.07-.58.1-.57.1-.56-.29.42-.3.42-.31.41-.32.41-.32.41-.34.41-.34.4-.35.39-.36.39-.36.38-.37.37-.38.36-.39.36-.4.35-.4.33-.41.33-.42.31-.42.31-.43.29-.43.28-.45.26-.45.25-.45.24-.46.22-.47.21-.48.18-.48.18-.48.15-.49.14-.5.12-.5.1-.51.07-.51.06-.52,0-.52,0h-.53l-.53,0-.54,0-.54-.08-.54-.1-.6-.07-.59-.09-.57-.12-.56-.14-.54-.17-.53-.19-.52-.21-.5-.24-.49-.26-.48-.28-.46-.3-.45-.31-.44-.34-.42-.36-.4-.37-.4-.38-.38-.41-.37-.41-.35-.43-.34-.45-.32-.46-.31-.46-.3-.48-.29-.49-.27-.5-.25-.51-.25-.52-.23-.52-.21-.53-.2-.53-.19-.54-.17-.55-.16-.55-.15-.55-.13-.55-.12-.55-.11-.56L545,134l-.07-.55-.07-.55-.36.51-.36.52-.37.51-.38.51-.38.52-.38.51-.39.5-.39.51-.39.51-.41.5-.4.49-.42.49-.41.49-.43.49-.43.47-.43.47-.44.47-.45.46-.46.45-.46.44-.46.44-.48.42-.48.42-.48.41-.5.4-.5.38-.51.38-.52.37-.52.35-.53.34-.54.33-.55.32-.56.3-.56.29-.58.28-.58.26-.59.24-.6.23-.61.21-.62.2-.55.16-.56.14-.57.12-.57.1-.57.08-.58.06-.57,0-.58,0h-1.16l-.57,0-.58-.05-.57-.08-.57-.09-.56-.11-.57-.13-.55-.15-.55-.16-.55-.19-.54-.2-.53-.22-.52-.23-.52-.25-.5-.27-.5-.29-.49-.31-.47-.32-.46-.33-.45-.36-.44-.37-.42-.38L509,145l-.39-.42-.38-.44-.36-.45-.35-.46-.32-.48-.31-.49-.29-.51-.27-.53-.32-.6-.29-.6-.26-.61-.24-.61-.22-.62-.2-.62-.18-.62-.15-.63-.14-.63-.12-.63-.1-.64-.08-.64-.07-.64-.05-.64,0-.65,0-.65v-1.3l0-.65,0-.65,0-.66.05-.65.05-.66L504,126l.07-.65.07-.66.08-.66.09-.65.09-.66.09-.65.09-.65.09-.66.1-.65.1-.65.09-.64.1-.65.09-.64.09-.65.08-.63.08-.64v-.92l0-.19,0-.19v-.19l0-.19,0-.19v-.19l0-.2v-.19l0-.19v-1.73l0-.19,0-.19,0-.19,0-.18,0-.18,0-.18-.05-.18-.06-.18-.06-.17-.07-.18-.07-.17-.09-.16-.09-.17-.1-.16-.11-.16-.12-.15-.12-.16-.24,0-.23,0-.24,0-.24,0-.23,0-.24,0-.23,0-.24,0-.24,0-.24,0-.23,0-.24,0h-.24l-.24,0H501l-.24,0H495l-.1.49-.1.48-.1.48-.1.49-.11.48-.11.48-.11.48-.12.48-.12.48-.12.48-.12.48-.13.47-.13.48-.14.47-.14.48-.14.47-.14.47-.15.47-.15.47-.16.47-.16.47-.16.46-.17.46-.17.47-.18.46-.18.45-.18.46-.19.46-.2.45-.2.45-.2.45-.21.44-.22.45-.22.44-.22.44-.23.44-.24.44-.24.43-.24.43-.25.43-.36.61-.36.62-.37.61-.37.62-.37.61-.37.61-.38.62-.39.61-.38.61-.4.6-.39.61-.41.6-.4.59-.42.6-.42.59-.42.58-.43.58-.44.57-.44.57-.46.56-.45.56-.47.55-.47.54-.48.53-.49.53-.5.51-.5.51-.51.5-.53.49-.53.48-.54.47-.55.46-.56.44-.56.44-.58.42-.59.42-.6.39-.61.39-.62.37-.63.36-.49.26-.5.25-.51.22-.52.21-.52.2-.54.17-.55.16-.55.13-.55.12-.56.1-.57.09-.56.06-.57.05-.57,0H461l-.57,0-.56,0-.56-.07-.56-.09-.55-.11-.54-.13-.54-.16-.53-.17-.52-.19-.51-.22-.5-.24-.49-.25-.47-.28-.46-.3-.45-.32-.43-.35-.41-.36L452,146l-.38-.41-.36-.44-.34-.45-.31-.48-.3-.5-.27-.53-.29-.65-.27-.65-.24-.65-.22-.66-.19-.66-.18-.67-.16-.66-.14-.68-.12-.67-.11-.67-.08-.68-.08-.68-.06-.69,0-.68,0-.69,0-.68v-2.08l0-.69,0-.69,0-.7,0-.69.05-.7.05-.69,0-.7.06-.69.05-.7.06-.69.06-.7.06-.69.05-.69.06-.69.05-.7,0-.68,0-.69,0-.69,0-.68,0-.69v-1.81l0-.17v-.18l0-.17V114l0-.18,0-.18,0-.17,0-.18,0-.17,0-.17,0-.18,0-.16-.05-.17-.05-.17-.05-.16-.06-.16-.06-.15-.07-.15-.08-.15-.08-.14-.08-.14-.09-.13-.1-.12-.11-.12-.11-.12-.12-.1-.12-.1-.14-.1-.14-.08-.15-.08-.16-.07-.16-.06-.18,0-.27,0h-.8l-.26,0-.25,0-.25,0-.25.06-.25.08-.24.08-.23.09-.24.1-.22.11-.23.11-.22.13-.22.13-.22.14-.21.15-.21.15-.21.16-.2.17-.2.17-.2.17-.2.18-.19.18-.19.19-.19.19-.18.19-.18.2-.18.19-.18.2-.17.2-.18.2-.17.2-.17.2-.16.2-.16.19-.17.2-.16.19-.15.2-.53.71-.51.72-.51.73-.5.73-.48.73-.49.74-.47.75-.47.75-.46.75-.45.76-.45.76-.44.76-.44.77-.43.77-.43.77-.42.78-.42.78-.42.78-.41.78-.41.78-.41.79-.41.78-.41.79-.4.78-.41.79-.4.79-.41.79-.4.78-.41.79-.41.78-.41.79-.41.78-.41.78-.42.78-.42.78-.42.78-.43.77-.43.77-.43.77-.44.77-.11.16-.1.17-.11.17-.11.17-.11.17-.11.17-.12.17-.12.17-.11.17-.13.17-.12.17-.12.17-.13.16-.13.17-.14.16-.13.15-.14.16-.14.15-.15.14-.14.15-.16.13-.15.14-.15.13-.16.12-.17.11-.16.11-.17.11-.18.09-.17.09-.18.09-.19.07-.18.07-.19.06-.2,0-.2,0-.2,0-.21,0h-1.09l-.21,0-.22,0-.2,0-.21,0-.19-.05-.2-.07-.19-.08-.18-.08-.18-.1-.18-.1-.17-.11-.16-.12-.16-.12-.15-.14-.15-.13-.14-.15-.14-.15-.13-.16-.13-.16-.12-.17-.11-.17-.11-.18-.1-.18-.09-.18-.09-.19-.08-.2-.08-.19-.07-.2-.06-.2-.05-.2,0-.2,0-.21,0-.21,0-.2,0-.21v-.62l0-.74,0-.74v-4.44l0-.74,0-.74,0-.74,0-.74,0-.73,0-.74,0-.74,0-.74,0-.74,0-.74.05-.74,0-.74,0-.74,0-.74.05-.74,0-.73.05-.74,0-.74,0-.74,0-.74,0-.74,0-.74,0-.74,0-.74,0-.74,0-.74,0-.74,0-.74,0-.74v-4l0-.15,0-.15v-.15l0-.15,0-.14,0-.15,0-.15,0-.15,0-.14,0-.15,0-.14,0-.15,0-.14-.05-.14-.05-.14-.05-.14-.05-.14-.06-.14-.06-.14-.06-.13-.07-.14-.07-.13-.08-.13-.07-.13-.09-.13-.08-.12-.09-.13-.1-.12-.25,0-.26,0-.25,0h-.49l-.24,0-.24,0-.23,0-.23,0-.22.06-.22.08-.22.08-.21.09-.21.1-.21.11-.2.12-.2.13-.2.13-.19.14-.19.15-.19.15-.18.16-.18.17-.18.16-.18.18-.17.17-.17.18-.16.19-.17.18-.16.19-.16.19-.15.19-.15.19-.16.19-.14.2-.15.19-.14.19-.14.19-.14.18-.14.19-.45.67-.45.67-.45.68-.44.68-.44.68-.43.68-.43.68-.43.69-.42.69-.42.69-.42.69-.41.7-.41.69-.41.7-.4.7-.4.7-.4.71-.4.7-.4.71-.39.7-.39.71-.39.71-.38.71-.39.71-.38.72-.38.71-.38.72-.38.71-.38.72-.38.71-.37.72-.38.72-.37.71-.38.72-.37.72-.37.72-.38.71-.37.72-.37.72-.38.72-.12.23-.13.24-.14.24-.14.23-.14.24-.14.24-.15.23-.15.24-.16.23-.16.24-.16.23-.17.22-.17.23-.18.22-.18.22-.18.21-.19.21-.19.2-.2.2-.2.19-.2.18-.21.18-.21.18-.22.16-.22.16-.23.15-.23.14-.24.13-.24.12-.24.11-.25.1-.26.1-.26.08-.26.07-.27,0-.28.05-.28,0-.28,0h-1.25l-.22,0-.21,0-.2,0-.21-.05-.2-.07-.19-.07-.19-.08-.19-.09-.18-.1-.18-.1-.17-.12-.17-.12-.16-.13-.15-.13-.16-.14-.14-.15-.14-.15-.13-.16-.13-.16-.12-.17-.12-.18-.11-.18-.1-.18-.09-.19-.09-.19-.08-.19-.08-.2-.06-.2-.06-.2-.05-.2-.05-.21,0-.21,0-.21,0-.21v-.64l0-1v-3.94l0-1,0-1,0-1,0-1,.05-1,.05-1,.06-1,0-1,.06-1,.06-1,.07-1,.06-1,.06-1,.06-1,.06-1,.06-1,.05-1,.05-1,.05-1,0-1,0-1,0-1,0-1v-3.94l0-1,0-1-.05-1-.06-1-.08-1-.08-1-.1-1-.12-1-.38.43-.37.44-.36.44-.35.45-.35.46-.33.46-.33.46-.31.47-.31.47-.31.48-.3.48-.29.49-.28.49-.28.49-.28.5-.26.49-.27.51-.26.5-.26.51-.25.5-.25.51-.25.52-.24.51-.24.51-.24.52-.24.51-.24.52-.24.52-.24.52-.23.51-.24.52-.24.52-.24.51-.24.51-.24.52-.25.51-.25.51-.25.51-.25.5-.26.51-.35.64-.35.65-.36.65-.37.64-.37.65-.37.64-.37.64-.38.64-.39.64-.39.64-.4.63-.4.63-.41.63-.41.62-.42.62-.42.62-.44.6-.44.61-.44.6-.45.59-.46.59-.47.58-.47.57-.49.56-.49.56-.5.55-.5.54-.52.53-.52.53-.54.51-.54.51-.55.49-.56.49-.57.47-.59.46-.59.45-.6.44-.61.43-.62.41-.64.4-.47.29-.49.27-.5.26-.51.24-.52.22-.53.21-.54.18-.54.17-.55.16-.56.13-.56.12-.57.1-.57.08-.57.06-.58.05-.57,0h-.58l-.57,0-.57,0-.57-.06-.56-.07-.56-.1-.55-.12-.55-.13-.53-.16-.53-.18-.52-.2-.51-.23-.5-.24-.49-.27-.47-.29-.46-.31-.44-.34-.43-.36-.41-.38-.4-.41-.38-.43-.35-.45-.34-.48-.31-.51-.33-.62-.3-.63-.27-.64-.25-.64-.23-.65-.21-.65-.18-.65-.17-.66-.15-.66-.13-.67-.11-.66-.09-.67-.08-.68-.07-.68-.05-.68,0-.68,0-.68v-2.06l0-.69,0-.69,0-.69,0-.7,0-.69,0-.69.05-.69.06-.7.06-.69.06-.69.05-.69.06-.69.06-.69.06-.68,0-.69.05-.68.05-.68,0-.68,0-.67,0-.68v-2.52l0-.2,0-.2,0-.2,0-.2,0-.19,0-.2,0-.19-.05-.19-.05-.19-.05-.18-.06-.19-.07-.17-.08-.18-.08-.17-.08-.16-.1-.17-.1-.15-.11-.15-.12-.15-.12-.14-.14-.13-.14-.13-.15-.12-.16-.11-.17-.11-.18-.09-.19-.09-.28,0h-.54l-.27,0-.26,0-.26,0-.25.06-.25.06-.25.08-.24.08-.24.1-.23.1-.24.11-.23.12-.22.13-.22.13-.22.14-.22.15-.21.15-.21.16-.2.17L313,112l-.2.17-.19.18-.2.18-.19.19-.19.19-.18.19-.19.2-.18.2-.18.19-.17.2-.18.21-.17.2-.17.2-.16.2-.17.2-.16.2-.16.2-.16.2-.53.71-.51.72-.51.73-.49.73-.49.74-.48.74-.48.75-.46.75-.46.75-.46.76-.44.76-.45.77-.43.76-.44.77-.42.78-.43.77-.42.78-.42.78-.41.78-.41.79-.41.78-.41.79-.4.79-.41.78-.41.79-.4.79-.4.78-.41.79-.41.79-.4.78-.41.79-.41.78-.42.78-.41.78-.42.78-.43.77-.42.78-.43.77-.44.77-.44.76-.1.16-.11.17-.1.16-.11.17-.11.17-.11.16-.11.17-.12.17-.11.16-.12.17-.12.16-.13.17-.12.16-.13.16-.13.15-.14.16-.13.15-.14.15-.14.14-.15.14-.14.14-.15.13-.16.12-.15.12-.16.12-.17.11-.16.1-.17.1-.18.09-.17.08-.18.08-.19.07-.18.06-.19.05-.2,0-.2,0-.2,0-.21,0h-.87l-.22,0-.22,0-.21,0-.21,0-.2-.06-.2-.06-.19-.08-.19-.08-.18-.1-.18-.1-.17-.11-.17-.12-.16-.13-.16-.13-.15-.14-.15-.15-.14-.15-.13-.16-.13-.16-.12-.17-.12-.18-.11-.18-.1-.18-.1-.19-.09-.19-.09-.19-.07-.2-.07-.2-.07-.21-.05-.2-.05-.21,0-.21,0-.21,0-.21,0-.21,0-.21v-.42l0-.77,0-.77v-4.62l0-.77,0-.77,0-.77,0-.77,0-.77,0-.77,0-.77,0-.77,0-.77.05-.77,0-.77.05-.77.05-.77,0-.77.05-.77,0-.77.05-.77,0-.77,0-.77,0-.77,0-.77,0-.77,0-.77,0-.77,0-.77,0-.77v-5.08l0-.15,0-.15,0-.15,0-.15,0-.15,0-.14,0-.14-.05-.14-.05-.15-.05-.14-.05-.13-.06-.14-.06-.14-.06-.14-.07-.13-.07-.14-.07-.13-.07-.13-.07-.14-.07-.13-.08-.13-.08-.13-.07-.13-.08-.13-.08-.13-.08-.13-.08-.13-.07-.13-.08-.13-.08-.13-.08-.13-.07-.13-.08-.14-.07-.13-.07-.13-.07-.13-.07-.13-.2.13-.21.14-.21.13-.21.13-.21.14-.21.14-.21.14-.2.14-.21.14-.2.14-.21.14-.2.15-.2.15-.2.15-.2.15-.2.15-.19.15-.2.16-.19.16-.19.16-.19.16-.18.16-.19.17-.18.17-.18.17-.18.17-.17.18-.17.18-.17.18-.17.18-.16.19-.17.19-.15.19-.16.19-.15.2-.15.2-.14.21-.14.2-.14.22-.13.21-.42.64-.41.63-.41.64-.41.65-.4.64-.4.65-.4.64-.4.65-.39.65-.39.65-.39.65-.39.66-.38.65-.39.66-.38.66-.37.66-.38.66-.37.66-.38.67-.37.66-.37.66-.36.67-.37.67-.36.67-.36.66-.36.67-.36.68L262,134l-.35.67-.36.67L261,136l-.36.68-.35.67-.35.68-.35.67-.34.68-.35.68-.35.67-.34.68-.35.68-.13.23-.13.23-.13.24-.13.24-.13.23-.14.24-.14.24-.14.24-.14.23-.14.24-.15.24-.15.23-.16.23-.15.23-.16.23-.16.22-.17.22-.17.22-.17.21-.18.21-.18.21-.19.2-.19.19-.19.19-.2.18-.2.18-.21.17-.21.16-.22.16-.22.15-.23.14-.23.13-.24.12-.25.11-.25.11-.26.09-.26.09-.27.07-.28.07-.28.05-.21,0-.22,0-.22,0H249l-.21,0-.21,0-.22,0-.21,0-.21,0-.2-.06-.21-.07-.2-.07-.19-.08-.2-.08-.19-.1-.18-.1-.19-.11-.17-.11-.18-.13-.16-.13-.16-.13-.16-.14-.15-.15-.14-.15-.13-.16-.13-.17-.12-.17-.11-.18-.11-.18-.1-.19-.08-.19-.08-.2-.07-.2-.06-.21,0-.21,0-.21,0-.22,0-.23,0-1,0-1,0-1v-3l0-1,0-1,0-1,0-1,.05-1,.05-1,0-1,.06-1,.06-1,.07-1,.06-1,.07-1,.06-1,.06-1,.06-1,.06-1,.06-1,.05-1,0-1,0-1,0-1,0-1,0-1v-3l0-1,0-1,0-1-.06-1-.07-1-.09-1-.11-1-.12-1-.22.26-.22.27-.22.27-.22.27-.22.27-.21.28-.22.27-.21.28-.21.27-.21.28-.2.28L242,108l-.2.28-.2.29-.2.28-.19.29-.19.29-.19.29-.19.3-.19.29-.18.3-.18.3-.17.3-.18.3-.17.3-.17.3-.16.31-.16.31-.16.31-.15.31-.15.31-.15.32-.14.32-.14.31-.14.33-.13.32-.13.32-.12.33-.12.33-.12.33-.26.78-.26.79-.28.78-.28.78-.29.78-.3.77-.31.77-.32.77-.33.77-.34.76-.34.76-.36.75-.36.75-.38.74-.38.74-.39.74-.4.73-.41.72L231,131l-.43.71-.44.71-.45.7-.45.7-.47.68-.48.69-.48.67-.5.67-.5.66-.51.65-.53.64-.53.64-.55.62-.55.62-.56.61-.58.6-.58.59-.59.59-.6.57-.62.56-.62.55-.39.35-.41.33-.41.33-.42.31-.43.31-.44.29-.44.28-.45.28-.46.26-.46.25-.47.24-.48.23-.48.21-.48.2-.5.19-.49.18-.5.17-.5.15-.51.13-.51.13-.51.11-.51.09-.52.08-.51.07-.52,0-.52,0-.52,0h-1l-.52,0-.51-.05-.52-.06-.52-.08-.51-.1-.51-.12-.51-.13-.51-.16-.5-.17-.5-.19-.49-.21-.34-.15-.33-.15-.32-.17-.32-.18-.31-.19-.29-.19-.3-.21-.28-.21-.28-.22-.27-.23-.26-.23L197,146l-.25-.25-.24-.25-.24-.27-.23-.26-.22-.28-.23-.28-.21-.28-.21-.29-.21-.29-.2-.3-.19-.3-.19-.31-.19-.3L194,142l-.18-.32-.18-.31-.17-.32-.17-.32-.17-.32-.16-.32-.16-.32-.16-.33-.16-.32-.15-.32-.15-.32-.15-.32-.15-.32-.15-.32-.23.3-.23.3-.23.3-.23.31-.23.3-.24.3-.23.3-.24.29-.24.3-.24.3-.25.29-.24.29-.25.29-.25.29-.26.28-.25.29-.26.28-.26.27-.27.28-.27.26-.27.27-.27.26-.28.26-.28.25-.29.25-.28.25-.3.24-.29.23-.3.23-.31.23-.31.22-.31.21-.32.21-.32.2-.33.19L182,147l-.33.18-.34.18-.35.16-.35.16-.45.21-.47.18-.46.17-.47.16-.48.13-.48.12-.48.11-.49.08-.49.07-.49.06-.49,0-.49,0h-1l-.5,0-.49,0-.49-.06-.49-.07-.49-.09-.48-.1-.48-.12-.48-.14-.47-.15-.46-.16-.47-.18-.45-.19-.45-.21-.44-.22-.43-.24-.43-.25-.41-.26-.41-.28-.4-.29-.38-.31-.38-.32-.36-.34-.36-.34-.34-.37-.33-.37-.31-.39-.35-.44-.32-.45-.31-.46-.29-.46-.28-.47-.26-.48-.24-.48-.23-.49-.21-.5-.19-.5-.19-.51-.17-.51-.15-.52-.14-.52-.13-.53-.12-.53-.1-.53-.09-.54-.09-.54-.07-.54-.06-.54-.05-.55,0-.55,0-.55,0-.55,0-.55V128.6l0-.55,0-.55,0-.55,0-.55,0-.54.05-.55,0-.54.05-.54.06-.53.05-.54.06-.53.1-.58.1-.58.1-.58.1-.58.11-.58.12-.58.12-.58.13-.58.13-.58.13-.58.14-.58.15-.58.16-.57.16-.58.16-.57.18-.57.18-.57.19-.56.19-.57.2-.55.21-.56.22-.55.23-.55.23-.54.25-.54.25-.54.26-.53.27-.52.28-.52.29-.52.3-.51.31-.5.31-.49.33-.49.34-.49.35-.47.37-.47.37-.46.38-.46.4-.44.24-.15.24-.13.24-.11.25-.08.24-.06.25,0,.25,0H170l.24,0,.24,0,.24.06.23.09.22.09.22.12.21.12.21.14.19.15.19.16.18.17.16.18.16.19.14.2.14.2.11.21.11.22.09.23.07.23.06.23,0,.24,0,.24v.48l0,.24,0,.24-.08.24-.1.24-.12.24-.14.23-.17.23-.37.69-.37.7-.36.7-.36.71-.35.72-.34.72-.33.72-.33.73-.32.74-.31.74-.3.74-.28.75-.28.76-.27.75L168,117l-.24.77-.23.77-.21.77-.2.77-.19.77-.17.78-.15.78-.14.78-.12.79-.11.78-.08.79-.07.78-.05.79,0,.79v1.58l0,.78.06.79.08.79.1.79.13.78.15.79.17.78.2.78.23.78.18.46.2.44.22.41.24.39.27.36.28.34.3.32.32.29.33.27.35.25.36.23.37.21.39.18.39.16.41.14.41.12.43.1.42.08.44.05.43,0,.45,0h.44l.44,0,.45,0,.44-.07.44-.08.44-.1.44-.11.43-.14.42-.15.42-.18.41-.19.4-.2.39-.23.38-.24.36-.26.36-.28.34-.29.32-.31.31-.32.68-.63.63-.65.6-.67.55-.69.52-.7.48-.72.44-.73.42-.75.38-.76.35-.78.32-.79.29-.8.27-.81.24-.82.23-.83.2-.84.18-.85.16-.85.14-.86.13-.87.12-.87.1-.88.09-.88.09-.88.07-.89.07-.88.07-.89.06-.89.06-.89L190,114l.06-.89.07-.88.06-.87.08-.87.08-.87.09-.86.1-.86.12-.85.12-.84.15-.83,0-.29.06-.28.08-.26.1-.24.12-.24.14-.21.15-.21.17-.18.19-.18.19-.15.21-.15.22-.12.23-.12.23-.09.24-.09.25-.06.25,0,.26,0,.26,0h.51l.26,0,.25,0,.25.06.24.07.24.08.23.1.22.12.21.13.2.14.19.16.17.18.16.19.14.21.13.23.1.23.09.26.07.27,0,.28,0,.31,0,.79v1.59l0,.8,0,.81,0,.8,0,.81-.06.8-.06.81-.07.81-.07.81-.07.81-.07.82-.08.81-.07.81-.06.81-.07.81-.06.82,0,.81,0,.8,0,.81,0,.81v1.61l0,.8,0,.8,0,.8.07.79.08.79.11.79.12.79.15.78.18.78.19.77.23.77.25.77.29.76.31.76.34.75.38.74.15.34.17.32.18.31.19.3.2.29.22.28.23.26.23.26.25.25.26.23.26.23.28.21.28.2.29.19.3.17.3.17.31.15.32.14.32.13.33.11.33.11.33.09.34.07.34.06.35.05.34,0,.35,0h.69l.35,0,.35,0,.34,0,.35-.06.34-.08.34-.09.34-.11.33-.12.33-.14.33-.15.32-.16.51-.28.51-.28.5-.3.48-.31.48-.32.47-.33.46-.35.45-.35.44-.36.43-.38.43-.38.41-.39.41-.4.4-.41.4-.42.38-.43.38-.43.37-.44.37-.44.36-.46.35-.45.35-.47.34-.46.33-.48.33-.48.32-.48.32-.48.32-.49.31-.49.3-.5.3-.49.29-.5.3-.5.28-.5.29-.5.28-.5.27-.5.28-.5.27-.51.27-.49.24-.63.25-.62.24-.62.24-.63.25-.63.24-.62.24-.63.24-.63.25-.63.24-.63.25-.63.25-.63.25-.62.26-.63.26-.62.26-.62.27-.62.27-.62.28-.61.28-.61.29-.61.29-.6.31-.61.3-.59.32-.59.32-.59.33-.58.34-.58.35-.57.36-.56.37-.56.37-.56.39-.54.4-.54.41-.53.42-.53.44-.51.44-.51.46-.5.47-.49.18-.19.19-.18.19-.17.19-.17.2-.17.21-.16.2-.16.22-.15.21-.14.23-.14.22-.14.23-.13.23-.12.23-.11.24-.11.24-.1.24-.1.25-.08.24-.08.25-.07.25-.07.25,0,.25,0,.26,0,.25,0,.26,0h.76l.25,0,.26,0,.25,0,.25,0,.25.06.25.07.25.08.24.1.25.1.24.12.24.13.25.14.24.16.23.16.22.17.21.18.2.18.2.2.18.2.18.2.17.21.17.22.15.22.15.23.14.24.14.24.12.24.12.25.12.25.11.25.1.26.09.26.09.27.09.26.07.27.08.27.07.28.06.27.06.27,0,.28.05.28.05.27,0,.28,0,.28,0,.27,0,.28,0,.27,0,.28,0,.27v.27l0,.26,0,.78v6.21l0,.78,0,.77,0,.78,0,.77,0,.78,0,.78,0,.77,0,.78,0,.77,0,.78,0,.77,0,.78-.05.77,0,.78,0,.77-.05.78-.05.77,0,.78-.05.77,0,.78-.05.77-.05.78,0,.77-.05.78,0,.77-.05.77-.05.78,0,.77-.05.78,0,.77,0,.77.37-.7.37-.7.37-.71.37-.7.38-.71.37-.7.37-.7.37-.71.37-.7.38-.7.37-.71.38-.7.38-.7.37-.7.38-.7.38-.7.38-.7.39-.7.38-.7.38-.69.39-.7.39-.69.39-.7.4-.69.39-.69.4-.69.4-.69.4-.69.4-.68.41-.69.41-.68.41-.68.41-.68.42-.68.42-.67.42-.68.43-.67.43-.67.43-.67.44-.67.25-.37.26-.37.26-.37.28-.37.28-.36.29-.35.3-.36.3-.35.32-.34.32-.34.33-.33.33-.32.34-.31.35-.31.36-.3.36-.29.37-.28.37-.27.38-.26.39-.25.39-.24.4-.22.4-.21.41-.2.42-.19.42-.17.42-.16.43-.14.43-.13.44-.11.44-.1.45-.07.45-.06.45,0,.46,0h.93l.46,0,.48,0,.47.08.39.09.38.11.36.12.36.15.34.15.34.18.32.19.31.2.3.21.29.23.28.25.27.25.25.26.25.28.24.29.23.29.21.31.21.31.2.32.19.33.17.34.17.34.16.35.15.35.14.36.13.36.12.37.11.37.11.37.09.37.09.38.07.37.07.38.06.38.05.37,0,.38,0,.37,0,.37v4.66l0,.56v.56l0,.57,0,.56,0,.56,0,.56,0,.56,0,.56,0,.56,0,.56,0,.57,0,.56,0,.56,0,.56,0,.56,0,.56,0,.56,0,.56,0,.56,0,.57,0,.56,0,.56,0,.56,0,.56,0,.56,0,.56,0,.57,0,.56,0,.56,0,.56,0,.56v.56l0,.56.32-.6.32-.61.32-.61.32-.6.32-.61.32-.61.31-.61.32-.61.31-.61.32-.61.31-.61.32-.61.32-.6.31-.61.32-.61.32-.61.32-.61.31-.6.33-.61.32-.61.32-.6.32-.61.33-.6.33-.6.33-.6.33-.6.33-.6.34-.6.34-.6.34-.59.34-.59.35-.59.35-.59.35-.59.36-.59.36-.58.36-.58.37-.58.37-.58.37-.58.26-.38.26-.38.27-.38.28-.37.28-.38.29-.37.29-.38.3-.37.3-.36.31-.36.31-.36.32-.35.33-.35.33-.34.34-.33.34-.33.35-.32.35-.32.36-.31.36-.29.38-.29.37-.28.38-.27.39-.26.4-.25.4-.24.4-.23.42-.21.41-.2.43-.19.43-.18.43-.16.44-.15.45-.13.46-.12.46-.1.46-.09.48-.07.47,0,.49,0,.35,0,.34,0h.7l.34,0,.35,0,.34,0,.33.06.34.07.33.09.33.09.33.11.32.11.31.13.32.14.3.15.31.15.29.17.29.18.29.19.28.2.27.21.26.21.26.23.25.23.24.24.23.25.22.26.22.27.2.27.2.28.19.29.17.29.17.3.15.31.14.31.14.32.12.33.1.33.1.34.18.73.16.73.13.73.11.74.09.73.06.74,0,.74,0,.74v1.49l0,.74,0,.75,0,.74-.05.75-.05.75-.07.75-.06.74-.07.75-.07.75-.07.75-.07.75-.07.74-.06.75-.06.75-.05.74,0,.75,0,.74,0,.75V132l0,.74,0,.74.07.73.09.74.11.73.13.73.16.73.18.72.22.73.24.72.15.28.16.28.17.25.19.24.2.23.2.21.22.19.22.18.24.17.24.15.25.14.26.13.27.11.27.1.27.09.29.07.28.07.3,0,.29,0,.3,0h1.21l.3,0,.31,0,.3,0,.31-.06.3-.06.3-.07.29-.08.29-.08.29-.1.29-.1.28-.11.27-.12.27-.12.26-.13.26-.14.24-.14.48-.29.47-.3.47-.31.45-.32.45-.33.43-.33.43-.35.43-.36.41-.36.41-.37.4-.38.39-.39.39-.39.38-.4.37-.41.37-.42.36-.42.35-.42.35-.43.34-.44.34-.44.34-.44.32-.45.33-.46.32-.45.31-.46.31-.47.31-.46.3-.47.3-.47.3-.47.29-.48.29-.47.29-.48.28-.47.29-.48.28-.48.27-.47.28-.48.28-.47.33-.6.32-.6.33-.61.31-.61.31-.61.3-.61.31-.62.29-.62.3-.63.29-.62.29-.63.29-.62.29-.63.29-.63.29-.62.29-.63.29-.62.29-.63.3-.62.3-.62.3-.62.31-.61.31-.62.32-.61.33-.6.33-.6.34-.6.34-.59.35-.58.37-.58.37-.58.38-.56.39-.57.41-.55.41-.55.43-.53.44-.53.45-.53.46-.51.48-.5.18-.18.18-.18.19-.18.19-.17.2-.16.2-.16.2-.16.21-.15.22-.14.22-.14.22-.13.22-.13.23-.12.23-.12.24-.1.24-.11.23-.09.25-.09.24-.08.25-.07.24-.06.25-.06.25,0,.25,0,.25,0,.26,0h1l.26,0,.25,0,.25,0,.25.06.24.06.25.08.24.09.25.1.24.11.24.12.25.14.24.16.23.16.23.16.21.18.21.18.2.19.19.2.18.2.17.21.17.21.16.23.15.22.14.24.14.23.13.24.12.25.12.25.11.25.11.26.09.26.1.27.08.26.08.27.08.27.07.27.07.28.06.27.05.28.05.28,0,.27,0,.28,0,.28,0,.28,0,.27,0,.28,0,.27,0,.27v.27l0,.27,0,.78v6.23l0,.77,0,.78,0,.78,0,.78,0,.78,0,.77,0,.78,0,.78,0,.78,0,.78,0,.77,0,.78,0,.78-.05.78,0,.77-.05.78,0,.78-.05.78,0,.78-.06.77-.05.78-.05.78-.05.78-.05.77,0,.78-.05.78-.05.78,0,.77,0,.78-.05.78,0,.78.37-.71.37-.7.37-.71.37-.71.38-.7.37-.71.37-.7.37-.71.38-.7.37-.71.37-.7.38-.7.38-.71.37-.7.38-.7.38-.7.38-.7.39-.7.38-.7.39-.7.39-.69.39-.7.39-.69.39-.7.4-.69.4-.69.4-.69.4-.68.4-.69.41-.68.41-.69.41-.68.42-.68.42-.68.42-.67.42-.68.43-.67.43-.67.44-.67.44-.66.24-.37.26-.37.26-.37.27-.36.29-.36.28-.36.3-.35.3-.35.31-.34.32-.33.33-.33.33-.32.34-.32.35-.3.35-.3.36-.29.37-.28.37-.27L401,105l.38-.25.39-.24.39-.22.4-.22.41-.2.41-.18.42-.17.42-.16.42-.14.44-.13.43-.11.44-.1.44-.08.45-.06.45,0,.46,0h.92l.46,0,.47,0,.47.07.39.09.39.11.37.12.36.14.35.16.33.17.33.19.31.2.31.22.29.23.28.24.28.25.26.27.25.27.24.29.23.3.22.3.21.32.2.32.19.33.18.34.17.34.16.35.15.36.14.36.13.36.12.37.12.37.1.38.09.38.09.37.08.38.07.38.05.38.06.38,0,.37,0,.38,0,.37v5.23l0,.56,0,.56,0,.56,0,.56,0,.56,0,.56,0,.56,0,.56,0,.56,0,.56,0,.57,0,.56,0,.56,0,.56,0,.56,0,.56,0,.56,0,.56,0,.56,0,.56,0,.56,0,.56,0,.56,0,.56,0,.56,0,.56,0,.56,0,.56,0,.56,0,.56v.56l0,.56.34-.62.33-.63.33-.62.32-.63.33-.63.33-.63.32-.63.33-.62.33-.63.32-.63.33-.63.32-.63.33-.63.32-.63.33-.63.33-.63.33-.62.33-.63.33-.63.33-.62.33-.63.34-.62.34-.62.34-.62.34-.62.34-.62.35-.62.35-.62.35-.61.36-.61.36-.61.36-.61.37-.6.37-.61.37-.6.38-.6.38-.6.38-.59.39-.59.4-.59.27-.39.28-.38.28-.39.29-.38.3-.38.3-.38.32-.37.31-.37.33-.37.33-.36.33-.36.35-.35.35-.34.35-.33.36-.33.37-.32.38-.32.38-.3.38-.3.4-.28.39-.27.41-.27.41-.25.41-.24.43-.22.42-.22.44-.2.44-.18.44-.18.45-.15.45-.14.47-.13.46-.11.47-.09.48-.07.48-.06.49,0h1l.5,0h.35l.34,0,.34,0,.33,0,.33.07.33.07.32.09.32.1.32.11.31.13.3.13.3.14.3.16.28.16.29.18.27.18.27.2.27.2.25.21.25.22.25.23.23.24.23.24.22.26.22.25.2.27.2.27.18.28.18.28.17.29.16.3.15.3.15.31.13.31.12.31.11.32.1.32.09.33.08.32.07.34.12.68.1.69.09.68.07.69.05.69,0,.69,0,.69V117l0,.69,0,.69,0,.69,0,.7-.05.69-.05.69-.06.69-.06.7-.06.69-.07.69-.06.7-.06.69-.06.69-.06.69-.05.7,0,.69,0,.69,0,.69,0,.69v2.07l0,.69,0,.68.06.69.08.69.09.68.11.68.13.69.16.68.18.68.07.26.08.25.1.25.11.23.12.23.13.22.14.21.15.2.15.19.17.18.18.17.18.17.19.15.2.15.2.14.22.13.21.12.22.11.23.1.23.1.24.08.24.08.24.07.25.06.25,0,.25,0,.26,0,.25,0h1.28l.25,0,.26,0,.25,0,.24-.05.25-.06.24-.07.24-.07.39-.13.39-.14.38-.15.38-.16.37-.17.37-.18.36-.18.35-.2.35-.2.35-.21.34-.22.34-.22.33-.24.33-.24.32-.24.32-.26.31-.25.31-.27.3-.27.31-.28.29-.28.3-.28.29-.29.28-.3.28-.29.28-.31.28-.3.27-.31.26-.31.27-.32.26-.31.26-.32.25-.32.26-.32.25-.33.24-.32.25-.33.24-.32.24-.33.23-.33.36-.53.36-.53.36-.53.35-.54.36-.54.35-.54.34-.55.34-.55.34-.54.34-.56.33-.55.33-.56.32-.56.32-.56.31-.56.31-.57.31-.57.3-.57.29-.57.29-.58.28-.58.28-.58.27-.58.26-.59.26-.59.25-.59.24-.6.24-.6.23-.6.22-.6.22-.61.2-.61.2-.61.19-.62.19-.61.17-.63.16-.62.16-.63.15-.63.14-.63-.27-.05-.27,0-.28,0-.28,0-.29,0-.29,0-.3,0-.3,0-.3,0-.3,0-.3,0-.31,0-.3,0-.31,0-.3,0-.3,0-.3-.06-.3-.06-.3-.07-.29-.08-.28-.08-.28-.09-.28-.1-.27-.1-.26-.12-.25-.12-.25-.14-.24-.14-.23-.16-.22-.17-.21-.18-.2-.19-.19-.21-.17-.22-.17-.24-.15-.25-.14-.27-.12-.28-.11-.3-.09-.32,0-.42,0-.41,0-.42v-.82l0-.41,0-.41,0-.41.05-.4.07-.41.07-.4.08-.4.1-.4.1-.4.11-.4.12-.39.13-.39.14-.39.14-.39.15-.39.16-.38L479,95l.17-.38.18-.37.18-.38.19-.37.2-.37.2-.37.2-.36.21-.36.21-.36.22-.36.22-.35.22-.35.23-.34.23-.35.23-.34.23-.33.23-.34.23-.33.14-.18.14-.19.14-.18.16-.18.15-.19.17-.17.16-.18.18-.17.18-.17.18-.16.19-.16.19-.15.19-.15.2-.14.21-.14.2-.13.21-.12.21-.11.22-.11.21-.1.22-.09.22-.08.23-.07.22-.06.23,0,.22,0,.23,0,.23,0h.46ZM572.48,173l-.89,1.4-.87,1.41-.85,1.42-.84,1.43-.82,1.44-.8,1.46-.79,1.46-.77,1.47-.74,1.48-.73,1.49-.71,1.5-.7,1.51-.67,1.52-.65,1.53L561,195l-.6,1.54-.59,1.55-.57,1.56-.54,1.57-.52,1.57-.5,1.59-.47,1.58-.45,1.6-.43,1.6-.4,1.61-.14.69-.13.7-.14.7-.14.7-.13.71-.12.71-.12.71-.11.72-.1.72-.09.72-.08.72-.06.72-.05.72,0,.72,0,.72v.71l0,.72,0,.71.07.71.09.7.11.7.15.7.17.69.2.68.23.68.26.67.3.67.2.36.22.33.25.32.27.28.29.27.31.24.32.22.34.19.36.17.36.15.38.12.39.1.39.08.39,0,.4,0h.4l.4,0,.4,0,.4-.07.39-.09.38-.12.38-.14.36-.16.35-.19.34-.21.32-.23.31-.26.41-.38.39-.39.37-.41.36-.42.33-.43.33-.44.31-.45.29-.46.28-.47.27-.48.25-.49.24-.5.23-.5.22-.5.21-.52.21-.51.19-.52.18-.53.18-.53.17-.52.16-.54.16-.53.15-.53.15-.53.14-.53.14-.53.14-.52.38-1.75.34-1.74.31-1.76.28-1.75.25-1.76.23-1.76.19-1.77.17-1.77.15-1.77.13-1.77.1-1.77.08-1.78.07-1.78,0-1.78,0-1.78,0-1.78v-3.56l0-1.78,0-1.78,0-1.78,0-1.78,0-1.78,0-1.78-.05-1.77,0-1.78-.06-1.77-.92,1.38Zm-87-76-.82,1.77-.77,1.78,1.13,0h2.25l1.14,0-.26-1.75L487.87,97l-.3-1.75-.3-1.74-.93,1.7Z"/></g></g></svg>