<?xml version="1.0" encoding="UTF-8" standalone="no"?>
<!DOCTYPE svg PUBLIC "-//W3C//DTD SVG 1.1//EN" "http://www.w3.org/Graphics/SVG/1.1/DTD/svg11.dtd">
<svg version="1.1" xmlns="http://www.w3.org/2000/svg" xmlns:xlink="http://www.w3.org/1999/xlink" preserveAspectRatio="xMidYMid meet" viewBox="0 0 640 640" width="640" height="640"><defs><path d="M125.13 2.18C137.65 4.36 150.62 8.18 159.85 17.39C166.26 23.48 169.41 32.62 168.23 41.38C167.84 43.1 167.99 45.44 166.28 46.49C163.8 48.45 159.61 45.99 160.55 42.8C161.49 36.26 160.54 29.17 155.88 24.16C146.79 13.99 132.67 10.79 119.75 8.83C93.56 5.7 66.38 8.22 41.7 17.82C29.62 22.73 17.58 30.08 11.21 41.88C7.54 49.04 6.62 58.17 10.54 65.42C13.65 71.09 19.11 75.01 24.84 77.73C33.79 81.89 43.54 83.87 53.24 85.39C75.16 88.66 97.49 88.71 119.3 92.88C127.28 94.63 135.97 97.2 141.12 104C146.6 112.16 145.28 123.77 139.4 131.39C131.52 141.53 118.72 146.16 106.5 148.56C86.31 152.1 65.28 150.81 45.6 145.13C39.81 143.27 33.81 141.43 28.8 137.84C26.05 135.18 29.78 130.05 33.17 132.15C51.63 141.44 72.8 143.91 93.22 142.83C105.66 141.96 118.86 139.63 128.89 131.67C135.23 126.73 139.1 117.41 135.38 109.79C131.54 103.01 123.17 101.28 116.16 99.7C88.65 94.88 60.14 96.45 33.13 88.6C23.11 85.55 12.74 81.23 6.08 72.77C-0.55 64.34 -0.96 52.41 2.59 42.62C7.02 31.17 16.64 22.59 27.13 16.71C40.78 9.17 55.97 4.84 71.28 2.38C89.08 -0.31 107.33 -0.67 125.13 2.18Z" id="a8sXYuCAl"></path><path d="M487.8 83.76L488.02 83.8L488.25 83.85L488.48 83.91L488.71 83.99L488.93 84.08L489.15 84.19L489.38 84.32L489.6 84.46L489.81 84.62L490.1 84.89L490.38 85.17L490.64 85.46L490.89 85.76L491.13 86.06L491.35 86.38L491.56 86.69L491.76 87.02L491.94 87.35L492.12 87.69L492.28 88.03L492.44 88.38L492.58 88.73L492.72 89.08L492.84 89.45L492.96 89.81L493.07 90.18L493.18 90.55L493.27 90.93L493.36 91.31L493.45 91.69L493.53 92.07L493.6 92.45L493.67 92.84L493.74 93.23L493.8 93.61L493.86 94L493.91 94.39L493.96 94.78L494.02 95.17L494.07 95.56L494.12 95.94L494.17 96.33L494.22 96.72L494.27 97.1L494.32 97.48L494.37 97.86L494.43 98.23L494.48 98.6L494.54 98.97L494.91 98.99L495.28 99L495.65 99L496.02 99.01L496.39 99.01L496.77 99.01L497.14 99L497.52 99L497.9 99L498.28 98.99L498.66 98.99L499.04 98.99L499.42 98.99L499.8 98.99L500.18 98.99L500.56 99L500.94 99.01L501.32 99.03L501.7 99.05L502.08 99.07L502.45 99.1L502.83 99.13L503.2 99.18L503.57 99.23L503.94 99.28L504.31 99.35L504.67 99.42L505.03 99.5L505.39 99.59L505.75 99.69L506.1 99.8L506.45 99.93L506.79 100.06L507.13 100.21L507.47 100.36L507.8 100.53L508.13 100.72L508.45 100.92L508.77 101.13L509.08 101.36L509.36 101.61L509.62 101.86L509.86 102.13L510.08 102.4L510.3 102.68L510.49 102.97L510.68 103.26L510.85 103.56L511 103.87L511.14 104.18L511.28 104.5L511.39 104.82L511.5 105.15L511.6 105.48L511.68 105.82L511.76 106.16L511.83 106.5L511.88 106.85L511.93 107.2L511.97 107.56L512 107.91L512.03 108.27L512.05 108.63L512.06 108.99L512.06 109.35L512.06 109.71L512.06 110.07L512.05 110.43L512.03 110.79L512.01 111.15L511.99 111.51L511.97 111.87L511.94 112.23L511.91 112.58L511.88 112.93L511.85 113.28L511.82 113.63L511.79 113.97L511.75 114.31L511.72 114.64L511.68 115.17L511.62 115.71L511.56 116.24L511.5 116.78L511.43 117.31L511.35 117.85L511.28 118.39L511.2 118.93L511.11 119.47L511.03 120.02L510.95 120.56L510.86 121.1L510.78 121.65L510.7 122.19L510.62 122.74L510.55 123.28L510.48 123.83L510.41 124.37L510.35 124.91L510.3 125.46L510.25 126L510.21 126.55L510.18 127.09L510.16 127.63L510.14 128.17L510.14 128.71L510.15 129.25L510.17 129.79L510.21 130.32L510.25 130.85L510.31 131.39L510.39 131.92L510.48 132.45L510.59 132.97L510.71 133.5L510.85 134.02L511.02 134.54L511.2 135.06L511.39 135.57L511.62 136.08L511.8 136.48L512.01 136.85L512.23 137.21L512.47 137.55L512.73 137.88L513 138.19L513.28 138.48L513.57 138.76L513.88 139.02L514.2 139.27L514.53 139.5L514.87 139.71L515.22 139.91L515.58 140.1L515.95 140.26L516.32 140.42L516.7 140.55L517.09 140.67L517.48 140.78L517.88 140.87L518.28 140.94L518.69 141L519.1 141.04L519.51 141.07L519.92 141.09L520.33 141.08L520.75 141.06L521.16 141.03L521.57 140.98L521.98 140.92L522.38 140.84L522.79 140.75L523.19 140.64L523.58 140.51L523.97 140.37L524.35 140.22L524.73 140.05L525.1 139.87L525.46 139.67L525.81 139.46L526.5 139.03L527.17 138.59L527.83 138.13L528.47 137.65L529.09 137.16L529.7 136.65L530.3 136.13L530.88 135.59L531.44 135.05L532 134.49L532.54 133.91L533.07 133.33L533.59 132.73L534.1 132.13L534.6 131.51L535.08 130.89L535.56 130.26L536.03 129.62L536.5 128.97L536.95 128.31L537.4 127.65L537.84 126.99L538.27 126.31L538.7 125.64L539.12 124.96L539.54 124.28L539.96 123.59L540.37 122.9L540.78 122.21L541.18 121.52L541.59 120.83L541.99 120.14L542.39 119.45L542.79 118.76L543.19 118.07L543.6 117.39L544 116.7L544.41 116.03L544.81 115.35L545.22 114.68L545.44 114.31L545.65 113.93L545.85 113.55L546.04 113.16L546.23 112.77L546.4 112.37L546.58 111.97L546.74 111.57L546.91 111.16L547.07 110.75L547.22 110.34L547.37 109.93L547.53 109.52L547.68 109.1L547.82 108.69L547.97 108.27L548.12 107.86L548.27 107.44L548.43 107.03L548.58 106.62L548.74 106.21L548.9 105.81L549.07 105.4L549.24 105L549.41 104.61L549.6 104.21L549.78 103.82L549.98 103.44L550.19 103.06L550.4 102.69L550.62 102.32L550.86 101.96L551.1 101.61L551.36 101.26L551.63 100.92L551.91 100.59L552.2 100.27L552.51 99.96L552.83 99.65L553.17 99.36L553.4 99.26L553.64 99.19L553.88 99.13L554.11 99.09L554.35 99.07L554.58 99.07L554.82 99.08L555.05 99.1L555.27 99.15L555.49 99.2L555.71 99.27L555.93 99.35L556.13 99.45L556.34 99.56L556.53 99.68L556.72 99.81L556.9 99.95L557.07 100.1L557.24 100.26L557.39 100.42L557.54 100.6L557.67 100.78L557.8 100.97L557.91 101.17L558.01 101.37L558.1 101.58L558.17 101.79L558.23 102.01L558.28 102.22L558.31 102.45L558.32 102.67L558.32 102.9L558.31 103.12L558.27 103.35L558.22 103.58L558.15 103.8L558.07 104.03L557.96 104.25L557.83 104.47L557.68 104.69L557.34 105.4L557.01 106.11L556.68 106.83L556.35 107.56L556.03 108.29L555.71 109.02L555.4 109.76L555.1 110.51L554.81 111.26L554.52 112.01L554.24 112.76L553.98 113.52L553.72 114.29L553.47 115.05L553.23 115.82L553.01 116.59L552.79 117.37L552.59 118.15L552.4 118.93L552.23 119.71L552.07 120.49L551.92 121.28L551.79 122.06L551.67 122.85L551.57 123.64L551.49 124.43L551.42 125.22L551.38 126.02L551.35 126.81L551.34 127.6L551.34 128.39L551.37 129.19L551.42 129.98L551.49 130.77L551.58 131.56L551.7 132.35L551.83 133.14L551.99 133.93L552.17 134.71L552.38 135.5L552.51 135.91L552.67 136.3L552.84 136.67L553.04 137.03L553.25 137.36L553.49 137.68L553.74 137.98L554.01 138.27L554.3 138.53L554.6 138.77L554.91 139L555.24 139.21L555.57 139.4L555.92 139.58L556.28 139.73L556.65 139.87L557.02 139.99L557.4 140.09L557.79 140.17L558.18 140.23L558.58 140.28L558.98 140.31L559.38 140.32L559.78 140.31L560.18 140.28L560.58 140.24L560.97 140.18L561.37 140.1L561.76 140L562.14 139.88L562.52 139.75L562.89 139.59L563.25 139.42L563.6 139.23L563.94 139.03L564.27 138.8L564.59 138.56L564.9 138.3L565.19 138.02L565.47 137.72L566.04 137.1L566.59 136.46L567.11 135.81L567.62 135.15L568.1 134.47L568.56 133.79L569 133.09L569.43 132.38L569.83 131.67L570.22 130.94L570.59 130.21L570.94 129.47L571.28 128.72L571.61 127.96L571.92 127.2L572.22 126.43L572.51 125.65L572.78 124.87L573.05 124.08L573.31 123.29L573.55 122.49L573.79 121.69L574.03 120.89L574.25 120.09L574.47 119.28L574.69 118.47L574.9 117.66L575.11 116.85L575.32 116.04L575.52 115.23L575.73 114.42L575.93 113.61L576.14 112.8L576.34 112L576.55 111.19L576.76 110.39L576.98 109.6L577.2 108.8L577.43 108.02L577.66 107.23L577.76 106.97L577.87 106.72L578.01 106.49L578.16 106.29L578.32 106.1L578.5 105.93L578.69 105.78L578.89 105.65L579.1 105.54L579.32 105.44L579.55 105.36L579.79 105.3L580.03 105.26L580.28 105.23L580.53 105.22L580.78 105.22L581.03 105.24L581.28 105.27L581.53 105.32L581.78 105.38L582.02 105.46L582.26 105.55L582.49 105.66L582.72 105.77L582.94 105.9L583.15 106.05L583.34 106.2L583.53 106.37L583.7 106.55L583.86 106.74L584 106.94L584.12 107.15L584.23 107.37L584.32 107.6L584.39 107.84L584.44 108.09L584.46 108.35L584.46 108.62L584.44 108.9L584.39 109.18L584.3 110.14L584.21 111.11L584.12 112.08L584.02 113.04L583.93 114.01L583.84 114.97L583.74 115.94L583.65 116.9L583.55 117.87L583.46 118.83L583.36 119.8L583.26 120.76L583.17 121.73L583.07 122.69L582.98 123.66L582.88 124.62L582.79 125.59L582.7 126.56L582.61 127.52L582.51 128.49L582.43 129.45L582.34 130.42L582.25 131.38L582.16 132.35L582.08 133.32L582 134.28L581.92 135.25L581.84 136.22L581.77 137.18L581.69 138.15L581.62 139.12L581.55 140.08L581.49 141.05L581.42 142.02L581.36 142.98L581.31 143.95L581.25 144.92L581.2 145.89L581.15 146.86L581.11 147.82L581.66 147.28L582.21 146.74L582.76 146.19L583.31 145.65L583.86 145.1L584.41 144.55L584.96 144L585.51 143.45L586.06 142.9L586.6 142.35L587.14 141.8L587.69 141.24L588.23 140.68L588.77 140.12L589.3 139.56L589.84 139L590.37 138.43L590.89 137.87L591.42 137.3L591.94 136.72L592.46 136.15L592.98 135.57L593.49 134.99L594 134.4L594.5 133.81L595 133.22L595.5 132.63L595.99 132.03L596.48 131.43L596.96 130.82L597.44 130.21L597.91 129.6L598.38 128.98L598.84 128.36L599.3 127.73L599.75 127.1L600.19 126.47L600.63 125.83L601.06 125.18L601.49 124.53L601.65 124.28L601.8 124.03L601.96 123.78L602.11 123.52L602.26 123.27L602.41 123.02L602.56 122.76L602.71 122.5L602.86 122.24L603 121.99L603.15 121.73L603.29 121.47L603.44 121.21L603.58 120.95L603.72 120.69L603.87 120.43L604.01 120.17L604.16 119.91L604.3 119.65L604.45 119.39L604.59 119.14L604.74 118.88L604.89 118.62L605.04 118.37L605.19 118.11L605.34 117.86L605.49 117.6L605.65 117.35L605.8 117.1L605.96 116.85L606.12 116.6L606.29 116.36L606.45 116.11L606.62 115.87L606.79 115.63L606.97 115.39L607.15 115.15L607.33 114.92L607.51 114.69L607.7 114.46L607.83 114.43L607.97 114.41L608.11 114.39L608.24 114.38L608.38 114.37L608.51 114.37L608.64 114.37L608.78 114.37L608.91 114.38L609.05 114.4L609.18 114.41L609.31 114.43L609.44 114.45L609.58 114.48L609.71 114.51L609.84 114.54L609.97 114.57L610.11 114.6L610.24 114.64L610.37 114.68L610.5 114.71L610.63 114.75L610.76 114.8L610.89 114.84L611.02 114.88L611.16 114.92L611.29 114.96L611.42 115L611.55 115.05L611.68 115.09L611.81 115.13L611.94 115.17L612.07 115.2L612.21 115.24L612.34 115.27L612.47 115.31L612.6 115.34L612.73 115.37L612.87 115.39L613 115.42L613 119.39L612.44 120.56L611.85 121.72L611.25 122.86L610.62 123.99L609.97 125.1L609.31 126.2L608.62 127.29L607.92 128.37L607.2 129.43L606.46 130.48L605.71 131.52L604.95 132.55L604.17 133.57L603.38 134.59L602.57 135.59L601.76 136.58L600.93 137.57L600.1 138.55L599.25 139.52L598.4 140.48L597.53 141.44L596.67 142.4L595.79 143.34L594.91 144.29L594.02 145.23L593.13 146.17L592.24 147.1L591.35 148.03L590.45 148.96L589.55 149.89L588.65 150.82L587.76 151.75L586.86 152.68L585.96 153.6L585.07 154.53L584.19 155.47L583.3 156.4L582.42 157.34L581.55 158.28L580.68 159.22L580.65 160.24L580.63 161.26L580.61 162.28L580.6 163.3L580.6 164.32L580.6 165.33L580.6 166.35L580.61 167.37L580.63 168.39L580.65 169.41L580.67 170.43L580.69 171.45L580.72 172.47L580.75 173.49L580.78 174.51L580.81 175.52L580.84 176.54L580.87 177.56L580.9 178.58L580.93 179.6L580.96 180.62L580.99 181.64L581.01 182.66L581.04 183.67L581.06 184.69L581.07 185.71L581.08 186.73L581.09 187.75L581.09 188.77L581.09 189.79L581.08 190.8L581.07 191.82L581.05 192.84L581.02 193.86L580.98 194.88L580.94 195.9L580.88 196.91L580.82 197.93L580.75 198.95L580.67 199.97L580.59 200.83L580.51 201.69L580.43 202.55L580.35 203.42L580.27 204.29L580.18 205.16L580.1 206.03L580 206.91L579.91 207.78L579.81 208.65L579.7 209.53L579.59 210.41L579.47 211.28L579.34 212.15L579.21 213.02L579.06 213.89L578.91 214.76L578.75 215.63L578.58 216.49L578.39 217.35L578.2 218.2L577.99 219.06L577.77 219.9L577.54 220.74L577.29 221.58L577.03 222.41L576.75 223.24L576.46 224.06L576.15 224.87L575.83 225.68L575.49 226.47L575.13 227.26L574.75 228.05L574.35 228.82L573.93 229.58L573.49 230.34L573.03 231.08L572.55 231.82L572.04 232.54L571.52 233.26L571.1 233.81L570.66 234.34L570.2 234.83L569.7 235.3L569.19 235.74L568.65 236.15L568.09 236.53L567.51 236.88L566.92 237.21L566.31 237.5L565.69 237.77L565.05 238L564.4 238.21L563.74 238.38L563.08 238.53L562.41 238.65L561.73 238.74L561.06 238.79L560.38 238.82L559.7 238.82L559.02 238.79L558.34 238.73L557.67 238.63L557.01 238.51L556.35 238.36L555.71 238.17L555.07 237.96L554.45 237.71L553.84 237.44L553.25 237.13L552.68 236.79L552.12 236.42L551.59 236.02L551.08 235.59L550.59 235.13L550.12 234.63L549.69 234.11L549.28 233.55L548.9 232.96L548.56 232.34L548.24 231.69L547.94 231.03L547.67 230.36L547.42 229.7L547.19 229.02L546.99 228.34L546.8 227.66L546.64 226.97L546.49 226.28L546.37 225.59L546.26 224.89L546.17 224.19L546.1 223.49L546.04 222.78L546 222.07L545.97 221.36L545.96 220.65L545.97 219.94L545.99 219.23L546.02 218.51L546.06 217.79L546.11 217.08L546.18 216.36L546.26 215.64L546.34 214.93L546.44 214.21L546.54 213.5L546.66 212.79L546.78 212.08L546.91 211.37L547.04 210.66L547.18 209.95L547.32 209.25L547.47 208.55L547.63 207.85L547.79 207.16L547.94 206.47L548.11 205.78L548.27 205.1L548.44 204.42L548.78 203.25L549.13 202.09L549.49 200.92L549.86 199.76L550.24 198.6L550.63 197.45L551.03 196.3L551.45 195.15L551.87 194.01L552.3 192.87L552.75 191.73L553.2 190.6L553.66 189.47L554.14 188.35L554.62 187.23L555.12 186.11L555.62 185L556.14 183.9L556.66 182.79L557.2 181.7L557.75 180.61L558.3 179.52L558.87 178.44L559.44 177.37L560.03 176.3L560.63 175.23L561.23 174.17L561.85 173.12L562.48 172.08L563.11 171.04L563.76 170L564.41 168.98L565.08 167.95L565.76 166.94L566.44 165.93L567.14 164.93L567.85 163.94L568.56 162.95L569.29 161.98L570.02 161L570.45 160.54L570.84 160.07L571.2 159.59L571.53 159.1L571.83 158.6L572.11 158.08L572.36 157.56L572.58 157.03L572.78 156.5L572.96 155.95L573.12 155.4L573.26 154.84L573.38 154.28L573.48 153.71L573.57 153.13L573.64 152.55L573.7 151.97L573.74 151.38L573.78 150.79L573.81 150.19L573.83 149.59L573.84 148.99L573.85 148.39L573.85 147.78L573.85 147.18L573.85 146.57L573.84 145.97L573.84 145.36L573.84 144.76L573.85 144.16L573.85 143.56L573.87 142.96L573.89 142.36L573.92 141.77L573.96 141.18L574.01 140.59L574.08 140.01L574.15 139.43L574.25 138.86L574.35 138.3L574.06 138.72L573.76 139.14L573.45 139.55L573.13 139.96L572.81 140.37L572.47 140.78L572.13 141.18L571.78 141.57L571.42 141.96L571.06 142.34L570.69 142.71L570.31 143.07L569.92 143.43L569.52 143.78L569.12 144.11L568.71 144.44L568.29 144.75L567.87 145.06L567.44 145.35L567.01 145.63L566.56 145.89L566.11 146.14L565.66 146.38L565.2 146.6L564.73 146.81L564.25 146.99L563.77 147.17L563.29 147.32L562.8 147.46L562.3 147.58L561.8 147.68L561.29 147.75L560.78 147.81L560.26 147.85L559.74 147.87L559.21 147.86L558.68 147.83L558.14 147.78L557.6 147.7L557.06 147.6L556.46 147.53L555.87 147.44L555.3 147.32L554.74 147.18L554.2 147.01L553.67 146.82L553.15 146.61L552.65 146.37L552.16 146.11L551.68 145.83L551.22 145.53L550.77 145.22L550.33 144.88L549.91 144.52L549.51 144.15L549.11 143.77L548.73 143.36L548.36 142.95L548.01 142.52L547.67 142.07L547.35 141.61L547.04 141.15L546.74 140.67L546.45 140.18L546.18 139.68L545.93 139.17L545.68 138.65L545.45 138.13L545.24 137.6L545.04 137.07L544.85 136.53L544.68 135.98L544.52 135.43L544.37 134.88L544.24 134.33L544.12 133.78L544.01 133.22L543.92 132.67L543.85 132.12L543.78 131.57L543.42 132.08L543.06 132.6L542.69 133.11L542.31 133.62L541.93 134.14L541.55 134.65L541.16 135.15L540.77 135.66L540.38 136.17L539.97 136.67L539.57 137.16L539.15 137.65L538.74 138.14L538.31 138.63L537.88 139.1L537.45 139.57L537.01 140.04L536.56 140.5L536.1 140.95L535.64 141.39L535.18 141.83L534.7 142.25L534.22 142.67L533.74 143.08L533.24 143.48L532.74 143.86L532.23 144.24L531.71 144.61L531.19 144.96L530.66 145.3L530.12 145.63L529.57 145.95L529.01 146.25L528.45 146.54L527.87 146.82L527.29 147.08L526.7 147.32L526.1 147.55L525.49 147.76L524.87 147.96L524.32 148.12L523.76 148.26L523.19 148.38L522.62 148.48L522.05 148.56L521.47 148.62L520.9 148.66L520.32 148.68L519.74 148.68L519.16 148.67L518.59 148.63L518.01 148.58L517.44 148.5L516.87 148.41L516.31 148.3L515.74 148.17L515.19 148.02L514.64 147.86L514.09 147.67L513.55 147.47L513.02 147.25L512.5 147.02L511.98 146.77L511.48 146.5L510.98 146.21L510.49 145.9L510.02 145.58L509.56 145.25L509.11 144.89L508.67 144.52L508.25 144.14L507.84 143.74L507.45 143.32L507.07 142.88L506.71 142.43L506.36 141.97L506.04 141.49L505.73 141L505.44 140.49L505.17 139.96L504.85 139.36L504.56 138.76L504.3 138.15L504.06 137.54L503.84 136.92L503.64 136.3L503.46 135.68L503.31 135.05L503.17 134.42L503.05 133.79L502.95 133.15L502.87 132.51L502.8 131.87L502.75 131.23L502.71 130.58L502.69 129.93L502.68 129.28L502.68 128.63L502.7 127.98L502.72 127.33L502.75 126.67L502.8 126.02L502.85 125.36L502.91 124.7L502.98 124.05L503.05 123.39L503.13 122.73L503.22 122.08L503.31 121.42L503.4 120.77L503.49 120.12L503.58 119.46L503.68 118.81L503.78 118.16L503.87 117.52L503.97 116.87L504.06 116.23L504.15 115.58L504.23 114.95L504.31 114.31L504.32 114.13L504.33 113.95L504.34 113.76L504.35 113.58L504.36 113.39L504.38 113.2L504.4 113.01L504.41 112.82L504.43 112.63L504.45 112.44L504.46 112.25L504.48 112.05L504.49 111.86L504.51 111.67L504.52 111.47L504.53 111.28L504.54 111.08L504.54 110.89L504.54 110.7L504.54 110.51L504.54 110.32L504.53 110.13L504.52 109.94L504.5 109.75L504.48 109.56L504.46 109.37L504.43 109.19L504.39 109.01L504.35 108.83L504.3 108.65L504.24 108.47L504.18 108.3L504.11 108.12L504.04 107.95L503.95 107.79L503.86 107.62L503.76 107.46L503.65 107.3L503.53 107.15L503.41 106.99L503.17 106.95L502.94 106.9L502.7 106.86L502.46 106.82L502.23 106.79L501.99 106.75L501.76 106.72L501.52 106.69L501.28 106.67L501.04 106.64L500.81 106.62L500.57 106.6L500.33 106.59L500.09 106.57L499.86 106.56L499.62 106.54L499.38 106.53L499.14 106.52L498.9 106.52L498.66 106.51L498.43 106.5L498.19 106.5L497.95 106.49L497.71 106.49L497.47 106.49L497.23 106.49L496.99 106.49L496.75 106.49L496.51 106.49L496.28 106.49L496.04 106.49L495.8 106.49L495.56 106.49L495.32 106.49L495.08 106.48L494.84 106.48L494.61 106.48L494.37 106.48L494.13 106.48L493.89 106.47L493.79 106.96L493.69 107.44L493.59 107.92L493.49 108.41L493.38 108.89L493.27 109.37L493.16 109.85L493.04 110.33L492.92 110.81L492.8 111.29L492.68 111.77L492.55 112.24L492.42 112.72L492.28 113.19L492.14 113.67L492 114.14L491.86 114.61L491.71 115.08L491.56 115.55L491.4 116.02L491.24 116.49L491.08 116.95L490.91 117.41L490.74 117.88L490.56 118.34L490.38 118.79L490.2 119.25L490.01 119.71L489.81 120.16L489.61 120.61L489.41 121.06L489.2 121.5L488.98 121.95L488.76 122.39L488.54 122.83L488.31 123.27L488.07 123.71L487.83 124.14L487.59 124.57L487.34 125L486.98 125.61L486.62 126.23L486.25 126.84L485.88 127.46L485.51 128.07L485.14 128.68L484.76 129.3L484.37 129.91L483.99 130.52L483.59 131.12L483.2 131.73L482.79 132.33L482.39 132.92L481.97 133.52L481.55 134.11L481.13 134.69L480.7 135.27L480.26 135.84L479.82 136.41L479.36 136.97L478.91 137.53L478.44 138.08L477.97 138.62L477.49 139.15L477 139.68L476.5 140.19L476 140.7L475.49 141.2L474.96 141.69L474.43 142.17L473.89 142.64L473.34 143.1L472.78 143.54L472.22 143.98L471.64 144.4L471.05 144.82L470.45 145.21L469.84 145.6L469.22 145.97L468.59 146.33L468.1 146.59L467.6 146.84L467.09 147.06L466.57 147.27L466.05 147.47L465.51 147.64L464.96 147.8L464.41 147.93L463.86 148.05L463.3 148.15L462.73 148.24L462.17 148.3L461.6 148.35L461.03 148.37L460.46 148.38L459.89 148.37L459.32 148.33L458.76 148.28L458.2 148.21L457.64 148.12L457.09 148.01L456.55 147.88L456.01 147.72L455.48 147.55L454.96 147.36L454.45 147.14L453.95 146.9L453.46 146.65L452.99 146.37L452.53 146.07L452.08 145.75L451.65 145.4L451.24 145.04L450.84 144.65L450.46 144.24L450.1 143.8L449.76 143.35L449.45 142.87L449.15 142.37L448.88 141.84L448.59 141.19L448.32 140.54L448.08 139.89L447.86 139.23L447.67 138.57L447.49 137.9L447.33 137.24L447.19 136.56L447.07 135.89L446.96 135.22L446.88 134.54L446.8 133.86L446.74 133.17L446.7 132.49L446.67 131.8L446.65 131.12L446.64 130.43L446.64 129.74L446.65 129.04L446.67 128.35L446.69 127.66L446.73 126.96L446.76 126.27L446.81 125.57L446.86 124.88L446.91 124.18L446.97 123.49L447.02 122.79L447.08 122.1L447.14 121.4L447.2 120.71L447.25 120.02L447.31 119.33L447.36 118.63L447.4 117.95L447.44 117.26L447.48 116.57L447.51 115.89L447.53 115.2L447.54 114.52L447.53 114.37L447.53 114.22L447.52 114.06L447.51 113.89L447.5 113.73L447.49 113.56L447.48 113.39L447.46 113.22L447.45 113.04L447.43 112.87L447.42 112.7L447.4 112.52L447.38 112.34L447.35 112.17L447.32 111.99L447.29 111.82L447.26 111.65L447.22 111.47L447.18 111.31L447.13 111.14L447.08 110.97L447.03 110.81L446.97 110.65L446.91 110.5L446.84 110.35L446.76 110.2L446.68 110.06L446.6 109.92L446.51 109.79L446.41 109.67L446.3 109.55L446.19 109.43L446.07 109.33L445.95 109.23L445.81 109.13L445.67 109.05L445.52 108.97L445.36 108.9L445.2 108.84L445.02 108.79L444.75 108.77L444.48 108.76L444.21 108.76L443.95 108.77L443.69 108.8L443.44 108.84L443.19 108.88L442.94 108.94L442.69 109.02L442.45 109.1L442.22 109.19L441.98 109.29L441.76 109.4L441.53 109.51L441.31 109.64L441.09 109.77L440.87 109.91L440.66 110.06L440.45 110.21L440.24 110.37L440.04 110.54L439.84 110.71L439.64 110.88L439.44 111.06L439.25 111.24L439.06 111.43L438.87 111.62L438.69 111.81L438.51 112.01L438.33 112.2L438.15 112.4L437.98 112.6L437.8 112.8L437.63 113L437.46 113.2L437.3 113.4L437.14 113.59L436.97 113.79L436.81 113.98L436.66 114.18L436.13 114.89L435.62 115.61L435.11 116.34L434.61 117.07L434.13 117.8L433.64 118.54L433.17 119.29L432.7 120.04L432.24 120.79L431.79 121.55L431.34 122.31L430.9 123.07L430.46 123.84L430.03 124.61L429.6 125.38L429.18 126.16L428.76 126.94L428.34 127.72L427.93 128.5L427.52 129.28L427.11 130.07L426.7 130.85L426.29 131.64L425.89 132.42L425.48 133.21L425.08 134L424.67 134.79L424.27 135.57L423.86 136.36L423.45 137.14L423.04 137.93L422.63 138.71L422.22 139.49L421.8 140.27L421.38 141.05L420.96 141.83L420.53 142.6L420.1 143.37L419.67 144.14L419.23 144.91L419.12 145.07L419.02 145.24L418.91 145.41L418.8 145.58L418.69 145.75L418.58 145.92L418.46 146.09L418.34 146.26L418.23 146.43L418.1 146.6L417.98 146.77L417.86 146.94L417.73 147.1L417.6 147.27L417.46 147.43L417.33 147.58L417.19 147.74L417.05 147.89L416.9 148.03L416.76 148.18L416.6 148.31L416.45 148.45L416.3 148.58L416.14 148.7L415.97 148.81L415.81 148.92L415.64 149.03L415.46 149.12L415.29 149.21L415.11 149.3L414.92 149.37L414.74 149.44L414.55 149.5L414.35 149.55L414.15 149.59L413.95 149.62L413.74 149.64L413.53 149.65L413.32 149.65L413.1 149.64L412.87 149.64L412.65 149.64L412.44 149.62L412.22 149.59L412.02 149.55L411.81 149.5L411.62 149.45L411.42 149.38L411.23 149.3L411.05 149.22L410.87 149.12L410.69 149.02L410.52 148.91L410.36 148.79L410.2 148.67L410.05 148.53L409.9 148.4L409.76 148.25L409.62 148.1L409.49 147.94L409.36 147.78L409.24 147.61L409.13 147.44L409.02 147.26L408.92 147.08L408.83 146.9L408.74 146.71L408.66 146.51L408.58 146.32L408.51 146.12L408.45 145.92L408.4 145.72L408.35 145.52L408.31 145.31L408.27 145.1L408.25 144.9L408.23 144.69L408.22 144.48L408.21 144.27L408.22 144.07L408.2 143.33L408.18 142.59L408.17 141.85L408.16 141.11L408.16 140.37L408.17 139.63L408.18 138.89L408.19 138.15L408.21 137.41L408.23 136.67L408.25 135.93L408.28 135.19L408.31 134.46L408.34 133.72L408.38 132.98L408.41 132.24L408.45 131.5L408.49 130.76L408.54 130.02L408.58 129.28L408.62 128.54L408.66 127.8L408.71 127.06L408.75 126.33L408.8 125.59L408.84 124.85L408.88 124.11L408.92 123.37L408.96 122.63L409 121.89L409.03 121.15L409.07 120.41L409.1 119.67L409.12 118.93L409.15 118.19L409.17 117.45L409.19 116.71L409.2 115.98L409.21 115.24L409.22 114.5L409.22 114.35L409.22 114.2L409.21 114.05L409.21 113.9L409.21 113.75L409.2 113.6L409.2 113.45L409.19 113.3L409.18 113.14L409.17 112.99L409.16 112.84L409.15 112.69L409.13 112.54L409.11 112.39L409.1 112.24L409.07 112.09L409.05 111.95L409.03 111.8L409 111.65L408.97 111.5L408.94 111.36L408.91 111.21L408.87 111.07L408.83 110.92L408.79 110.78L408.74 110.64L408.69 110.5L408.64 110.36L408.59 110.22L408.53 110.08L408.47 109.94L408.41 109.81L408.34 109.67L408.27 109.54L408.19 109.41L408.12 109.28L408.03 109.15L407.95 109.03L407.86 108.9L407.76 108.78L407.51 108.73L407.25 108.69L407 108.67L406.75 108.66L406.51 108.67L406.27 108.69L406.03 108.72L405.8 108.76L405.57 108.81L405.35 108.87L405.13 108.95L404.91 109.03L404.7 109.12L404.49 109.22L404.28 109.33L404.08 109.45L403.88 109.58L403.68 109.71L403.49 109.85L403.3 110L403.11 110.15L402.93 110.31L402.75 110.48L402.57 110.64L402.39 110.82L402.22 110.99L402.05 111.17L401.89 111.36L401.72 111.54L401.56 111.73L401.4 111.92L401.25 112.11L401.1 112.3L400.94 112.49L400.8 112.69L400.65 112.88L400.51 113.07L400.37 113.26L400.23 113.44L400.09 113.63L399.64 114.3L399.19 114.97L398.74 115.65L398.3 116.33L397.86 117.01L397.43 117.69L397 118.37L396.57 119.06L396.15 119.75L395.73 120.44L395.31 121.13L394.9 121.83L394.49 122.52L394.08 123.22L393.68 123.92L393.28 124.62L392.88 125.33L392.48 126.03L392.08 126.74L391.69 127.44L391.3 128.15L390.91 128.86L390.53 129.57L390.14 130.28L389.76 131L389.38 131.71L389 132.43L388.62 133.14L388.24 133.86L387.86 134.57L387.49 135.29L387.11 136.01L386.74 136.72L386.36 137.44L385.99 138.16L385.62 138.88L385.24 139.59L384.87 140.31L384.5 141.03L384.12 141.75L384 141.98L383.87 142.22L383.73 142.46L383.59 142.69L383.45 142.93L383.31 143.17L383.16 143.4L383.01 143.64L382.85 143.87L382.69 144.11L382.53 144.34L382.36 144.56L382.19 144.79L382.01 145.01L381.83 145.23L381.65 145.44L381.46 145.65L381.27 145.85L381.07 146.05L380.87 146.24L380.67 146.42L380.46 146.6L380.25 146.78L380.03 146.94L379.81 147.1L379.58 147.25L379.35 147.39L379.11 147.52L378.87 147.64L378.63 147.75L378.38 147.85L378.12 147.95L377.86 148.03L377.6 148.1L377.33 148.15L377.05 148.2L376.77 148.23L376.49 148.25L376.2 148.26L375.9 148.25L375.68 148.26L375.46 148.25L375.24 148.24L375.02 148.21L374.81 148.18L374.61 148.13L374.4 148.08L374.2 148.01L374.01 147.94L373.82 147.86L373.63 147.77L373.45 147.67L373.27 147.57L373.1 147.45L372.93 147.33L372.77 147.2L372.62 147.07L372.46 146.93L372.32 146.78L372.18 146.63L372.05 146.47L371.92 146.31L371.8 146.14L371.68 145.96L371.57 145.78L371.47 145.6L371.38 145.41L371.29 145.22L371.21 145.03L371.13 144.83L371.07 144.63L371.01 144.43L370.96 144.23L370.91 144.02L370.88 143.81L370.85 143.6L370.83 143.39L370.82 143.17L370.82 142.96L370.83 142.75L370.8 141.76L370.79 140.78L370.79 139.79L370.8 138.81L370.81 137.82L370.84 136.84L370.87 135.85L370.9 134.87L370.94 133.88L370.99 132.9L371.04 131.91L371.1 130.93L371.15 129.94L371.21 128.96L371.27 127.97L371.34 126.99L371.4 126L371.46 125.02L371.52 124.03L371.58 123.05L371.64 122.06L371.69 121.08L371.74 120.09L371.79 119.11L371.83 118.12L371.86 117.14L371.89 116.16L371.91 115.17L371.92 114.19L371.93 113.2L371.92 112.22L371.91 111.23L371.88 110.25L371.85 109.27L371.8 108.28L371.74 107.3L371.66 106.32L371.58 105.33L371.48 104.35L371.36 103.37L370.98 103.8L370.61 104.24L370.25 104.68L369.9 105.13L369.55 105.59L369.22 106.05L368.89 106.51L368.58 106.98L368.27 107.45L367.96 107.93L367.66 108.41L367.37 108.9L367.09 109.39L366.81 109.88L366.53 110.38L366.27 110.87L366 111.38L365.74 111.88L365.48 112.39L365.23 112.89L364.98 113.4L364.73 113.92L364.49 114.43L364.25 114.94L364.01 115.46L363.77 115.97L363.53 116.49L363.29 117.01L363.05 117.53L362.82 118.04L362.58 118.56L362.34 119.08L362.1 119.59L361.86 120.1L361.62 120.62L361.37 121.13L361.12 121.64L360.87 122.15L360.62 122.65L360.36 123.16L360.01 123.8L359.66 124.45L359.3 125.1L358.93 125.74L358.56 126.39L358.19 127.03L357.82 127.67L357.44 128.31L357.05 128.95L356.66 129.59L356.26 130.22L355.86 130.85L355.45 131.48L355.04 132.1L354.62 132.72L354.2 133.34L353.76 133.94L353.32 134.55L352.88 135.15L352.43 135.74L351.97 136.33L351.5 136.91L351.03 137.48L350.54 138.04L350.05 138.6L349.55 139.15L349.05 139.69L348.53 140.22L348.01 140.75L347.47 141.26L346.93 141.77L346.38 142.26L345.82 142.75L345.25 143.22L344.66 143.68L344.07 144.13L343.47 144.57L342.86 145L342.24 145.41L341.6 145.81L341.13 146.1L340.64 146.37L340.14 146.63L339.63 146.87L339.11 147.09L338.58 147.3L338.04 147.48L337.5 147.65L336.95 147.81L336.39 147.94L335.83 148.06L335.26 148.16L334.69 148.24L334.12 148.3L333.54 148.35L332.97 148.37L332.39 148.38L331.82 148.36L331.25 148.33L330.68 148.27L330.12 148.2L329.56 148.1L329.01 147.98L328.46 147.85L327.93 147.69L327.4 147.51L326.88 147.31L326.37 147.08L325.87 146.84L325.38 146.57L324.91 146.28L324.45 145.97L324.01 145.63L323.58 145.27L323.17 144.89L322.77 144.48L322.39 144.05L322.04 143.6L321.7 143.12L321.39 142.61L321.06 141.99L320.76 141.36L320.49 140.72L320.24 140.08L320.01 139.43L319.8 138.78L319.62 138.13L319.45 137.47L319.3 136.81L319.17 136.14L319.06 135.48L318.97 134.81L318.89 134.13L318.82 133.45L318.77 132.77L318.73 132.09L318.71 131.41L318.7 130.72L318.69 130.04L318.7 129.35L318.72 128.66L318.74 127.97L318.77 127.28L318.81 126.58L318.85 125.89L318.9 125.2L318.95 124.51L319.01 123.81L319.07 123.12L319.13 122.43L319.18 121.74L319.24 121.05L319.3 120.36L319.36 119.68L319.41 118.99L319.46 118.31L319.51 117.63L319.55 116.95L319.59 116.28L319.61 115.6L319.61 115.42L319.61 115.24L319.61 115.05L319.61 114.86L319.61 114.67L319.6 114.47L319.6 114.28L319.6 114.08L319.59 113.88L319.58 113.68L319.57 113.48L319.56 113.28L319.55 113.08L319.53 112.88L319.51 112.68L319.49 112.48L319.46 112.28L319.43 112.09L319.39 111.89L319.35 111.7L319.3 111.51L319.25 111.32L319.2 111.14L319.14 110.95L319.07 110.78L318.99 110.6L318.91 110.43L318.83 110.27L318.73 110.1L318.63 109.95L318.52 109.8L318.4 109.65L318.28 109.51L318.14 109.38L318 109.25L317.85 109.13L317.69 109.02L317.52 108.91L317.34 108.82L317.15 108.73L316.87 108.71L316.6 108.71L316.33 108.72L316.06 108.74L315.8 108.77L315.54 108.81L315.29 108.87L315.04 108.93L314.79 109.01L314.55 109.09L314.31 109.19L314.08 109.29L313.84 109.4L313.61 109.52L313.39 109.65L313.17 109.78L312.95 109.92L312.73 110.07L312.52 110.22L312.31 110.38L312.11 110.55L311.9 110.72L311.7 110.89L311.51 111.07L311.31 111.25L311.12 111.44L310.93 111.63L310.75 111.82L310.56 112.02L310.38 112.22L310.2 112.41L310.03 112.61L309.85 112.82L309.68 113.02L309.51 113.22L309.35 113.42L309.18 113.62L309.02 113.82L308.86 114.02L308.7 114.22L308.17 114.93L307.66 115.65L307.15 116.38L306.66 117.11L306.17 117.85L305.69 118.59L305.21 119.34L304.75 120.09L304.29 120.84L303.83 121.6L303.39 122.36L302.94 123.13L302.51 123.89L302.07 124.66L301.65 125.44L301.22 126.21L300.8 126.99L300.38 127.77L299.97 128.55L299.56 129.34L299.15 130.12L298.74 130.91L298.34 131.7L297.93 132.48L297.52 133.27L297.12 134.06L296.72 134.84L296.31 135.63L295.9 136.42L295.5 137.2L295.09 137.99L294.68 138.77L294.26 139.55L293.85 140.33L293.43 141.11L293 141.88L292.58 142.66L292.15 143.43L291.71 144.2L291.27 144.96L291.17 145.12L291.06 145.29L290.96 145.45L290.85 145.62L290.74 145.79L290.63 145.95L290.52 146.12L290.4 146.29L290.29 146.45L290.17 146.62L290.05 146.78L289.92 146.95L289.8 147.11L289.67 147.27L289.54 147.42L289.4 147.58L289.27 147.73L289.13 147.88L288.99 148.02L288.84 148.16L288.7 148.3L288.55 148.43L288.39 148.55L288.24 148.67L288.08 148.79L287.91 148.9L287.75 149L287.58 149.1L287.4 149.19L287.23 149.27L287.05 149.35L286.86 149.42L286.68 149.48L286.49 149.53L286.29 149.57L286.09 149.61L285.89 149.63L285.68 149.65L285.47 149.65L285.26 149.65L285.03 149.66L284.81 149.66L284.59 149.64L284.37 149.61L284.16 149.58L283.95 149.53L283.75 149.47L283.55 149.41L283.36 149.33L283.17 149.25L282.99 149.15L282.81 149.05L282.64 148.94L282.47 148.82L282.31 148.69L282.15 148.56L282 148.42L281.85 148.27L281.71 148.12L281.58 147.96L281.45 147.8L281.33 147.63L281.21 147.45L281.1 147.27L281 147.09L280.9 146.9L280.81 146.71L280.72 146.52L280.65 146.32L280.58 146.12L280.51 145.91L280.46 145.71L280.41 145.5L280.37 145.29L280.33 145.08L280.31 144.87L280.29 144.66L280.27 144.45L280.27 144.24L280.27 144.03L280.25 143.26L280.23 142.49L280.22 141.72L280.22 140.95L280.22 140.18L280.23 139.41L280.24 138.64L280.25 137.87L280.27 137.1L280.3 136.33L280.33 135.56L280.36 134.79L280.39 134.02L280.43 133.25L280.47 132.48L280.51 131.71L280.55 130.94L280.6 130.17L280.64 129.4L280.69 128.63L280.74 127.86L280.78 127.09L280.83 126.32L280.87 125.55L280.92 124.78L280.96 124.01L281 123.24L281.04 122.47L281.08 121.7L281.11 120.93L281.14 120.16L281.17 119.39L281.2 118.62L281.22 117.85L281.23 117.08L281.24 116.31L281.25 115.54L281.25 114.77L281.24 114L281.23 113.23L281.24 113.07L281.23 112.92L281.23 112.77L281.21 112.62L281.19 112.47L281.17 112.32L281.14 112.17L281.11 112.02L281.08 111.88L281.04 111.74L280.99 111.6L280.94 111.45L280.89 111.31L280.84 111.18L280.78 111.04L280.72 110.9L280.66 110.76L280.59 110.63L280.52 110.49L280.45 110.36L280.38 110.23L280.31 110.09L280.24 109.96L280.16 109.83L280.08 109.7L280.01 109.57L279.93 109.44L279.85 109.31L279.77 109.18L279.69 109.05L279.62 108.92L279.54 108.79L279.46 108.66L279.38 108.53L279.31 108.4L279.23 108.26L279.16 108.13L279.09 108L279.02 107.87L278.95 107.74L278.75 107.87L278.54 108.01L278.33 108.14L278.12 108.27L277.91 108.41L277.7 108.55L277.49 108.69L277.29 108.83L277.08 108.97L276.88 109.11L276.67 109.25L276.47 109.4L276.27 109.55L276.07 109.7L275.87 109.85L275.67 110L275.48 110.15L275.28 110.31L275.09 110.47L274.9 110.63L274.71 110.79L274.53 110.95L274.34 111.12L274.16 111.29L273.98 111.46L273.8 111.63L273.63 111.81L273.46 111.99L273.29 112.17L273.12 112.35L272.96 112.54L272.79 112.73L272.64 112.92L272.48 113.11L272.33 113.31L272.18 113.51L272.04 113.72L271.9 113.92L271.76 114.14L271.63 114.35L271.21 114.99L270.8 115.62L270.39 116.26L269.98 116.91L269.58 117.55L269.18 118.2L268.78 118.84L268.38 119.49L267.99 120.14L267.6 120.79L267.21 121.44L266.82 122.1L266.44 122.75L266.05 123.41L265.67 124.07L265.3 124.73L264.92 125.39L264.55 126.05L264.17 126.72L263.8 127.38L263.43 128.04L263.07 128.71L262.7 129.38L262.34 130.05L261.98 130.71L261.62 131.38L261.26 132.06L260.9 132.73L260.55 133.4L260.19 134.07L259.84 134.74L259.48 135.42L259.13 136.09L258.78 136.77L258.43 137.44L258.09 138.12L257.74 138.8L257.39 139.47L257.05 140.15L256.7 140.83L256.57 141.06L256.44 141.29L256.31 141.53L256.18 141.77L256.05 142L255.91 142.24L255.77 142.48L255.63 142.72L255.49 142.95L255.35 143.19L255.2 143.43L255.05 143.66L254.89 143.89L254.74 144.12L254.58 144.35L254.42 144.57L254.25 144.79L254.08 145.01L253.91 145.22L253.73 145.43L253.55 145.64L253.36 145.84L253.17 146.03L252.98 146.22L252.78 146.4L252.58 146.58L252.37 146.75L252.16 146.91L251.94 147.07L251.72 147.22L251.49 147.36L251.26 147.49L251.02 147.61L250.77 147.72L250.52 147.83L250.26 147.92L250 148.01L249.73 148.08L249.45 148.15L249.17 148.2L248.96 148.24L248.74 148.27L248.52 148.29L248.31 148.3L248.09 148.3L247.87 148.3L247.66 148.28L247.45 148.26L247.23 148.22L247.02 148.18L246.81 148.14L246.61 148.08L246.4 148.01L246.2 147.94L246.01 147.86L245.81 147.78L245.62 147.68L245.44 147.58L245.25 147.47L245.08 147.36L244.9 147.23L244.74 147.1L244.58 146.97L244.42 146.83L244.27 146.68L244.13 146.53L244 146.37L243.87 146.2L243.75 146.03L243.64 145.85L243.53 145.67L243.43 145.48L243.35 145.29L243.27 145.09L243.2 144.89L243.14 144.68L243.09 144.47L243.05 144.26L243.02 144.04L243 143.81L242.96 142.8L242.92 141.79L242.9 140.78L242.89 139.77L242.89 138.76L242.9 137.75L242.92 136.74L242.95 135.73L242.98 134.71L243.02 133.7L243.07 132.69L243.12 131.68L243.17 130.67L243.23 129.66L243.29 128.65L243.36 127.63L243.42 126.62L243.49 125.61L243.55 124.6L243.61 123.59L243.67 122.58L243.73 121.57L243.79 120.56L243.84 119.55L243.88 118.53L243.92 117.52L243.96 116.51L243.98 115.5L244 114.49L244.01 113.48L244.01 112.47L244 111.46L243.98 110.45L243.95 109.45L243.9 108.44L243.84 107.43L243.77 106.42L243.68 105.41L243.57 104.4L243.45 103.4L243.23 103.66L243.01 103.93L242.79 104.2L242.57 104.47L242.35 104.74L242.14 105.02L241.92 105.29L241.71 105.57L241.5 105.84L241.29 106.12L241.09 106.4L240.88 106.69L240.68 106.97L240.48 107.26L240.28 107.54L240.09 107.83L239.9 108.12L239.71 108.41L239.52 108.71L239.33 109L239.15 109.3L238.97 109.6L238.8 109.9L238.62 110.2L238.45 110.5L238.28 110.8L238.12 111.11L237.96 111.42L237.8 111.73L237.65 112.04L237.5 112.35L237.35 112.67L237.21 112.99L237.07 113.3L236.93 113.63L236.8 113.95L236.67 114.27L236.55 114.6L236.43 114.93L236.31 115.26L236.05 116.04L235.79 116.83L235.51 117.61L235.23 118.39L234.94 119.17L234.64 119.94L234.33 120.71L234.01 121.48L233.68 122.25L233.34 123.01L233 123.77L232.64 124.52L232.28 125.27L231.9 126.01L231.52 126.75L231.13 127.49L230.73 128.22L230.32 128.94L229.9 129.66L229.47 130.37L229.03 131.08L228.58 131.78L228.13 132.48L227.66 133.16L227.18 133.85L226.7 134.52L226.2 135.19L225.7 135.85L225.19 136.5L224.66 137.14L224.13 137.78L223.58 138.4L223.03 139.02L222.47 139.63L221.89 140.23L221.31 140.82L220.72 141.41L220.12 141.98L219.5 142.54L218.88 143.09L218.49 143.44L218.08 143.77L217.67 144.1L217.25 144.41L216.82 144.72L216.38 145.01L215.94 145.29L215.49 145.57L215.03 145.83L214.57 146.08L214.1 146.32L213.62 146.55L213.14 146.76L212.66 146.96L212.16 147.15L211.67 147.33L211.17 147.5L210.67 147.65L210.16 147.78L209.65 147.91L209.14 148.02L208.63 148.11L208.11 148.19L207.6 148.26L207.08 148.3L206.56 148.34L206.04 148.36L205.52 148.36L205 148.35L204.48 148.32L203.97 148.27L203.45 148.21L202.93 148.13L202.42 148.03L201.91 147.91L201.4 147.78L200.89 147.62L200.39 147.45L199.89 147.26L199.4 147.05L199.06 146.9L198.73 146.75L198.41 146.58L198.09 146.4L197.78 146.21L197.49 146.02L197.19 145.81L196.91 145.6L196.63 145.38L196.36 145.15L196.1 144.92L195.84 144.67L195.59 144.42L195.35 144.17L195.11 143.9L194.88 143.64L194.66 143.36L194.43 143.08L194.22 142.8L194.01 142.51L193.8 142.22L193.6 141.92L193.41 141.62L193.22 141.31L193.03 141.01L192.85 140.7L192.67 140.38L192.49 140.07L192.32 139.75L192.15 139.43L191.98 139.11L191.82 138.79L191.66 138.47L191.5 138.14L191.34 137.82L191.19 137.5L191.04 137.18L190.89 136.86L190.74 136.54L190.59 136.22L190.36 136.52L190.13 136.82L189.9 137.12L189.67 137.43L189.44 137.73L189.2 138.03L188.97 138.33L188.73 138.62L188.49 138.92L188.25 139.22L188 139.51L187.76 139.8L187.51 140.09L187.26 140.38L187 140.66L186.75 140.95L186.49 141.23L186.23 141.5L185.96 141.78L185.69 142.04L185.42 142.31L185.15 142.57L184.87 142.83L184.59 143.08L184.3 143.33L184.02 143.58L183.72 143.82L183.43 144.05L183.13 144.28L182.82 144.51L182.51 144.73L182.2 144.94L181.88 145.15L181.56 145.35L181.23 145.54L180.9 145.73L180.57 145.91L180.23 146.09L179.88 146.25L179.53 146.41L179.08 146.62L178.61 146.8L178.15 146.97L177.68 147.13L177.2 147.26L176.72 147.38L176.24 147.49L175.75 147.57L175.26 147.64L174.77 147.7L174.28 147.74L173.79 147.76L173.29 147.76L172.8 147.75L172.3 147.73L171.81 147.69L171.32 147.63L170.83 147.56L170.34 147.47L169.86 147.37L169.38 147.25L168.9 147.11L168.43 146.96L167.97 146.8L167.5 146.62L167.05 146.43L166.6 146.22L166.16 146L165.73 145.76L165.3 145.51L164.89 145.25L164.48 144.97L164.08 144.68L163.7 144.37L163.32 144.05L162.96 143.71L162.6 143.37L162.26 143L161.93 142.63L161.62 142.24L161.27 141.8L160.95 141.35L160.64 140.89L160.35 140.43L160.07 139.96L159.81 139.48L159.57 139L159.34 138.51L159.13 138.01L158.94 137.51L158.75 137L158.58 136.49L158.43 135.97L158.29 135.45L158.16 134.92L158.04 134.39L157.94 133.86L157.85 133.32L157.76 132.78L157.69 132.24L157.63 131.7L157.58 131.15L157.54 130.6L157.51 130.05L157.49 129.5L157.47 128.95L157.46 128.4L157.46 127.85L157.47 127.3L157.49 126.75L157.51 126.2L157.53 125.65L157.57 125.1L157.6 124.56L157.65 124.01L157.69 123.47L157.74 122.93L157.8 122.4L157.85 121.86L157.91 121.33L158.01 120.75L158.11 120.17L158.21 119.59L158.31 119.01L158.42 118.43L158.54 117.85L158.66 117.27L158.79 116.69L158.92 116.11L159.05 115.53L159.19 114.95L159.34 114.37L159.5 113.8L159.66 113.22L159.82 112.65L160 112.08L160.18 111.51L160.37 110.95L160.56 110.38L160.76 109.83L160.97 109.27L161.19 108.72L161.42 108.17L161.65 107.63L161.9 107.09L162.15 106.55L162.41 106.02L162.68 105.5L162.96 104.98L163.25 104.46L163.55 103.95L163.86 103.45L164.17 102.96L164.5 102.47L164.84 101.98L165.19 101.51L165.56 101.04L165.93 100.58L166.31 100.12L166.71 99.68L166.95 99.53L167.19 99.4L167.43 99.29L167.68 99.21L167.92 99.15L168.17 99.1L168.42 99.08L168.67 99.08L168.91 99.09L169.15 99.13L169.39 99.18L169.63 99.24L169.86 99.33L170.08 99.42L170.3 99.54L170.51 99.66L170.72 99.8L170.91 99.95L171.1 100.11L171.28 100.28L171.44 100.46L171.6 100.65L171.74 100.85L171.88 101.05L171.99 101.26L172.1 101.48L172.19 101.71L172.26 101.94L172.32 102.17L172.36 102.41L172.38 102.65L172.38 102.89L172.37 103.13L172.33 103.37L172.28 103.61L172.2 103.85L172.1 104.09L171.98 104.33L171.84 104.56L171.67 104.79L171.3 105.48L170.93 106.18L170.57 106.88L170.21 107.59L169.86 108.31L169.52 109.03L169.19 109.75L168.86 110.48L168.54 111.22L168.23 111.96L167.93 112.7L167.65 113.45L167.37 114.21L167.1 114.96L166.85 115.72L166.61 116.49L166.38 117.26L166.17 118.03L165.97 118.8L165.78 119.57L165.61 120.35L165.46 121.13L165.32 121.91L165.2 122.7L165.09 123.48L165.01 124.27L164.94 125.05L164.89 125.84L164.87 126.63L164.86 127.42L164.87 128.21L164.91 128.99L164.97 129.78L165.05 130.57L165.15 131.36L165.28 132.14L165.43 132.93L165.6 133.71L165.8 134.49L166.03 135.27L166.21 135.73L166.41 136.17L166.63 136.58L166.87 136.97L167.14 137.33L167.42 137.67L167.72 137.99L168.04 138.28L168.37 138.55L168.72 138.8L169.08 139.03L169.45 139.24L169.84 139.42L170.23 139.58L170.64 139.72L171.05 139.84L171.48 139.94L171.9 140.02L172.34 140.07L172.77 140.11L173.22 140.13L173.66 140.12L174.1 140.1L174.55 140.06L174.99 139.99L175.43 139.91L175.87 139.81L176.31 139.7L176.74 139.56L177.16 139.41L177.58 139.23L177.99 139.04L178.39 138.84L178.78 138.61L179.16 138.37L179.52 138.11L179.88 137.83L180.22 137.54L180.54 137.23L180.85 136.91L181.53 136.28L182.16 135.63L182.76 134.96L183.31 134.27L183.83 133.57L184.31 132.85L184.75 132.12L185.17 131.37L185.55 130.61L185.9 129.83L186.22 129.04L186.51 128.24L186.78 127.43L187.02 126.61L187.25 125.78L187.45 124.94L187.63 124.09L187.79 123.24L187.93 122.38L188.06 121.51L188.18 120.64L188.28 119.76L188.37 118.88L188.46 118L188.53 117.11L188.6 116.23L188.67 115.34L188.73 114.45L188.79 113.56L188.85 112.68L188.91 111.79L188.98 110.91L189.04 110.04L189.12 109.17L189.2 108.3L189.29 107.44L189.39 106.58L189.51 105.73L189.63 104.89L189.78 104.06L189.81 103.77L189.87 103.49L189.95 103.23L190.05 102.99L190.17 102.75L190.31 102.54L190.46 102.33L190.63 102.15L190.82 101.97L191.01 101.82L191.22 101.67L191.44 101.55L191.67 101.43L191.9 101.34L192.14 101.25L192.39 101.19L192.64 101.14L192.9 101.1L193.16 101.08L193.41 101.07L193.67 101.08L193.93 101.1L194.18 101.14L194.43 101.2L194.67 101.27L194.91 101.35L195.14 101.45L195.36 101.57L195.57 101.7L195.77 101.84L195.96 102L196.13 102.18L196.29 102.37L196.43 102.58L196.56 102.81L196.66 103.04L196.75 103.3L196.82 103.57L196.86 103.85L196.88 104.16L196.9 104.95L196.9 105.74L196.89 106.54L196.87 107.34L196.84 108.15L196.8 108.95L196.75 109.76L196.69 110.56L196.63 111.37L196.56 112.18L196.49 112.99L196.42 113.8L196.35 114.62L196.27 115.43L196.2 116.24L196.14 117.05L196.07 117.86L196.01 118.68L195.96 119.49L195.92 120.29L195.89 121.1L195.86 121.91L195.85 122.72L195.85 123.52L195.87 124.32L195.9 125.12L195.94 125.92L196.01 126.71L196.09 127.5L196.2 128.29L196.32 129.08L196.47 129.86L196.65 130.64L196.84 131.41L197.07 132.18L197.32 132.95L197.61 133.71L197.92 134.47L198.26 135.22L198.64 135.96L198.79 136.3L198.96 136.62L199.14 136.93L199.33 137.23L199.53 137.52L199.75 137.8L199.98 138.06L200.21 138.32L200.46 138.57L200.72 138.8L200.98 139.03L201.26 139.24L201.54 139.44L201.83 139.63L202.13 139.8L202.43 139.97L202.74 140.12L203.06 140.26L203.38 140.39L203.71 140.5L204.04 140.61L204.37 140.7L204.71 140.77L205.05 140.83L205.4 140.88L205.74 140.92L206.09 140.94L206.44 140.95L206.78 140.95L207.13 140.93L207.48 140.9L207.82 140.85L208.17 140.79L208.51 140.71L208.85 140.62L209.19 140.51L209.52 140.39L209.85 140.25L210.18 140.1L210.5 139.94L211.01 139.66L211.52 139.38L212.02 139.08L212.5 138.77L212.98 138.45L213.45 138.12L213.91 137.77L214.36 137.42L214.8 137.06L215.23 136.68L215.66 136.3L216.07 135.91L216.48 135.51L216.88 135.1L217.28 134.68L217.66 134.25L218.04 133.82L218.41 133.38L218.78 132.94L219.14 132.48L219.49 132.03L219.84 131.56L220.18 131.1L220.51 130.62L220.84 130.14L221.16 129.66L221.48 129.18L221.8 128.69L222.11 128.2L222.41 127.7L222.71 127.21L223 126.71L223.3 126.21L223.58 125.71L223.87 125.21L224.15 124.71L224.42 124.21L224.7 123.71L224.97 123.2L225.24 122.71L225.48 122.08L225.73 121.46L225.97 120.84L226.21 120.21L226.46 119.58L226.7 118.96L226.94 118.33L227.18 117.7L227.43 117.07L227.67 116.44L227.92 115.81L228.17 115.18L228.42 114.56L228.68 113.93L228.94 113.31L229.2 112.69L229.47 112.07L229.74 111.45L230.02 110.84L230.3 110.23L230.59 109.62L230.88 109.02L231.19 108.41L231.49 107.82L231.81 107.23L232.13 106.64L232.46 106.06L232.8 105.48L233.15 104.91L233.51 104.35L233.88 103.79L234.25 103.23L234.64 102.69L235.04 102.15L235.45 101.62L235.87 101.09L236.31 100.58L236.75 100.07L237.21 99.57L237.68 99.08L237.86 98.89L238.05 98.71L238.24 98.54L238.43 98.37L238.63 98.2L238.84 98.04L239.04 97.88L239.26 97.73L239.47 97.59L239.7 97.45L239.92 97.31L240.15 97.18L240.38 97.06L240.61 96.95L240.85 96.84L241.09 96.74L241.33 96.64L241.58 96.56L241.82 96.48L242.07 96.41L242.32 96.34L242.57 96.29L242.82 96.24L243.08 96.21L243.33 96.18L243.59 96.16L243.84 96.15L244.09 96.14L244.35 96.15L244.6 96.17L244.86 96.2L245.11 96.24L245.36 96.29L245.61 96.35L245.86 96.42L246.11 96.5L246.35 96.6L246.6 96.7L246.84 96.82L247.08 96.95L247.33 97.09L247.57 97.25L247.8 97.41L248.02 97.58L248.23 97.76L248.43 97.94L248.63 98.14L248.81 98.34L248.99 98.54L249.16 98.75L249.33 98.97L249.48 99.19L249.63 99.42L249.77 99.66L249.91 99.9L250.03 100.14L250.15 100.39L250.27 100.64L250.38 100.89L250.48 101.15L250.57 101.41L250.66 101.68L250.75 101.94L250.82 102.21L250.9 102.48L250.97 102.76L251.03 103.03L251.09 103.3L251.14 103.58L251.19 103.86L251.24 104.13L251.28 104.41L251.31 104.69L251.35 104.96L251.38 105.24L251.4 105.51L251.43 105.79L251.45 106.06L251.46 106.33L251.48 106.59L251.5 107.37L251.51 108.15L251.52 108.92L251.53 109.7L251.53 110.48L251.53 111.25L251.52 112.03L251.51 112.8L251.5 113.58L251.48 114.36L251.46 115.13L251.44 115.91L251.42 116.68L251.39 117.46L251.36 118.24L251.32 119.01L251.29 119.79L251.25 120.56L251.21 121.34L251.17 122.11L251.13 122.89L251.08 123.66L251.04 124.44L250.99 125.21L250.94 125.99L250.89 126.76L250.84 127.54L250.79 128.31L250.74 129.09L250.69 129.86L250.64 130.64L250.59 131.41L250.54 132.19L250.49 132.96L250.44 133.73L250.39 134.51L250.35 135.28L250.3 136.06L250.25 136.83L250.21 137.6L250.58 136.9L250.95 136.2L251.32 135.49L251.69 134.79L252.07 134.08L252.44 133.38L252.81 132.68L253.18 131.97L253.55 131.27L253.93 130.57L254.3 129.86L254.68 129.16L255.06 128.46L255.43 127.76L255.81 127.06L256.19 126.36L256.57 125.66L256.96 124.96L257.34 124.26L257.72 123.57L258.11 122.87L258.5 122.18L258.89 121.48L259.29 120.79L259.68 120.1L260.08 119.41L260.48 118.72L260.88 118.03L261.28 117.35L261.69 116.66L262.1 115.98L262.51 115.3L262.92 114.62L263.34 113.94L263.76 113.27L264.18 112.59L264.61 111.92L265.04 111.25L265.47 110.58L265.91 109.91L266.16 109.54L266.42 109.17L266.68 108.8L266.96 108.43L267.24 108.07L267.53 107.72L267.83 107.36L268.13 107.01L268.45 106.67L268.77 106.33L269.1 106L269.43 105.68L269.77 105.37L270.12 105.06L270.48 104.76L270.84 104.47L271.21 104.19L271.58 103.92L271.96 103.66L272.35 103.41L272.74 103.17L273.14 102.95L273.54 102.74L273.95 102.54L274.37 102.35L274.79 102.18L275.21 102.02L275.64 101.88L276.07 101.75L276.51 101.64L276.95 101.54L277.4 101.47L277.85 101.41L278.3 101.36L278.76 101.34L279.22 101.34L279.69 101.35L280.15 101.39L280.63 101.44L281.1 101.52L281.49 101.61L281.87 101.72L282.23 101.84L282.59 101.99L282.93 102.14L283.27 102.32L283.59 102.51L283.9 102.71L284.2 102.92L284.49 103.15L284.77 103.4L285.04 103.65L285.29 103.91L285.54 104.19L285.78 104.48L286.01 104.77L286.22 105.08L286.43 105.39L286.63 105.71L286.82 106.04L286.99 106.38L287.16 106.72L287.32 107.07L287.47 107.42L287.61 107.78L287.74 108.14L287.86 108.51L287.97 108.88L288.08 109.25L288.17 109.62L288.26 110L288.33 110.37L288.4 110.75L288.46 111.13L288.51 111.5L288.55 111.88L288.59 112.25L288.62 112.62L288.63 112.99L288.64 113.35L288.65 113.91L288.66 114.47L288.66 115.04L288.66 115.6L288.65 116.16L288.65 116.72L288.64 117.28L288.62 117.84L288.61 118.4L288.59 118.97L288.57 119.53L288.55 120.09L288.52 120.65L288.5 121.21L288.47 121.77L288.44 122.33L288.41 122.89L288.38 123.46L288.35 124.02L288.31 124.58L288.28 125.14L288.25 125.7L288.21 126.26L288.18 126.82L288.14 127.38L288.11 127.94L288.08 128.51L288.05 129.07L288.01 129.63L287.98 130.19L287.95 130.75L287.93 131.31L287.9 131.87L287.87 132.44L287.85 133L287.83 133.56L287.81 134.12L287.79 134.68L287.78 135.24L287.76 135.8L288.08 135.2L288.4 134.59L288.72 133.98L289.04 133.38L289.36 132.77L289.68 132.16L289.99 131.55L290.31 130.94L290.62 130.33L290.94 129.72L291.25 129.11L291.57 128.5L291.89 127.9L292.2 127.29L292.52 126.68L292.84 126.07L293.16 125.46L293.47 124.86L293.8 124.25L294.12 123.64L294.44 123.04L294.76 122.43L295.09 121.83L295.42 121.23L295.75 120.63L296.08 120.03L296.41 119.43L296.75 118.83L297.09 118.23L297.43 117.64L297.77 117.05L298.12 116.46L298.47 115.87L298.82 115.28L299.18 114.69L299.54 114.11L299.9 113.53L300.27 112.95L300.64 112.37L301.01 111.79L301.27 111.41L301.53 111.03L301.8 110.65L302.08 110.28L302.36 109.9L302.65 109.53L302.94 109.15L303.24 108.78L303.54 108.42L303.85 108.06L304.16 107.7L304.48 107.35L304.81 107L305.14 106.66L305.48 106.33L305.82 106L306.17 105.68L306.52 105.36L306.88 105.05L307.24 104.76L307.62 104.47L307.99 104.19L308.37 103.92L308.76 103.66L309.16 103.41L309.56 103.17L309.96 102.94L310.38 102.73L310.79 102.53L311.22 102.34L311.65 102.16L312.08 102L312.52 101.85L312.97 101.72L313.43 101.6L313.89 101.5L314.35 101.41L314.83 101.34L315.3 101.29L315.79 101.25L316.14 101.22L316.48 101.2L316.83 101.2L317.18 101.21L317.52 101.23L317.87 101.27L318.21 101.31L318.54 101.37L318.88 101.44L319.21 101.53L319.54 101.62L319.87 101.73L320.19 101.84L320.5 101.97L320.82 102.11L321.12 102.26L321.43 102.41L321.72 102.58L322.01 102.76L322.3 102.95L322.58 103.15L322.85 103.36L323.11 103.57L323.37 103.8L323.62 104.03L323.86 104.27L324.09 104.52L324.31 104.78L324.53 105.05L324.73 105.32L324.93 105.6L325.12 105.89L325.29 106.18L325.46 106.48L325.61 106.79L325.75 107.1L325.89 107.42L326.01 107.75L326.11 108.08L326.21 108.42L326.39 109.15L326.55 109.88L326.68 110.61L326.79 111.35L326.88 112.08L326.94 112.82L326.98 113.56L327.01 114.3L327.02 115.04L327.02 115.79L327 116.53L326.97 117.28L326.93 118.02L326.88 118.77L326.83 119.52L326.76 120.27L326.7 121.01L326.63 121.76L326.56 122.51L326.49 123.26L326.42 124.01L326.35 124.75L326.29 125.5L326.23 126.25L326.18 126.99L326.14 127.74L326.12 128.48L326.1 129.23L326.1 129.97L326.11 130.71L326.14 131.45L326.18 132.19L326.25 132.92L326.34 133.66L326.45 134.39L326.58 135.12L326.74 135.85L326.92 136.57L327.14 137.3L327.38 138.02L327.53 138.3L327.69 138.58L327.86 138.83L328.05 139.07L328.25 139.3L328.45 139.51L328.67 139.7L328.89 139.88L329.13 140.05L329.37 140.2L329.62 140.34L329.88 140.47L330.15 140.58L330.42 140.68L330.69 140.77L330.98 140.84L331.26 140.91L331.56 140.96L331.85 141L332.15 141.03L332.45 141.04L332.75 141.05L333.05 141.04L333.36 141.03L333.66 141.01L333.97 140.97L334.27 140.93L334.58 140.87L334.88 140.81L335.18 140.74L335.47 140.66L335.76 140.58L336.05 140.48L336.34 140.38L336.62 140.27L336.89 140.15L337.16 140.03L337.42 139.9L337.68 139.76L337.92 139.62L338.4 139.33L338.87 139.03L339.34 138.72L339.79 138.4L340.24 138.07L340.67 137.74L341.1 137.39L341.53 137.03L341.94 136.67L342.35 136.3L342.75 135.92L343.14 135.53L343.53 135.14L343.91 134.74L344.28 134.33L344.65 133.91L345.01 133.49L345.36 133.07L345.71 132.64L346.05 132.2L346.39 131.76L346.73 131.32L347.05 130.87L347.38 130.41L347.7 129.96L348.01 129.5L348.32 129.03L348.63 128.57L348.93 128.1L349.23 127.63L349.53 127.16L349.82 126.68L350.11 126.21L350.4 125.73L350.68 125.26L350.97 124.78L351.25 124.3L351.52 123.83L351.8 123.35L352.08 122.88L352.41 122.28L352.73 121.68L353.06 121.07L353.37 120.46L353.68 119.85L353.98 119.24L354.29 118.62L354.58 118L354.88 117.37L355.17 116.75L355.46 116.12L355.75 115.5L356.04 114.87L356.33 114.24L356.62 113.62L356.91 112.99L357.2 112.37L357.49 111.74L357.79 111.12L358.09 110.5L358.39 109.88L358.7 109.27L359.01 108.65L359.33 108.04L359.66 107.44L359.99 106.84L360.33 106.24L360.67 105.65L361.02 105.07L361.39 104.49L361.76 103.91L362.14 103.35L362.53 102.78L362.94 102.23L363.35 101.68L363.78 101.15L364.22 100.62L364.67 100.09L365.13 99.58L365.61 99.08L365.79 98.9L365.97 98.72L366.16 98.54L366.35 98.37L366.55 98.21L366.75 98.05L366.95 97.89L367.16 97.74L367.38 97.6L367.6 97.46L367.82 97.33L368.04 97.2L368.27 97.08L368.5 96.96L368.74 96.86L368.98 96.75L369.21 96.66L369.46 96.57L369.7 96.49L369.95 96.42L370.19 96.36L370.44 96.3L370.69 96.25L370.94 96.21L371.19 96.18L371.45 96.16L371.7 96.15L371.95 96.14L372.2 96.15L372.45 96.16L372.71 96.19L372.96 96.22L373.21 96.27L373.46 96.33L373.7 96.39L373.95 96.47L374.19 96.56L374.44 96.66L374.68 96.77L374.92 96.89L375.17 97.03L375.41 97.19L375.64 97.35L375.87 97.51L376.08 97.69L376.29 97.87L376.49 98.06L376.68 98.26L376.86 98.46L377.03 98.67L377.2 98.88L377.36 99.11L377.51 99.33L377.65 99.57L377.79 99.8L377.92 100.04L378.04 100.29L378.16 100.54L378.27 100.79L378.38 101.05L378.47 101.31L378.57 101.58L378.65 101.84L378.73 102.11L378.81 102.38L378.88 102.65L378.95 102.93L379.01 103.2L379.06 103.48L379.11 103.76L379.16 104.03L379.2 104.31L379.24 104.59L379.27 104.87L379.3 105.14L379.33 105.42L379.35 105.69L379.38 105.96L379.39 106.23L379.41 106.5L379.43 107.28L379.44 108.06L379.45 108.84L379.46 109.61L379.46 110.39L379.46 111.17L379.46 111.95L379.45 112.73L379.44 113.51L379.42 114.28L379.4 115.06L379.38 115.84L379.35 116.62L379.32 117.4L379.29 118.17L379.26 118.95L379.22 119.73L379.19 120.51L379.15 121.29L379.1 122.06L379.06 122.84L379.02 123.62L378.97 124.4L378.92 125.17L378.87 125.95L378.83 126.73L378.78 127.51L378.73 128.29L378.67 129.06L378.62 129.84L378.57 130.62L378.52 131.4L378.47 132.17L378.42 132.95L378.37 133.73L378.32 134.51L378.28 135.28L378.23 136.06L378.18 136.84L378.14 137.62L378.51 136.91L378.88 136.21L379.25 135.5L379.62 134.79L380 134.09L380.37 133.38L380.74 132.68L381.11 131.97L381.49 131.27L381.86 130.56L382.23 129.86L382.61 129.16L382.99 128.45L383.36 127.75L383.74 127.05L384.12 126.35L384.5 125.65L384.89 124.95L385.27 124.25L385.66 123.55L386.05 122.86L386.44 122.16L386.83 121.47L387.22 120.77L387.62 120.08L388.02 119.39L388.42 118.7L388.82 118.02L389.22 117.33L389.63 116.65L390.04 115.96L390.45 115.28L390.87 114.6L391.29 113.92L391.71 113.25L392.13 112.57L392.56 111.9L392.99 111.23L393.43 110.56L393.87 109.9L394.11 109.53L394.37 109.16L394.63 108.79L394.9 108.43L395.19 108.07L395.47 107.71L395.77 107.36L396.07 107.01L396.38 106.67L396.7 106.34L397.03 106.01L397.36 105.69L397.7 105.37L398.05 105.07L398.4 104.77L398.76 104.48L399.13 104.2L399.5 103.93L399.88 103.68L400.26 103.43L400.65 103.19L401.04 102.97L401.44 102.75L401.85 102.55L402.26 102.37L402.68 102.2L403.1 102.04L403.52 101.9L403.96 101.77L404.39 101.66L404.83 101.56L405.27 101.48L405.72 101.42L406.17 101.37L406.63 101.35L407.08 101.34L407.55 101.35L408.01 101.38L408.48 101.43L408.95 101.5L409.34 101.59L409.73 101.7L410.1 101.82L410.46 101.96L410.81 102.12L411.14 102.29L411.47 102.48L411.78 102.68L412.09 102.9L412.38 103.13L412.66 103.37L412.94 103.62L413.2 103.89L413.45 104.16L413.69 104.45L413.92 104.75L414.14 105.05L414.35 105.37L414.55 105.69L414.74 106.02L414.92 106.36L415.09 106.7L415.25 107.05L415.4 107.41L415.54 107.77L415.67 108.13L415.79 108.5L415.91 108.87L416.01 109.25L416.1 109.63L416.19 110L416.27 110.38L416.34 110.76L416.39 111.14L416.45 111.52L416.49 111.89L416.52 112.27L416.55 112.64L416.56 113.01L416.57 113.38L416.58 113.94L416.59 114.5L416.59 115.06L416.59 115.62L416.58 116.18L416.57 116.75L416.56 117.31L416.55 117.87L416.53 118.43L416.51 118.99L416.49 119.55L416.47 120.11L416.45 120.67L416.42 121.23L416.39 121.79L416.36 122.35L416.33 122.91L416.3 123.47L416.27 124.04L416.24 124.6L416.21 125.16L416.17 125.72L416.14 126.28L416.11 126.84L416.07 127.4L416.04 127.96L416.01 128.52L415.97 129.08L415.94 129.64L415.91 130.2L415.88 130.76L415.85 131.32L415.83 131.88L415.8 132.44L415.78 133L415.76 133.56L415.74 134.12L415.72 134.68L415.71 135.24L415.69 135.8L416.03 135.18L416.36 134.55L416.69 133.93L417.01 133.3L417.34 132.67L417.67 132.04L417.99 131.41L418.32 130.79L418.65 130.16L418.97 129.53L419.3 128.9L419.62 128.27L419.95 127.64L420.27 127.01L420.6 126.38L420.93 125.75L421.26 125.13L421.59 124.5L421.92 123.87L422.25 123.25L422.58 122.62L422.92 122L423.26 121.38L423.6 120.76L423.94 120.14L424.28 119.52L424.63 118.9L424.98 118.28L425.33 117.67L425.69 117.06L426.05 116.45L426.41 115.84L426.78 115.24L427.15 114.63L427.52 114.03L427.9 113.43L428.28 112.83L428.66 112.24L429.05 111.65L429.45 111.06L429.72 110.67L430 110.29L430.28 109.9L430.57 109.52L430.87 109.14L431.17 108.76L431.49 108.39L431.8 108.02L432.13 107.65L432.46 107.29L432.79 106.93L433.14 106.58L433.49 106.24L433.84 105.91L434.2 105.58L434.57 105.26L434.95 104.94L435.33 104.64L435.71 104.34L436.11 104.06L436.5 103.79L436.91 103.52L437.32 103.27L437.73 103.03L438.16 102.81L438.58 102.59L439.02 102.39L439.46 102.21L439.9 102.03L440.35 101.88L440.8 101.74L441.27 101.61L441.73 101.5L442.2 101.41L442.68 101.34L443.16 101.28L443.65 101.24L444.14 101.23L444.64 101.23L445.14 101.25L445.49 101.26L445.83 101.29L446.17 101.32L446.5 101.37L446.83 101.44L447.16 101.51L447.48 101.6L447.8 101.7L448.12 101.81L448.43 101.94L448.73 102.07L449.03 102.21L449.33 102.37L449.61 102.53L449.9 102.71L450.17 102.89L450.44 103.09L450.71 103.29L450.96 103.5L451.21 103.72L451.46 103.95L451.69 104.19L451.92 104.43L452.14 104.69L452.36 104.94L452.56 105.21L452.76 105.48L452.94 105.76L453.12 106.04L453.29 106.33L453.45 106.63L453.6 106.93L453.75 107.24L453.88 107.55L454 107.86L454.11 108.18L454.21 108.5L454.3 108.83L454.38 109.15L454.45 109.49L454.57 110.17L454.67 110.86L454.76 111.54L454.83 112.23L454.88 112.92L454.91 113.61L454.93 114.3L454.94 114.99L454.94 115.68L454.92 116.37L454.9 117.06L454.86 117.75L454.82 118.45L454.77 119.14L454.72 119.83L454.66 120.52L454.6 121.22L454.54 121.91L454.47 122.6L454.41 123.3L454.35 123.99L454.29 124.68L454.23 125.37L454.18 126.07L454.14 126.76L454.1 127.45L454.07 128.14L454.05 128.83L454.04 129.52L454.04 130.21L454.05 130.9L454.08 131.59L454.12 132.27L454.18 132.96L454.26 133.65L454.35 134.33L454.46 135.01L454.59 135.7L454.75 136.38L454.93 137.06L455 137.32L455.08 137.57L455.18 137.82L455.29 138.05L455.41 138.28L455.54 138.5L455.68 138.71L455.83 138.91L455.98 139.1L456.15 139.28L456.33 139.45L456.51 139.62L456.7 139.77L456.9 139.92L457.1 140.06L457.32 140.19L457.53 140.31L457.75 140.42L457.98 140.52L458.21 140.62L458.45 140.7L458.69 140.78L458.93 140.85L459.18 140.91L459.43 140.96L459.68 141L459.94 141.03L460.19 141.06L460.45 141.07L460.7 141.08L460.96 141.08L461.21 141.07L461.47 141.06L461.72 141.03L461.98 140.99L462.23 140.95L462.47 140.9L462.72 140.84L462.96 140.77L463.2 140.7L463.59 140.57L463.98 140.43L464.36 140.28L464.74 140.12L465.11 139.95L465.48 139.77L465.84 139.59L466.19 139.39L466.54 139.19L466.89 138.98L467.23 138.76L467.57 138.54L467.9 138.3L468.23 138.06L468.55 137.82L468.87 137.56L469.18 137.31L469.49 137.04L469.79 136.77L470.1 136.49L470.39 136.21L470.69 135.93L470.98 135.64L471.26 135.34L471.54 135.05L471.82 134.74L472.1 134.44L472.37 134.13L472.63 133.82L472.9 133.5L473.16 133.19L473.42 132.87L473.67 132.55L473.93 132.23L474.18 131.9L474.42 131.58L474.67 131.25L474.91 130.93L475.15 130.6L475.38 130.27L475.74 129.74L476.1 129.21L476.46 128.68L476.81 128.14L477.17 127.6L477.52 127.06L477.86 126.51L478.2 125.96L478.54 125.42L478.88 124.86L479.21 124.31L479.54 123.75L479.86 123.19L480.18 122.63L480.49 122.07L480.8 121.5L481.11 120.93L481.41 120.36L481.7 119.79L481.99 119.21L482.27 118.63L482.55 118.05L482.82 117.47L483.08 116.88L483.34 116.29L483.59 115.7L483.83 115.1L484.07 114.5L484.3 113.9L484.52 113.3L484.74 112.69L484.94 112.08L485.14 111.47L485.33 110.85L485.52 110.24L485.69 109.61L485.85 108.99L486.01 108.36L486.16 107.73L486.3 107.1L486.03 107.05L485.76 107L485.48 106.96L485.2 106.92L484.91 106.88L484.62 106.84L484.32 106.8L484.02 106.77L483.72 106.73L483.42 106.69L483.12 106.66L482.81 106.62L482.51 106.57L482.2 106.53L481.9 106.48L481.6 106.43L481.3 106.37L481 106.31L480.7 106.24L480.41 106.16L480.13 106.08L479.85 105.99L479.57 105.89L479.3 105.79L479.04 105.67L478.79 105.55L478.54 105.41L478.3 105.27L478.07 105.11L477.85 104.94L477.64 104.76L477.44 104.57L477.25 104.36L477.08 104.14L476.91 103.9L476.76 103.65L476.62 103.38L476.5 103.1L476.39 102.8L476.3 102.48L476.26 102.06L476.23 101.65L476.21 101.23L476.21 100.82L476.22 100.41L476.24 100L476.27 99.59L476.31 99.18L476.36 98.78L476.43 98.37L476.5 97.97L476.58 97.57L476.68 97.17L476.78 96.77L476.89 96.37L477.01 95.98L477.14 95.59L477.28 95.2L477.42 94.81L477.57 94.42L477.73 94.04L477.9 93.65L478.07 93.27L478.25 92.9L478.43 92.52L478.62 92.15L478.82 91.78L479.02 91.41L479.22 91.05L479.43 90.69L479.64 90.33L479.86 89.97L480.08 89.62L480.3 89.27L480.53 88.93L480.76 88.58L480.99 88.24L481.22 87.91L481.45 87.57L481.68 87.24L481.82 87.06L481.96 86.87L482.1 86.69L482.26 86.51L482.41 86.32L482.58 86.15L482.74 85.97L482.92 85.8L483.1 85.63L483.28 85.47L483.47 85.31L483.66 85.16L483.85 85.01L484.05 84.87L484.26 84.73L484.46 84.6L484.67 84.48L484.88 84.37L485.1 84.26L485.31 84.16L485.53 84.07L485.75 83.99L485.98 83.92L486.2 83.86L486.43 83.81L486.65 83.78L486.88 83.75L487.11 83.73L487.34 83.73L487.57 83.74L487.8 83.76ZM571.36 171.65L570.47 173.05L569.6 174.46L568.75 175.88L567.91 177.31L567.09 178.75L566.29 180.21L565.5 181.67L564.73 183.14L563.99 184.62L563.26 186.11L562.55 187.61L561.85 189.12L561.18 190.64L560.53 192.17L559.9 193.7L559.3 195.24L558.71 196.79L558.14 198.35L557.6 199.92L557.08 201.49L556.58 203.08L556.11 204.66L555.66 206.26L555.23 207.86L554.83 209.47L554.69 210.16L554.56 210.86L554.42 211.56L554.28 212.26L554.15 212.97L554.03 213.68L553.91 214.39L553.8 215.11L553.7 215.83L553.61 216.55L553.53 217.27L553.47 217.99L553.42 218.71L553.39 219.43L553.37 220.15L553.37 220.86L553.39 221.58L553.44 222.29L553.51 223L553.6 223.7L553.71 224.4L553.86 225.1L554.03 225.79L554.23 226.47L554.46 227.15L554.72 227.82L555.02 228.49L555.22 228.85L555.44 229.18L555.69 229.5L555.96 229.78L556.25 230.05L556.56 230.29L556.88 230.51L557.22 230.7L557.58 230.87L557.94 231.02L558.32 231.14L558.71 231.24L559.1 231.32L559.49 231.37L559.89 231.39L560.29 231.4L560.69 231.38L561.09 231.34L561.49 231.27L561.88 231.18L562.26 231.06L562.64 230.92L563 230.76L563.35 230.57L563.69 230.36L564.01 230.13L564.32 229.87L564.73 229.49L565.12 229.1L565.49 228.69L565.85 228.27L566.18 227.84L566.51 227.4L566.82 226.95L567.11 226.49L567.39 226.02L567.66 225.54L567.91 225.05L568.15 224.55L568.38 224.05L568.6 223.55L568.81 223.03L569.02 222.52L569.21 222L569.39 221.47L569.57 220.94L569.74 220.42L569.9 219.88L570.06 219.35L570.21 218.82L570.36 218.29L570.5 217.76L570.64 217.23L570.78 216.71L571.16 214.96L571.5 213.22L571.81 211.46L572.09 209.71L572.34 207.95L572.57 206.19L572.76 204.42L572.93 202.65L573.08 200.88L573.21 199.11L573.31 197.34L573.39 195.56L573.46 193.78L573.51 192L573.54 190.22L573.56 188.44L573.56 186.66L573.56 184.88L573.54 183.1L573.51 181.32L573.48 179.54L573.44 177.76L573.39 175.98L573.34 174.2L573.29 172.43L573.24 170.65L573.18 168.88L572.26 170.26L571.36 171.65ZM484.35 95.66L483.53 97.43L482.76 99.21L483.89 99.23L485.01 99.24L486.14 99.24L487.28 99.22L487.02 97.47L486.75 95.71L486.45 93.96L486.15 92.22L485.22 93.92L484.35 95.66Z" id="b1xRIyOOJD"></path></defs><g><g><g><use xlink:href="#a8sXYuCAl" opacity="1" fill="#ffffff" fill-opacity="1"></use><g><use xlink:href="#a8sXYuCAl" opacity="1" fill-opacity="0" stroke="#000000" stroke-width="3" stroke-opacity="1"></use></g></g><g><use xlink:href="#b1xRIyOOJD" opacity="1" fill="#ffffff" fill-opacity="1"></use><g><use xlink:href="#b1xRIyOOJD" opacity="1" fill-opacity="0" stroke="#000000" stroke-width="3" stroke-opacity="1"></use></g></g></g></g></svg>